<?xml version="1.0" encoding="UTF-8"?>
<svg version="1.1" xmlns="http://www.w3.org/2000/svg" width="232" height="284">
<path d="M0 0 C9.35976649 4.97421552 16.59663067 11.488696 22.484375 20.3203125 C24.37571796 21.22917641 26.29740595 22.07574206 28.234375 22.8828125 C34.81626991 26.01968198 37.51833174 29.80205142 40.484375 36.3203125 C40.814375 36.9803125 41.144375 37.6403125 41.484375 38.3203125 C42.7572625 46.3915764 40.84736177 51.8549331 36.48828125 58.64453125 C32.61305648 63.81905166 28.67851354 67.30068072 22.484375 69.3203125 C19.43359375 69.65625 19.43359375 69.65625 16.171875 69.6953125 C15.10324219 69.72367187 14.03460938 69.75203125 12.93359375 69.78125 C9.484375 69.3203125 9.484375 69.3203125 1.484375 65.3203125 C1.154375 71.2603125 0.824375 77.2003125 0.484375 83.3203125 C33.814375 83.3203125 67.144375 83.3203125 101.484375 83.3203125 C101.154375 77.0503125 100.824375 70.7803125 100.484375 64.3203125 C99.494375 65.3103125 98.504375 66.3003125 97.484375 67.3203125 C91.31766891 70.45094012 83.73080733 70.42201416 77.10546875 68.703125 C69.9105506 65.52102813 65.14710063 59.39100252 62.046875 52.3203125 C59.82741827 46.02704775 59.57739051 41.08653467 62.046875 34.7578125 C64.77871389 29.15851152 68.6636911 24.8290504 74.171875 21.8828125 C76.484375 21.3203125 76.484375 21.3203125 80.484375 21.3203125 C80.79375 20.5365625 81.103125 19.7528125 81.421875 18.9453125 C82.484375 16.3203125 82.484375 16.3203125 83.484375 14.3203125 C84.144375 14.3203125 84.804375 14.3203125 85.484375 14.3203125 C85.72542969 13.74152344 85.96648437 13.16273437 86.21484375 12.56640625 C90.35345711 5.24424416 99.18389652 0.85409116 106.8359375 -1.8359375 C111.08916223 -2.81955264 115.06809654 -3.14202913 119.421875 -3.1796875 C120.13158447 -3.18613281 120.84129395 -3.19257812 121.57250977 -3.19921875 C129.10360035 -3.01394769 134.2117184 0.29731253 139.58203125 5.265625 C145.64726702 11.8165778 147.19351634 18.64821552 147.08300781 27.41113281 C146.64203956 35.9189882 142.99880459 42.04728413 137.484375 48.3203125 C134.41734659 50.74016978 131.25355325 52.97600965 128.06640625 55.234375 C125.24934358 57.12668474 125.24934358 57.12668474 124.484375 60.3203125 C124.33547753 62.16497692 124.2364649 64.01388525 124.16796875 65.86328125 C124.10512695 67.47299805 124.10512695 67.47299805 124.04101562 69.11523438 C124.00169922 70.23478516 123.96238281 71.35433594 123.921875 72.5078125 C123.85709961 74.20454102 123.85709961 74.20454102 123.79101562 75.93554688 C123.68488401 78.73034604 123.58283115 81.52523412 123.484375 84.3203125 C124.66902344 84.28421875 125.85367188 84.248125 127.07421875 84.2109375 C135.78621798 84.2186082 144.25345221 87.61180463 151.484375 92.3203125 C151.484375 92.9803125 151.484375 93.6403125 151.484375 94.3203125 C152.12375 94.5884375 152.763125 94.8565625 153.421875 95.1328125 C155.484375 96.3203125 155.484375 96.3203125 156.484375 99.3203125 C157.144375 99.3203125 157.804375 99.3203125 158.484375 99.3203125 C162.68711751 106.32488334 164.87627355 112.13591977 164.859375 120.4453125 C164.85921387 121.18869873 164.85905273 121.93208496 164.85888672 122.69799805 C164.69021545 130.94069639 162.25339038 138.03694495 158.484375 145.3203125 C157.824375 145.3203125 157.164375 145.3203125 156.484375 145.3203125 C156.175 145.9390625 155.865625 146.5578125 155.546875 147.1953125 C154.859375 148.5703125 154.171875 149.9453125 153.484375 151.3203125 C152.824375 151.3203125 152.164375 151.3203125 151.484375 151.3203125 C151.484375 151.9803125 151.484375 152.6403125 151.484375 153.3203125 C149.4375 154.9765625 149.4375 154.9765625 146.734375 156.8203125 C145.85265625 157.42875 144.9709375 158.0371875 144.0625 158.6640625 C141.484375 160.3203125 141.484375 160.3203125 137.484375 162.3203125 C150.849375 162.8153125 150.849375 162.8153125 164.484375 163.3203125 C164.5753697 171.92736073 164.64848591 180.53402415 164.69162369 189.14142704 C164.71234566 193.13979778 164.74037467 197.13781751 164.78613281 201.13598633 C164.83014911 205.00695087 164.8536272 208.87758157 164.86388397 212.74877739 C164.87117684 214.2129179 164.88541209 215.67704376 164.90729523 217.14103889 C165.16421858 235.07086594 161.12038625 250.10993711 148.484375 263.3203125 C147.824375 263.3203125 147.164375 263.3203125 146.484375 263.3203125 C146.484375 263.9803125 146.484375 264.6403125 146.484375 265.3203125 C144.4985923 266.59866011 142.49980939 267.84011229 140.484375 269.0703125 C139.370625 269.76640625 138.256875 270.4625 137.109375 271.1796875 C121.96780472 278.8212022 105.34055829 277.90551041 88.83747125 277.82468295 C85.24948933 277.81064075 81.66153173 277.81731364 78.0735321 277.82081604 C72.05634392 277.82350222 66.03935704 277.81017752 60.0222168 277.78686523 C53.09993937 277.7602291 46.17799728 277.75852592 39.2556861 277.7702536 C32.54728303 277.78108929 25.83899935 277.77480151 19.1306057 277.76069832 C16.29720367 277.7549921 13.46389057 277.7549782 10.63048744 277.75976372 C6.66409566 277.76548969 2.69802992 277.74607482 -1.26831055 277.72436523 C-2.42138199 277.72886688 -3.57445343 277.73336853 -4.76246643 277.73800659 C-21.54935794 277.58644082 -35.28037306 272.79592793 -47.65234375 261.37109375 C-49.515625 259.3203125 -49.515625 259.3203125 -50.515625 256.3203125 C-51.175625 256.3203125 -51.835625 256.3203125 -52.515625 256.3203125 C-53.64839768 254.13654484 -54.77185289 251.94874122 -55.890625 249.7578125 C-56.20773438 249.14873047 -56.52484375 248.53964844 -56.8515625 247.91210938 C-62.75570732 236.28832426 -62.66373625 224.41633174 -62.61328125 211.66015625 C-62.61141237 210.26054434 -62.60999069 208.86093177 -62.60899353 207.46131897 C-62.60520536 203.80683534 -62.5954074 200.1523925 -62.58428955 196.4979248 C-62.57399516 192.75708579 -62.56942374 189.01623988 -62.56445312 185.27539062 C-62.55431403 177.95699543 -62.53473309 170.6387117 -62.515625 163.3203125 C-53.275625 162.9903125 -44.035625 162.6603125 -34.515625 162.3203125 C-38.145625 160.3403125 -41.775625 158.3603125 -45.515625 156.3203125 C-55.03518319 148.22868804 -61.24354792 137.8290705 -62.515625 125.3203125 C-63.10838002 115.36921304 -61.06086018 107.66213603 -55.515625 99.3203125 C-53.015625 96.5078125 -53.015625 96.5078125 -50.515625 94.3203125 C-49.7525 93.6396875 -48.989375 92.9590625 -48.203125 92.2578125 C-39.77181127 86.17942353 -31.75775305 84.1922859 -21.515625 84.3203125 C-21.42192375 79.94370209 -21.42850762 75.57273092 -21.453125 71.1953125 C-21.42541016 69.9578125 -21.39769531 68.7203125 -21.36914062 67.4453125 C-21.27629667 60.77133108 -21.27629667 60.77133108 -24.45849609 55.23071289 C-26.74949416 53.72468483 -29.0665101 52.54421935 -31.515625 51.3203125 C-37.0178254 46.80334741 -40.41893362 41.68304558 -43.515625 35.3203125 C-43.94875 34.4953125 -44.381875 33.6703125 -44.828125 32.8203125 C-46.97376763 25.01797566 -45.18313617 18.36011723 -41.515625 11.3203125 C-32.50386593 -3.53480619 -15.62630822 -6.77140023 0 0 Z " fill="#E8E9ED" transform="translate(65.515625,4.6796875)"/>
<path d="M0 0 C0.70970947 -0.00644531 1.41941895 -0.01289063 2.15063477 -0.01953125 C9.68172535 0.16573981 14.7898434 3.47700003 20.16015625 8.4453125 C26.22539202 14.9962653 27.77164134 21.82790302 27.66113281 30.59082031 C27.22016456 39.0986757 23.57692959 45.22697163 18.0625 51.5 C14.99547159 53.91985728 11.83167825 56.15569715 8.64453125 58.4140625 C5.82746858 60.30637224 5.82746858 60.30637224 5.0625 63.5 C4.91360253 65.34466442 4.8145899 67.19357275 4.74609375 69.04296875 C4.68325195 70.65268555 4.68325195 70.65268555 4.61914062 72.29492188 C4.57982422 73.41447266 4.54050781 74.53402344 4.5 75.6875 C4.43522461 77.38422852 4.43522461 77.38422852 4.36914062 79.11523438 C4.26300901 81.91003354 4.16095615 84.70492162 4.0625 87.5 C5.24714844 87.46390625 6.43179688 87.4278125 7.65234375 87.390625 C16.36434298 87.3982957 24.83157721 90.79149213 32.0625 95.5 C32.0625 96.16 32.0625 96.82 32.0625 97.5 C32.701875 97.768125 33.34125 98.03625 34 98.3125 C36.0625 99.5 36.0625 99.5 37.0625 102.5 C37.7225 102.5 38.3825 102.5 39.0625 102.5 C43.26524251 109.50457084 45.45439855 115.31560727 45.4375 123.625 C45.43733887 124.36838623 45.43717773 125.11177246 45.43701172 125.87768555 C45.26834045 134.12038389 42.83151538 141.21663245 39.0625 148.5 C38.4025 148.5 37.7425 148.5 37.0625 148.5 C36.753125 149.11875 36.44375 149.7375 36.125 150.375 C35.4375 151.75 34.75 153.125 34.0625 154.5 C33.4025 154.5 32.7425 154.5 32.0625 154.5 C32.0625 155.16 32.0625 155.82 32.0625 156.5 C30.015625 158.15625 30.015625 158.15625 27.3125 160 C26.43078125 160.6084375 25.5490625 161.216875 24.640625 161.84375 C16.04879202 167.36335179 7.73052153 167.79648122 -2.25683594 167.7746582 C-3.4707753 167.77976913 -4.68471466 167.78488007 -5.93544006 167.79014587 C-9.24306382 167.80161385 -12.55043593 167.80412421 -15.85806179 167.80158257 C-18.62426578 167.80050853 -21.39044694 167.80540667 -24.15664601 167.810188 C-30.68013187 167.82125279 -37.2035601 167.82173606 -43.72705078 167.81567383 C-50.45278028 167.80961997 -57.17830133 167.82198757 -63.90399528 167.8432439 C-69.68847349 167.86085194 -75.47288527 167.86686299 -81.25738931 167.86360615 C-84.70818786 167.86179371 -88.15883729 167.8644265 -91.60961151 167.87832069 C-95.45173881 167.89321524 -99.29359907 167.88393599 -103.13574219 167.87231445 C-104.27763504 167.87995819 -105.41952789 167.88760193 -106.59602356 167.89547729 C-107.64173019 167.88846298 -108.68743683 167.88144867 -109.76483154 167.8742218 C-110.67254681 167.87438954 -111.58026207 167.87455729 -112.51548386 167.87473011 C-115.46514543 167.41836362 -116.84264548 166.61310868 -118.9375 164.5 C-119.1875 160.8125 -119.1875 160.8125 -118.9375 157.5 C-119.54634033 157.51047363 -120.15518066 157.52094727 -120.7824707 157.53173828 C-155.43456638 158.04966763 -155.43456638 158.04966763 -168.24609375 146.28125 C-173.00023236 141.27458209 -174.74538524 136.25531698 -175.9375 129.5 C-176.2675 129.5 -176.5975 129.5 -176.9375 129.5 C-176.99179959 127.75034642 -177.03042823 126.00020213 -177.0625 124.25 C-177.09730469 122.78820312 -177.09730469 122.78820312 -177.1328125 121.296875 C-176.93405416 118.45065557 -176.34655775 116.9348086 -174.9375 114.5 C-174.793125 113.860625 -174.64875 113.22125 -174.5 112.5625 C-173.75021799 109.81329928 -172.58599755 107.82010766 -170.9375 105.5 C-169.61086584 104.82009999 -168.27668916 104.15482411 -166.9375 103.5 C-165.67708562 102.53968428 -164.44683971 101.53847263 -163.25 100.5 C-162.34701172 99.7265625 -162.34701172 99.7265625 -161.42578125 98.9375 C-159.82366884 97.54954056 -159.82366884 97.54954056 -158.9375 95.5 C-152.8737328 93.47039197 -147.12121523 92.87952955 -140.9375 94.5 C-140.87691406 95.48742187 -140.81632812 96.47484375 -140.75390625 97.4921875 C-140.67011719 98.77351563 -140.58632812 100.05484375 -140.5 101.375 C-140.41878906 102.65117188 -140.33757812 103.92734375 -140.25390625 105.2421875 C-140.14543973 108.38300152 -140.14543973 108.38300152 -138.9375 110.5 C-136.13271805 111.41485573 -136.13271805 111.41485573 -132.875 112.125 C-131.77027344 112.38539062 -130.66554687 112.64578125 -129.52734375 112.9140625 C-128.67269531 113.10742188 -127.81804687 113.30078125 -126.9375 113.5 C-126.9375 112.84 -126.9375 112.18 -126.9375 111.5 C-128.2575 111.5 -129.5775 111.5 -130.9375 111.5 C-130.67708333 109.48177083 -130.41666667 107.46354167 -130.15625 105.4453125 C-129.9002515 103.49501656 -129.9002515 103.49501656 -129.9375 101.5 C-129.91429687 100.24960938 -129.89109375 98.99921875 -129.8671875 97.7109375 C-129.74080425 88.20632023 -130.13500803 79.11993207 -131.59765625 69.72265625 C-131.89790272 66.87549148 -131.88918729 65.15540721 -130.9375 62.5 C-130.9375 63.16 -130.9375 63.82 -130.9375 64.5 C-130.02226562 64.53738281 -129.10703125 64.57476562 -128.1640625 64.61328125 C-126.97554687 64.67902344 -125.78703125 64.74476562 -124.5625 64.8125 C-123.37914062 64.87050781 -122.19578125 64.92851563 -120.9765625 64.98828125 C-119.97367188 65.15714844 -118.97078125 65.32601562 -117.9375 65.5 C-116.9475 66.985 -116.9475 66.985 -115.9375 68.5 C-116.5975 68.5 -117.2575 68.5 -117.9375 68.5 C-118.2675 74.44 -118.5975 80.38 -118.9375 86.5 C-85.6075 86.5 -52.2775 86.5 -17.9375 86.5 C-18.2675 80.23 -18.5975 73.96 -18.9375 67.5 C-19.9275 68.49 -20.9175 69.48 -21.9375 70.5 C-28.10420609 73.63062762 -35.69106767 73.60170166 -42.31640625 71.8828125 C-49.5113244 68.70071563 -54.27477437 62.57069002 -57.375 55.5 C-59.59445673 49.20673525 -59.84448449 44.26622217 -57.375 37.9375 C-54.64316111 32.33819902 -50.7581839 28.0087379 -45.25 25.0625 C-42.9375 24.5 -42.9375 24.5 -38.9375 24.5 C-38.628125 23.71625 -38.31875 22.9325 -38 22.125 C-36.9375 19.5 -36.9375 19.5 -35.9375 17.5 C-35.2775 17.5 -34.6175 17.5 -33.9375 17.5 C-33.69644531 16.92121094 -33.45539063 16.34242187 -33.20703125 15.74609375 C-29.06841789 8.42393166 -20.23797848 4.03377866 -12.5859375 1.34375 C-8.33271277 0.36013486 -4.35377846 0.03765837 0 0 Z " fill="#D0D1D5" transform="translate(184.9375,1.5)"/>
<path d="M0 0 C0.70970947 -0.00644531 1.41941895 -0.01289063 2.15063477 -0.01953125 C9.68172535 0.16573981 14.7898434 3.47700003 20.16015625 8.4453125 C26.22539202 14.9962653 27.77164134 21.82790302 27.66113281 30.59082031 C27.22016456 39.0986757 23.57692959 45.22697163 18.0625 51.5 C14.99547159 53.91985728 11.83167825 56.15569715 8.64453125 58.4140625 C5.82746858 60.30637224 5.82746858 60.30637224 5.0625 63.5 C4.91360253 65.34466442 4.8145899 67.19357275 4.74609375 69.04296875 C4.68325195 70.65268555 4.68325195 70.65268555 4.61914062 72.29492188 C4.57982422 73.41447266 4.54050781 74.53402344 4.5 75.6875 C4.43522461 77.38422852 4.43522461 77.38422852 4.36914062 79.11523438 C4.26300901 81.91003354 4.16095615 84.70492162 4.0625 87.5 C5.24714844 87.46390625 6.43179688 87.4278125 7.65234375 87.390625 C16.36434298 87.3982957 24.83157721 90.79149213 32.0625 95.5 C32.0625 96.16 32.0625 96.82 32.0625 97.5 C32.701875 97.768125 33.34125 98.03625 34 98.3125 C36.0625 99.5 36.0625 99.5 37.0625 102.5 C37.7225 102.5 38.3825 102.5 39.0625 102.5 C44.82641651 112.10652752 46.60787195 121.36803865 45.0625 132.5 C43.65743258 136.69020105 41.70274387 139.97384649 39.0625 143.5 C38.50949219 144.24894531 37.95648438 144.99789062 37.38671875 145.76953125 C30.41258094 154.41104913 21.09888164 159.13566495 10.0625 160.5 C1.06996501 160.95947259 -7.9408134 160.75309874 -16.9375 160.5 C-16.9375 159.51 -16.9375 158.52 -16.9375 157.5 C-16.36418945 157.48018066 -15.79087891 157.46036133 -15.20019531 157.43994141 C7.29747099 156.6612317 7.29747099 156.6612317 28.0625 148.5 C26.00737403 149.51683686 23.98771884 150.54305582 22 151.6875 C20.0625 152.5 20.0625 152.5 17.0625 151.5 C17.67738281 151.00371094 18.29226562 150.50742188 18.92578125 149.99609375 C25.44224717 144.51893659 28.46886149 141.17490329 29.5625 132.5625 C29.17321962 122.22887536 24.71871955 109.43446312 18.0625 101.5 C13.7993555 97.90323881 9.34507381 96.18081894 4.0625 94.5 C4.07410156 95.39203125 4.08570313 96.2840625 4.09765625 97.203125 C4.10667969 98.37359375 4.11570313 99.5440625 4.125 100.75 C4.13660156 101.91015625 4.14820313 103.0703125 4.16015625 104.265625 C4.01378816 109.11333622 4.01378816 109.11333622 3.0625 111.5 C-1.28850024 113.57190488 -5.17373816 113.69055047 -9.9375 113.5 C-9.9375 112.84 -9.9375 112.18 -9.9375 111.5 C-8.6175 111.5 -7.2975 111.5 -5.9375 111.5 C-5.95321045 110.37505127 -5.9689209 109.25010254 -5.98510742 108.09106445 C-6.03951216 103.90721835 -6.07388836 99.72340338 -6.10229492 95.53930664 C-6.11735755 93.73033383 -6.13781177 91.9213974 -6.16381836 90.11254883 C-6.2003132 87.50853485 -6.21725157 84.9050048 -6.23046875 82.30078125 C-6.24595261 81.49538406 -6.26143646 80.68998688 -6.27738953 79.86018372 C-6.2788015 75.12180817 -5.70745456 72.49587282 -2.9375 68.5 C-2.9375 67.51 -2.9375 66.52 -2.9375 65.5 C-1.9375 62.5 -1.9375 62.5 -0.9375 61.5 C-2.071875 62.16 -3.20625 62.82 -4.375 63.5 C-7.70575522 65.20974824 -9.96113882 65.67850843 -13.6875 65.4375 C-15.91873653 65.26358521 -15.91873653 65.26358521 -17.9375 65.5 C-20.2466666 67.80302869 -20.2466666 67.80302869 -21.9375 70.5 C-28.07030294 73.65833943 -35.71902852 73.59444745 -42.31640625 71.8828125 C-49.5113244 68.70071563 -54.27477437 62.57069002 -57.375 55.5 C-59.59445673 49.20673525 -59.84448449 44.26622217 -57.375 37.9375 C-54.64316111 32.33819902 -50.7581839 28.0087379 -45.25 25.0625 C-42.9375 24.5 -42.9375 24.5 -38.9375 24.5 C-38.628125 23.71625 -38.31875 22.9325 -38 22.125 C-36.9375 19.5 -36.9375 19.5 -35.9375 17.5 C-35.2775 17.5 -34.6175 17.5 -33.9375 17.5 C-33.57591797 16.63181641 -33.57591797 16.63181641 -33.20703125 15.74609375 C-29.06841789 8.42393166 -20.23797848 4.03377866 -12.5859375 1.34375 C-8.33271277 0.36013486 -4.35377846 0.03765837 0 0 Z " fill="#E9E9ED" transform="translate(184.9375,1.5)"/>
<path d="M0 0 C9.35976649 4.97421552 16.59663067 11.488696 22.484375 20.3203125 C24.37571796 21.22917641 26.29740595 22.07574206 28.234375 22.8828125 C34.81626991 26.01968198 37.51833174 29.80205142 40.484375 36.3203125 C40.814375 36.9803125 41.144375 37.6403125 41.484375 38.3203125 C42.7572625 46.3915764 40.84736177 51.8549331 36.48828125 58.64453125 C32.61833898 63.81199802 28.67762091 67.31582217 22.484375 69.3203125 C15.83229019 69.96137699 9.09692713 70.41595865 3.484375 66.3203125 C2.824375 65.3303125 2.164375 64.3403125 1.484375 63.3203125 C-1.62373787 62.51490043 -1.62373787 62.51490043 -5.140625 62.1328125 C-6.92339844 61.89498047 -6.92339844 61.89498047 -8.7421875 61.65234375 C-9.65742187 61.54277344 -10.57265625 61.43320313 -11.515625 61.3203125 C-11.37423019 63.57059579 -11.22734497 65.82053456 -11.078125 68.0703125 C-10.99691406 69.32328125 -10.91570313 70.57625 -10.83203125 71.8671875 C-10.637381 75.09511342 -10.637381 75.09511342 -9.98828125 77.25195312 C-9.45817862 79.57169976 -9.49244526 81.49469017 -9.63671875 83.8671875 C-9.68505859 84.71152344 -9.73339844 85.55585937 -9.78320312 86.42578125 C-9.83927734 87.29847656 -9.89535156 88.17117187 -9.953125 89.0703125 C-10.03143555 90.40255859 -10.03143555 90.40255859 -10.11132812 91.76171875 C-10.24064233 93.94830446 -10.37559142 96.13439144 -10.515625 98.3203125 C-9.525625 98.8153125 -9.525625 98.8153125 -8.515625 99.3203125 C-9.505625 102.2903125 -10.495625 105.2603125 -11.515625 108.3203125 C-10.195625 108.3203125 -8.875625 108.3203125 -7.515625 108.3203125 C-7.515625 108.9803125 -7.515625 109.6403125 -7.515625 110.3203125 C-12.75053229 110.7033545 -15.92914557 109.6585177 -20.515625 107.3203125 C-22.01719374 104.31717502 -21.60843704 101.52963728 -21.578125 98.1953125 C-21.56910156 96.91398437 -21.56007812 95.63265625 -21.55078125 94.3125 C-21.53917969 93.32507813 -21.52757812 92.33765625 -21.515625 91.3203125 C-23.495625 91.8153125 -23.495625 91.8153125 -25.515625 92.3203125 C-25.515625 91.6603125 -25.515625 91.0003125 -25.515625 90.3203125 C-26.78019531 90.66255859 -26.78019531 90.66255859 -28.0703125 91.01171875 C-29.16601562 91.29917969 -30.26171875 91.58664063 -31.390625 91.8828125 C-33.02644531 92.31787109 -33.02644531 92.31787109 -34.6953125 92.76171875 C-37.515625 93.3203125 -37.515625 93.3203125 -39.515625 92.3203125 C-39.845625 93.3103125 -40.175625 94.3003125 -40.515625 95.3203125 C-42.22265625 97.07421875 -42.22265625 97.07421875 -44.328125 98.8828125 C-45.35873047 99.78193359 -45.35873047 99.78193359 -46.41015625 100.69921875 C-48.38118345 102.21679999 -50.25526761 103.29934208 -52.515625 104.3203125 C-52.515625 105.3103125 -52.515625 106.3003125 -52.515625 107.3203125 C-53.505625 107.8153125 -53.505625 107.8153125 -54.515625 108.3203125 C-54.98085563 110.21564592 -54.98085563 110.21564592 -55.140625 112.3828125 C-55.264375 113.6821875 -55.388125 114.9815625 -55.515625 116.3203125 C-55.845625 116.3203125 -56.175625 116.3203125 -56.515625 116.3203125 C-56.57009547 117.73654466 -56.60863008 119.15339441 -56.640625 120.5703125 C-56.67542969 121.75367187 -56.67542969 121.75367187 -56.7109375 122.9609375 C-56.49636082 125.55302379 -55.68104205 127.02618445 -54.515625 129.3203125 C-54.515625 130.6403125 -54.515625 131.9603125 -54.515625 133.3203125 C-53.855625 133.9803125 -53.195625 134.6403125 -52.515625 135.3203125 C-52.2475 135.8978125 -51.979375 136.4753125 -51.703125 137.0703125 C-47.51978935 144.99663267 -41.21869248 148.67011338 -32.953125 151.5703125 C-25.35810455 153.22740787 -17.76062366 153.57280927 -10.015625 153.8828125 C-9.00242188 153.92599609 -7.98921875 153.96917969 -6.9453125 154.01367188 C-4.4688571 154.11880442 -1.99231751 154.22095087 0.484375 154.3203125 C0.62875 155.4340625 0.773125 156.5478125 0.921875 157.6953125 C1.26809535 161.14173297 1.26809535 161.14173297 2.484375 163.3203125 C-2.26194122 163.49567376 -7.00630285 163.62143768 -11.75512695 163.70483398 C-13.36418566 163.73965654 -14.97302939 163.78713542 -16.58129883 163.84838867 C-29.90720382 164.34255592 -39.07358877 162.2725589 -49.390625 153.0703125 C-58.4821486 143.0265595 -62.89301201 132.10513485 -62.6640625 118.57421875 C-62.10725421 110.11952446 -58.62358737 102.81677016 -53.015625 96.5078125 C-51.778125 95.425 -51.778125 95.425 -50.515625 94.3203125 C-49.7525 93.6396875 -48.989375 92.9590625 -48.203125 92.2578125 C-39.77181127 86.17942353 -31.75775305 84.1922859 -21.515625 84.3203125 C-21.42192375 79.94370209 -21.42850762 75.57273092 -21.453125 71.1953125 C-21.42541016 69.9578125 -21.39769531 68.7203125 -21.36914062 67.4453125 C-21.27629667 60.77133108 -21.27629667 60.77133108 -24.45849609 55.23071289 C-26.74949416 53.72468483 -29.0665101 52.54421935 -31.515625 51.3203125 C-37.0178254 46.80334741 -40.41893362 41.68304558 -43.515625 35.3203125 C-43.94875 34.4953125 -44.381875 33.6703125 -44.828125 32.8203125 C-46.97376763 25.01797566 -45.18313617 18.36011723 -41.515625 11.3203125 C-32.50386593 -3.53480619 -15.62630822 -6.77140023 0 0 Z " fill="#EAEAEE" transform="translate(65.515625,4.6796875)"/>
<path d="M0 0 C0.99 0.33 1.98 0.66 3 1 C2.28972656 1.54269531 1.57945312 2.08539063 0.84765625 2.64453125 C-0.07144531 3.35996094 -0.99054688 4.07539062 -1.9375 4.8125 C-2.85402344 5.52019531 -3.77054688 6.22789063 -4.71484375 6.95703125 C-7.44332225 9.39633767 -7.91441657 10.93972206 -8.20532227 14.54370117 C-8.24197998 15.53345947 -8.2786377 16.52321777 -8.31640625 17.54296875 C-8.35830078 18.61611328 -8.40019531 19.68925781 -8.44335938 20.79492188 C-8.48267578 21.91447266 -8.52199219 23.03402344 -8.5625 24.1875 C-8.60568359 25.31865234 -8.64886719 26.44980469 -8.69335938 27.61523438 C-8.79949099 30.41003354 -8.90154385 33.20492162 -9 36 C-7.81535156 35.96390625 -6.63070312 35.9278125 -5.41015625 35.890625 C3.30184298 35.8982957 11.76907721 39.29149213 19 44 C19 44.66 19 45.32 19 46 C19.639375 46.268125 20.27875 46.53625 20.9375 46.8125 C23 48 23 48 24 51 C24.66 51 25.32 51 26 51 C31.76391651 60.60652752 33.54537195 69.86803865 32 81 C30.59493258 85.19020105 28.64024387 88.47384649 26 92 C25.44699219 92.74894531 24.89398438 93.49789062 24.32421875 94.26953125 C17.35008094 102.91104913 8.03638164 107.63566495 -3 109 C-11.99253499 109.45947259 -21.0033134 109.25309874 -30 109 C-30 108.01 -30 107.02 -30 106 C-29.42668945 105.98018066 -28.85337891 105.96036133 -28.26269531 105.93994141 C-5.76502901 105.1612317 -5.76502901 105.1612317 15 97 C12.94487403 98.01683686 10.92521884 99.04305582 8.9375 100.1875 C7 101 7 101 4 100 C4.92232422 99.25556641 4.92232422 99.25556641 5.86328125 98.49609375 C12.37974717 93.01893659 15.40636149 89.67490329 16.5 81.0625 C16.11071962 70.72887536 11.65621955 57.93446312 5 50 C0.7368555 46.40323881 -3.71742619 44.68081894 -9 43 C-8.98839844 43.89203125 -8.97679687 44.7840625 -8.96484375 45.703125 C-8.95582031 46.87359375 -8.94679687 48.0440625 -8.9375 49.25 C-8.92589844 50.41015625 -8.91429687 51.5703125 -8.90234375 52.765625 C-9.04871184 57.61333622 -9.04871184 57.61333622 -10 60 C-14.35100024 62.07190488 -18.23623816 62.19055047 -23 62 C-23 61.34 -23 60.68 -23 60 C-21.68 60 -20.36 60 -19 60 C-19.01571045 58.87505127 -19.0314209 57.75010254 -19.04760742 56.59106445 C-19.10201216 52.40721835 -19.13638836 48.22340338 -19.16479492 44.03930664 C-19.17985755 42.23033383 -19.20031177 40.4213974 -19.22631836 38.61254883 C-19.2628132 36.00853485 -19.27975157 33.4050048 -19.29296875 30.80078125 C-19.30845261 29.99538406 -19.32393646 29.18998688 -19.33988953 28.36018372 C-19.3413015 23.62180817 -18.76995456 20.99587282 -16 17 C-16 16.01 -16 15.02 -16 14 C-15.67 13.01 -15.34 12.02 -15 11 C-13.02 10.67 -11.04 10.34 -9 10 C-9 9.01 -9 8.02 -9 7 C-3.74285714 3 -3.74285714 3 -1 3 C-0.67 2.01 -0.34 1.02 0 0 Z " fill="#E6E7EC" transform="translate(198,53)"/>
<path d="M0 0 C0.96555925 2.89667774 1.09561506 4.56672261 1.02172852 7.56323242 C1.00163223 8.48396042 0.98153595 9.40468842 0.96083069 10.35331726 C0.92027809 11.83938225 0.92027809 11.83938225 0.87890625 13.35546875 C0.84348976 14.88062859 0.84348976 14.88062859 0.80735779 16.43659973 C0.73072902 19.68704212 0.64670099 22.9372458 0.5625 26.1875 C0.50927855 28.38996224 0.45653815 30.59243617 0.40429688 32.79492188 C0.27511492 38.19676257 0.13985601 43.59842569 0 49 C-0.33 49 -0.66 49 -1 49 C-1 44.38 -1 39.76 -1 35 C-2.98 35.495 -2.98 35.495 -5 36 C-5 35.34 -5 34.68 -5 34 C-6.26457031 34.34224609 -6.26457031 34.34224609 -7.5546875 34.69140625 C-8.65039062 34.97886719 -9.74609375 35.26632813 -10.875 35.5625 C-12.51082031 35.99755859 -12.51082031 35.99755859 -14.1796875 36.44140625 C-17 37 -17 37 -19 36 C-19.33 36.99 -19.66 37.98 -20 39 C-21.70703125 40.75390625 -21.70703125 40.75390625 -23.8125 42.5625 C-24.49957031 43.16191406 -25.18664062 43.76132813 -25.89453125 44.37890625 C-27.86555845 45.89648749 -29.73964261 46.97902958 -32 48 C-32 48.99 -32 49.98 -32 51 C-32.99 51.495 -32.99 51.495 -34 52 C-34.46523063 53.89533342 -34.46523063 53.89533342 -34.625 56.0625 C-34.74875 57.361875 -34.8725 58.66125 -35 60 C-35.33 60 -35.66 60 -36 60 C-36.05447047 61.41623216 -36.09300508 62.83308191 -36.125 64.25 C-36.15980469 65.43335937 -36.15980469 65.43335937 -36.1953125 66.640625 C-35.98073582 69.23271129 -35.16541705 70.70587195 -34 73 C-34 74.32 -34 75.64 -34 77 C-33.34 77.66 -32.68 78.32 -32 79 C-31.731875 79.5775 -31.46375 80.155 -31.1875 80.75 C-27.00416435 88.67632017 -20.70306748 92.34980088 -12.4375 95.25 C-4.84247955 96.90709537 2.75500134 97.25249677 10.5 97.5625 C11.51320312 97.60568359 12.52640625 97.64886719 13.5703125 97.69335938 C16.0467679 97.79849192 18.52330749 97.90063837 21 98 C21.144375 99.11375 21.28875 100.2275 21.4375 101.375 C21.78372035 104.82142047 21.78372035 104.82142047 23 107 C18.25368378 107.17536126 13.50932215 107.30112518 8.76049805 107.38452148 C7.15143934 107.41934404 5.54259561 107.46682292 3.93432617 107.52807617 C-9.39157882 108.02224342 -18.55796377 105.9522464 -28.875 96.75 C-37.9665236 86.706247 -42.37738701 75.78482235 -42.1484375 62.25390625 C-41.59162921 53.79921196 -38.10796237 46.49645766 -32.5 40.1875 C-31.675 39.465625 -30.85 38.74375 -30 38 C-28.8553125 36.9790625 -28.8553125 36.9790625 -27.6875 35.9375 C-19.25618627 29.85911103 -11.24212805 27.8719734 -1 28 C-1.00523682 27.18732666 -1.01047363 26.37465332 -1.01586914 25.53735352 C-1.03656994 21.87907678 -1.04963803 18.22081233 -1.0625 14.5625 C-1.07087891 13.28310547 -1.07925781 12.00371094 -1.08789062 10.68554688 C-1.09111328 9.47060547 -1.09433594 8.25566406 -1.09765625 7.00390625 C-1.10289307 5.87799072 -1.10812988 4.7520752 -1.11352539 3.59204102 C-1 1 -1 1 0 0 Z " fill="#E3E4E8" transform="translate(45,61)"/>
<path d="M0 0 C19.14 0 38.28 0 58 0 C58 1.65 58 3.3 58 5 C64.6 5 71.2 5 78 5 C78.33 4.34 78.66 3.68 79 3 C79 4.98 79 6.96 79 9 C75.03528438 11.70222739 70.67396202 11.28808688 66.07226562 11.2746582 C65.17102463 11.27976913 64.26978363 11.28488007 63.3412323 11.29014587 C60.36283728 11.30404356 57.38467358 11.30308516 54.40625 11.30078125 C52.33646559 11.30466767 50.26668199 11.30900223 48.19689941 11.31376648 C43.85926731 11.32122877 39.52171661 11.32093703 35.18408203 11.31567383 C29.62204541 11.30987485 24.06034131 11.32682061 18.49835968 11.3500185 C14.2244471 11.36473941 9.95061495 11.36562985 5.67668152 11.36250877 C3.62574097 11.36302267 1.574796 11.36827316 -0.47612 11.37832069 C-3.34172286 11.39063781 -6.20667344 11.38392213 -9.07226562 11.37231445 C-10.34569572 11.38378006 -10.34569572 11.38378006 -11.64485168 11.39547729 C-15.12804611 11.36424341 -17.41724386 11.30349725 -20.5423584 9.6759491 C-22 8 -22 8 -22.25 4.8125 C-22.1675 3.884375 -22.085 2.95625 -22 2 C-21.67 2.99 -21.34 3.98 -21 5 C-14.07 5 -7.14 5 0 5 C0 3.35 0 1.7 0 0 Z " fill="#B5B6B9" transform="translate(88,158)"/>
<path d="M0 0 C0.66 0 1.32 0 2 0 C2.01030746 0.80686752 2.02061493 1.61373505 2.03123474 2.4450531 C2.1295511 10.07999509 2.23211128 17.7148631 2.33933926 25.34968472 C2.39430807 29.27403101 2.44768371 33.19838501 2.49731445 37.12280273 C2.54534554 40.91595915 2.59769731 44.70903438 2.65294075 48.50209236 C2.67319033 49.94320697 2.69192993 51.38434368 2.70907402 52.82549858 C2.79864508 60.27237557 2.99834627 67.6105759 4 75 C4.66 75 5.32 75 6 75 C6.268125 76.051875 6.53625 77.10375 6.8125 78.1875 C7.87351957 81.59393126 9.16226477 83.99279689 11 87 C11 87.99 11 88.98 11 90 C11.66 90 12.32 90 13 90 C15.125 91.875 15.125 91.875 17 94 C17 94.66 17 95.32 17 96 C17.99 96 18.98 96 20 96 C20 96.99 20 97.98 20 99 C20.763125 99.103125 21.52625 99.20625 22.3125 99.3125 C25.33910105 100.08674678 25.85835426 100.85835426 28 103 C34.37018443 106.60053903 40.81864721 106.68996659 48 107 C50.77071799 107.12318903 53.54141218 107.24672936 56.31201172 107.37255859 C58.21313043 107.45681602 60.11451162 107.53536502 62.01611328 107.60791016 C62.89122559 107.6444873 63.76633789 107.68106445 64.66796875 107.71875 C65.45453857 107.74904297 66.2411084 107.77933594 67.05151367 107.81054688 C69 108 69 108 71 109 C73.92029023 109.10915909 76.81708625 109.15733884 79.73803711 109.16113281 C80.64415237 109.16609772 81.55026764 109.17106262 82.48384094 109.17617798 C85.49834955 109.19084193 88.51280524 109.19761462 91.52734375 109.203125 C93.63131206 109.20888046 95.73528036 109.21463814 97.83924866 109.22039795 C102.2671025 109.23092501 106.69493813 109.23675405 111.12280273 109.24023438 C116.7461738 109.24567118 122.36929681 109.2695872 127.9925909 109.29820633 C132.35031277 109.31702359 136.70797774 109.32204871 141.06573677 109.32357025 C143.13498834 109.32656314 145.20423974 109.33447504 147.27345085 109.34775543 C159.30502996 109.41935365 170.70624502 108.75343822 182.5471344 106.54705811 C184.25630287 106.27626434 184.25630287 106.27626434 186 106 C186.33 106.33 186.66 106.66 187 107 C187.59167969 106.7834375 188.18335938 106.566875 188.79296875 106.34375 C196.64147627 103.57820738 196.64147627 103.57820738 201 104 C201 104.66 201 105.32 201 106 C199.21386441 106.80406791 197.42068751 107.59249637 195.625 108.375 C194.62726563 108.81585938 193.62953125 109.25671875 192.6015625 109.7109375 C183.82296316 112.85295245 175.30693577 113.2942925 166.0456543 113.2746582 C164.78735809 113.27976913 163.52906189 113.28488007 162.2326355 113.29014587 C158.80888017 113.30343351 155.38523592 113.30412597 151.96145988 113.30158257 C149.08913517 113.30050564 146.21683227 113.30541467 143.34451228 113.310188 C136.55981745 113.32124828 129.77517799 113.32174058 122.99047852 113.31567383 C116.024041 113.30963969 109.05780574 113.32193875 102.09140271 113.3432439 C96.08084359 113.36094034 90.07034837 113.36684857 84.05976421 113.36360615 C80.48295475 113.36180556 76.90628953 113.36430535 73.32950401 113.37832069 C69.33371521 113.3933946 65.33832994 113.38385914 61.3425293 113.37231445 C60.18003159 113.37995819 59.01753387 113.38760193 57.81980896 113.39547729 C41.00403348 113.2887992 27.25498559 108.49383837 14.86328125 97.05078125 C13 95 13 95 12 92 C11.34 92 10.68 92 10 92 C8.86722732 89.81623234 7.74377211 87.62842872 6.625 85.4375 C6.30789062 84.82841797 5.99078125 84.21933594 5.6640625 83.59179688 C-0.20960926 72.0280056 -0.14768952 60.2549863 -0.09765625 47.55859375 C-0.09578728 46.1814021 -0.09436564 44.80420977 -0.09336853 43.42701721 C-0.08958103 39.83171702 -0.07978368 36.23645831 -0.06866455 32.64117432 C-0.05836869 28.96065837 -0.05385353 25.28013562 -0.04882812 21.59960938 C-0.03815739 14.39972083 -0.02112718 7.19986627 0 0 Z " fill="#D0D1D5" transform="translate(3,169)"/>
<path d="M0 0 C0.66 0 1.32 0 2 0 C2 13.53 2 27.06 2 41 C1.01 41.495 1.01 41.495 0 42 C0 37.05 0 32.1 0 27 C-33.99 27 -67.98 27 -103 27 C-103 32.94 -103 38.88 -103 45 C-103.99 44.67 -104.98 44.34 -106 44 C-105.67 30.14 -105.34 16.28 -105 2 C-104.34 1.67 -103.68 1.34 -103 1 C-102.67 7.27 -102.34 13.54 -102 20 C-68.67 20 -35.34 20 -1 20 C-1 14.39 -1 8.78 -1 3 C-0.67 2.01 -0.34 1.02 0 0 Z " fill="#E7E8EC" transform="translate(168,68)"/>
<path d="M0 0 C1.21386936 3.64160808 0.6674695 4.33165469 -0.9375 7.6875 C-1.50791016 8.89986328 -1.50791016 8.89986328 -2.08984375 10.13671875 C-2.54037109 11.05904297 -2.54037109 11.05904297 -3 12 C-3.66 12 -4.32 12 -5 12 C-5.309375 12.61875 -5.61875 13.2375 -5.9375 13.875 C-6.625 15.25 -7.3125 16.625 -8 18 C-8.66 18 -9.32 18 -10 18 C-10 18.66 -10 19.32 -10 20 C-12.046875 21.65625 -12.046875 21.65625 -14.75 23.5 C-16.07257813 24.41265625 -16.07257813 24.41265625 -17.421875 25.34375 C-24.50862067 29.89644722 -31.40061331 31.26289828 -39.78125 31.1953125 C-40.48020386 31.1924826 -41.17915771 31.18965271 -41.89929199 31.18673706 C-44.09971316 31.1756727 -46.29970493 31.15059606 -48.5 31.125 C-50.00520239 31.11495235 -51.51041126 31.10582965 -53.015625 31.09765625 C-56.67721938 31.07577893 -60.33856768 31.04134696 -64 31 C-62.68 30.34 -61.36 29.68 -60 29 C-60.495 27.02 -60.495 27.02 -61 25 C-67.6 25 -74.2 25 -81 25 C-81 23.35 -81 21.7 -81 20 C-100.14 20 -119.28 20 -139 20 C-139 21.65 -139 23.3 -139 25 C-145.93 25 -152.86 25 -160 25 C-160.33 23.35 -160.66 21.7 -161 20 C-159.07183268 18.07183268 -156.18132181 18.87317419 -153.61512756 18.86447144 C-152.69614182 18.86649567 -151.77715607 18.8685199 -150.83032227 18.87060547 C-149.38651688 18.86797699 -149.38651688 18.86797699 -147.9135437 18.86529541 C-144.71447983 18.86087464 -141.51547073 18.86381591 -138.31640625 18.8671875 C-136.10302215 18.86651447 -133.88963812 18.86554445 -131.67625427 18.86428833 C-127.02984923 18.86281101 -122.38346337 18.86496681 -117.73706055 18.86962891 C-111.77017214 18.87532289 -105.80332874 18.87204949 -99.83644199 18.86605644 C-95.26323607 18.86244893 -90.69004088 18.86359035 -86.11683464 18.86618423 C-83.91632011 18.86685315 -81.71580462 18.86602632 -79.51529121 18.86370468 C-76.44319186 18.86117542 -73.37116612 18.86502282 -70.29907227 18.87060547 C-68.92362999 18.86756912 -68.92362999 18.86756912 -67.520401 18.86447144 C-61.22852599 18.88573701 -61.22852599 18.88573701 -59 20 C-59 21.32 -59 22.64 -59 24 C-32.22638802 24.48233279 -32.22638802 24.48233279 -8.8359375 12.97265625 C-5.21960977 9.08702752 -2.37011121 4.74022242 0 0 Z " fill="#C5C6CA" transform="translate(227,138)"/>
<path d="M0 0 C33 0 66 0 100 0 C98 4 98 4 96 5 C93.12264507 5.10903182 90.26912554 5.15733352 87.39111328 5.16113281 C86.49991791 5.16609772 85.60872253 5.17106262 84.69052124 5.17617798 C81.73377722 5.19081784 78.77708685 5.1976045 75.8203125 5.203125 C73.77009072 5.20887478 71.71986896 5.21463253 69.66964722 5.22039795 C65.3671646 5.23091302 61.0647007 5.23675243 56.76220703 5.24023438 C51.24497426 5.24572133 45.727988 5.26975159 40.2108326 5.29820633 C35.97467319 5.31681541 31.73857339 5.32203738 27.50237656 5.32357025 C25.46817552 5.32660103 23.43397564 5.3346438 21.39981461 5.34775543 C18.55557665 5.36478035 15.71194379 5.36294441 12.86767578 5.35644531 C12.02493103 5.3656601 11.18218628 5.37487488 10.31390381 5.3843689 C6.9224999 5.36005193 4.45313098 5.2478829 1.44577026 3.60272217 C0 2 0 2 0 0 Z " fill="#F0F1F5" transform="translate(67,169)"/>
<path d="M0 0 C-0.11840302 6.17485057 -0.24266228 12.34954529 -0.37231445 18.52416992 C-0.41558635 20.62407235 -0.45726683 22.72400821 -0.49731445 24.82397461 C-0.55520477 27.84499173 -0.6188451 30.86584179 -0.68359375 33.88671875 C-0.70866249 35.29167854 -0.70866249 35.29167854 -0.73423767 36.72502136 C-0.93559142 45.61432446 -0.93559142 45.61432446 -2 49 C-5.85396294 51.38038888 -9.5702869 51.17371424 -14 51 C-14 50.34 -14 49.68 -14 49 C-12.68 49 -11.36 49 -10 49 C-10.01571045 47.87505127 -10.0314209 46.75010254 -10.04760742 45.59106445 C-10.10201216 41.40721835 -10.13638836 37.22340338 -10.16479492 33.03930664 C-10.17985755 31.23033383 -10.20031177 29.4213974 -10.22631836 27.61254883 C-10.2628132 25.00853485 -10.27975157 22.4050048 -10.29296875 19.80078125 C-10.30845261 18.99538406 -10.32393646 18.18998688 -10.33988953 17.36018372 C-10.3413015 12.62180817 -9.76995456 9.99587282 -7 6 C-7 5.01 -7 4.02 -7 3 C-6.67 2.01 -6.34 1.02 -6 0 C-3.50907189 -1.24546405 -2.58919267 -0.7767578 0 0 Z " fill="#F5F6F9" transform="translate(189,64)"/>
<path d="M0 0 C0.33 0 0.66 0 1 0 C2.16519791 9.39556409 -0.37872012 15.4940025 -6 23 C-10.3252407 27.72758867 -14.66154379 30.72213584 -21.19140625 31.265625 C-22.86009766 31.25789063 -22.86009766 31.25789063 -24.5625 31.25 C-26.23505859 31.25773437 -26.23505859 31.25773437 -27.94140625 31.265625 C-30.86555372 31.01167605 -32.53085968 30.52132851 -35 29 C-34.01 28.67 -33.02 28.34 -32 28 C-31.34 28.33 -30.68 28.66 -30 29 C-28.12620395 29.07033769 -26.24998898 29.0843022 -24.375 29.0625 C-23.37210938 29.05347656 -22.36921875 29.04445313 -21.3359375 29.03515625 C-20.56507812 29.02355469 -19.79421875 29.01195313 -19 29 C-18.67 28.01 -18.34 27.02 -18 26 C-18.33 25.67 -18.66 25.34 -19 25 C-19.86745368 18.50120766 -18.6642046 13.41665028 -15 8 C-14.48050781 7.49210937 -13.96101563 6.98421875 -13.42578125 6.4609375 C-11.73947764 4.94558017 -11.73947764 4.94558017 -11 2 C-4.25 0.875 -4.25 0.875 -2 2 C-2 3.32 -2 4.64 -2 6 C-1.34 6 -0.68 6 0 6 C0 4.02 0 2.04 0 0 Z " fill="#DDDCE0" transform="translate(106,43)"/>
<path d="M0 0 C1.890625 0.58203125 1.890625 0.58203125 4 2 C9.40804525 16.5896146 7.28293653 34.69095729 7 50 C8.65 50 10.3 50 12 50 C12 50.66 12 51.32 12 52 C6.73066908 52.3855608 3.68949602 51.12449225 -1 49 C-1.0252689 42.18238106 -1.04283244 35.36477411 -1.05493164 28.54711914 C-1.05997333 26.22582549 -1.06680651 23.90453503 -1.07543945 21.58325195 C-1.08751225 18.25471205 -1.09322979 14.92621398 -1.09765625 11.59765625 C-1.10281754 10.55287613 -1.10797882 9.50809601 -1.11329651 8.43165588 C-1.11337204 7.47073532 -1.11344757 6.50981476 -1.11352539 5.51977539 C-1.115746 4.66928116 -1.11796661 3.81878693 -1.12025452 2.94252014 C-1 1 -1 1 0 0 Z " fill="#F5F6F9" transform="translate(46,63)"/>
<path d="M0 0 C0.4125 0.556875 0.825 1.11375 1.25 1.6875 C2.52030395 3.36611594 3.83985123 5.00782147 5.1875 6.625 C7 9 7 9 7 11 C7.56460937 11.26941406 8.12921875 11.53882813 8.7109375 11.81640625 C11.93635006 13.4841537 14.9329569 15.48801686 17.9765625 17.46484375 C27.1015618 22.09807983 36.01532271 22.51198477 46.125 22.6875 C47.47659385 22.72075453 48.82815773 22.75525136 50.1796875 22.79101562 C53.45304112 22.87284947 56.72614854 22.94221113 60 23 C60.66 24.98 61.32 26.96 62 29 C57.25368378 29.17536126 52.50932215 29.30112518 47.76049805 29.38452148 C46.15143934 29.41934404 44.54259561 29.46682292 42.93432617 29.52807617 C29.60825718 30.0222495 20.44227781 27.95213883 10.125 18.75 C5.38619121 13.51236923 0 7.21191852 0 0 Z " fill="#C6C7CB" transform="translate(6,139)"/>
<path d="M0 0 C0.33 0.66 0.66 1.32 1 2 C-0.78613559 2.80406791 -2.57931249 3.59249637 -4.375 4.375 C-5.87160156 5.03628906 -5.87160156 5.03628906 -7.3984375 5.7109375 C-16.2270832 8.87086492 -24.7675731 9.28723186 -34.08129883 9.24291992 C-35.98801865 9.24576744 -35.98801865 9.24576744 -37.93325806 9.24867249 C-41.38955189 9.25347958 -44.84571466 9.24591905 -48.30199265 9.23571944 C-51.93111897 9.22687718 -55.56024193 9.22869753 -59.18937683 9.2290802 C-65.27593149 9.22814676 -71.36243597 9.21950331 -77.44897461 9.20581055 C-84.47912535 9.19005312 -91.50922135 9.18481385 -98.53938848 9.1855461 C-106.04231327 9.18622194 -113.54521707 9.17928293 -121.04813552 9.1700995 C-123.20420331 9.16797154 -125.3602677 9.1672588 -127.51633644 9.16686058 C-131.5328084 9.16566776 -135.54921592 9.15594958 -139.56567383 9.14526367 C-141.35256371 9.14594345 -141.35256371 9.14594345 -143.17555237 9.14663696 C-144.27022827 9.14237198 -145.36490417 9.13810699 -146.49275208 9.13371277 C-147.44119397 9.13203692 -148.38963587 9.13036108 -149.36681843 9.12863445 C-152.00326192 8.99984065 -154.42978024 8.58615465 -157 8 C-157 7.67 -157 7.34 -157 7 C-156.3429199 6.99576806 -155.68583981 6.99153612 -155.00884819 6.98717594 C-138.96442208 6.88352867 -122.92003901 6.77484264 -106.87568474 6.66066074 C-99.11651898 6.605561 -91.35734863 6.55211935 -83.59814453 6.50268555 C-76.82924456 6.45955664 -70.06037527 6.41321028 -63.2915231 6.36312145 C-59.7129226 6.33674932 -56.13432727 6.31190603 -52.55569077 6.29092598 C-48.54473138 6.26735076 -44.53385606 6.23658691 -40.52294922 6.20532227 C-38.775056 6.19668907 -38.775056 6.19668907 -36.99185181 6.18788147 C-26.63513262 6.09680126 -16.23139838 5.70523306 -6 4 C-6 3.34 -6 2.68 -6 2 C-4.02 1.34 -2.04 0.68 0 0 Z " fill="#ADAEB2" transform="translate(203,273)"/>
<path d="M0 0 C19.14 0 38.28 0 58 0 C58 1.65 58 3.3 58 5 C64.6 5 71.2 5 78 5 C78.33 4.34 78.66 3.68 79 3 C79 4.98 79 6.96 79 9 C76.59940183 10.20029908 75.10639351 10.11459743 72.4296875 10.09765625 C71.53378906 10.09443359 70.63789063 10.09121094 69.71484375 10.08789062 C68.77769531 10.07951172 67.84054688 10.07113281 66.875 10.0625 C65.93011719 10.05798828 64.98523438 10.05347656 64.01171875 10.04882812 C61.6744523 10.03702375 59.33721831 10.01908799 57 10 C56.505 5.545 56.505 5.545 56 1 C37.85 1 19.7 1 1 1 C1 3.97 1 6.94 1 10 C-2.45826342 10.05789006 -5.91640293 10.09355821 -9.375 10.125 C-10.35984375 10.14175781 -11.3446875 10.15851563 -12.359375 10.17578125 C-13.30039063 10.18222656 -14.24140625 10.18867188 -15.2109375 10.1953125 C-16.51490479 10.21102295 -16.51490479 10.21102295 -17.84521484 10.22705078 C-20 10 -20 10 -22 8 C-22.125 4.875 -22.125 4.875 -22 2 C-21.67 2.99 -21.34 3.98 -21 5 C-14.07 5 -7.14 5 0 5 C0 3.35 0 1.7 0 0 Z " fill="#7C7D80" transform="translate(88,158)"/>
<path d="M0 0 C-0.99 0.33 -1.98 0.66 -3 1 C-3 1.66 -3 2.32 -3 3 C-13.83189264 6.86853309 -26.10582441 6.15039644 -37.47192383 6.25292969 C-39.36988205 6.2750074 -39.36988205 6.2750074 -41.30618286 6.29753113 C-44.72936631 6.33685396 -48.15257973 6.37048813 -51.57584214 6.40211773 C-53.72179452 6.42201186 -55.86773625 6.44282721 -58.0136776 6.46387482 C-64.75028452 6.52953942 -71.48691139 6.59140418 -78.22360021 6.64805388 C-85.96170152 6.71320276 -93.69952777 6.79144335 -101.43738729 6.88073611 C-107.45126824 6.94931521 -113.46519 7.00603321 -119.47927111 7.05390286 C-123.05820454 7.08265988 -126.63692306 7.11634527 -130.21567726 7.16255951 C-134.20211414 7.21367537 -138.18835923 7.24018914 -142.17504883 7.26464844 C-143.34564346 7.28321396 -144.5162381 7.30177948 -145.7223053 7.32090759 C-152.15821885 7.33763848 -158.18405332 7.03215236 -164 4 C-164.33 3.34 -164.66 2.68 -165 2 C-164.27705026 2.14118854 -163.55410051 2.28237707 -162.8092432 2.42784405 C-155.35355137 3.79020336 -148.21684319 4.29206594 -140.64819336 4.2746582 C-138.89181046 4.2823246 -138.89181046 4.2823246 -137.09994507 4.29014587 C-133.2631913 4.30394336 -129.42661925 4.3030919 -125.58984375 4.30078125 C-123.57743408 4.30309748 -121.56502872 4.30660193 -119.55262095 4.310188 C-113.23078187 4.32123502 -106.90900223 4.32174932 -100.5871582 4.31567383 C-94.11952867 4.30965247 -87.6521177 4.32190918 -81.18452543 4.3432439 C-75.58656675 4.36101395 -69.98867662 4.3668369 -64.39069086 4.36360615 C-61.06742836 4.36181574 -57.7444438 4.36556634 -54.42118645 4.37832069 C-40.78399197 4.42422517 -27.67282411 4.14547331 -14.25758362 1.54582214 C-13.18258102 1.36570084 -12.10757843 1.18557953 -11 1 C-10.67 1.33 -10.34 1.66 -10 2 C-8.906875 1.484375 -7.81375 0.96875 -6.6875 0.4375 C-3 -1 -3 -1 0 0 Z " fill="#C5C6CA" transform="translate(200,274)"/>
<path d="M0 0 C0.66 0.66 1.32 1.32 2 2 C1.9375 4.375 1.9375 4.375 1 7 C-1.25 9.125 -1.25 9.125 -4 11 C-4.825 11.5775 -5.65 12.155 -6.5 12.75 C-9.29105375 14.14552688 -10.92232195 14.41590244 -14 14 C-16 12 -16 12 -16.3984375 9.609375 C-16 7 -16 7 -14.1015625 5.015625 C-13.28429687 4.43296875 -12.46703125 3.8503125 -11.625 3.25 C-10.40683594 2.36054688 -10.40683594 2.36054688 -9.1640625 1.453125 C-5.5754148 -0.95658067 -4.19226753 -1.15287357 0 0 Z " fill="#151515" transform="translate(192,18)"/>
<path d="M0 0 C4.89188593 1.51203747 9.02810876 4.21367611 12.4375 8.0625 C12.8203125 10.671875 12.8203125 10.671875 12.4375 13.0625 C10.4375 15.0625 10.4375 15.0625 7.375 15.125 C2.1101931 14.25863937 -1.65410654 10.45686439 -5.5625 7.0625 C-4.46456186 0.10889175 -4.46456186 0.10889175 0 0 Z " fill="#070707" transform="translate(44.5625,16.9375)"/>
<path d="M0 0 C2.26953125 -0.234375 2.26953125 -0.234375 5 0 C6.94921875 1.609375 6.94921875 1.609375 8.6875 3.75 C9.26886719 4.44609375 9.85023438 5.1421875 10.44921875 5.859375 C13.23121352 9.69950884 14.26536158 12.2234916 14 17 C11.75 17.75 11.75 17.75 9 18 C6.6875 16.1875 6.6875 16.1875 5 14 C5 13.34 5 12.68 5 12 C4.34 12 3.68 12 3 12 C-0.42857143 4.71428571 -0.42857143 4.71428571 0 0 Z " fill="#7B7B7D" transform="translate(132,46)"/>
<path d="M0 0 C0.556875 0.268125 1.11375 0.53625 1.6875 0.8125 C1.03631199 4.26689737 0.23524266 7.62567151 -0.75 11 C-0.99621094 11.85980469 -1.24242188 12.71960938 -1.49609375 13.60546875 C-2.3125 15.8125 -2.3125 15.8125 -4.3125 17.8125 C-7.4375 17.9375 -7.4375 17.9375 -10.3125 17.8125 C-11.26355469 15.27635415 -11.53164808 13.46730389 -10.6640625 10.875 C-5.31102115 -0.43062334 -5.31102115 -0.43062334 0 0 Z " fill="#7C7C7E" transform="translate(98.3125,46.1875)"/>
<path d="M0 0 C0.99 0.33 1.98 0.66 3 1 C3.13277344 1.86882812 3.26554687 2.73765625 3.40234375 3.6328125 C3.57894531 4.78523438 3.75554688 5.93765625 3.9375 7.125 C4.11152344 8.26195313 4.28554688 9.39890625 4.46484375 10.5703125 C4.79083546 12.65951487 5.15698594 14.74361763 5.59375 16.8125 C6.15476935 21.21434413 5.85188157 25.45777322 5.5625 29.875 C5.51029297 30.75414063 5.45808594 31.63328125 5.40429688 32.5390625 C5.27552439 34.69307499 5.13858537 36.84659659 5 39 C5.66 39.33 6.32 39.66 7 40 C6.01 42.97 5.02 45.94 4 49 C3.67 49 3.34 49 3 49 C2.98018066 48.12899658 2.96036133 47.25799316 2.93994141 46.3605957 C2.86085758 43.06332459 2.77414677 39.76642297 2.68261719 36.46948242 C2.64482947 35.05484477 2.60989934 33.64012728 2.578125 32.2253418 C2.39032449 23.95918488 1.88236575 15.91939298 0.41552734 7.75854492 C0.01851525 5.12291645 -0.07472818 2.66014094 0 0 Z " fill="#E2E3E7" transform="translate(50,64)"/>
<path d="M0 0 C0.33 0.99 0.66 1.98 1 3 C8.26 3 15.52 3 23 3 C23 4.65 23 6.3 23 8 C19.54173658 8.05789006 16.08359707 8.09355821 12.625 8.125 C11.64015625 8.14175781 10.6553125 8.15851563 9.640625 8.17578125 C8.69960937 8.18222656 7.75859375 8.18867188 6.7890625 8.1953125 C5.48509521 8.21102295 5.48509521 8.21102295 4.15478516 8.22705078 C2 8 2 8 0 6 C-0.125 2.875 -0.125 2.875 0 0 Z " fill="#919295" transform="translate(66,160)"/>
<path d="M0 0 C0.5625 1.9375 0.5625 1.9375 1 4 C0.67 4.33 0.34 4.66 0 5 C-1.00988923 14.12211421 0.91578908 21.84460471 6.25 29.3125 C8.14278595 32.21927842 8.39896842 33.6087684 8 37 C2.86129714 33.62313812 0.65551227 29.35948279 -2 24 C-2.433125 23.175 -2.86625 22.35 -3.3125 21.5 C-5.49438204 13.56588351 -3.3959134 7.26179697 0 0 Z " fill="#C6C7CB" transform="translate(24,16)"/>
<path d="M0 0 C6.27 0.33 12.54 0.66 19 1 C18.67 2.65 18.34 4.3 18 6 C13.57322373 7.47559209 9.25727068 7.97164471 4.921875 6.10546875 C3.24031412 5.13822946 1.61409154 4.07606103 0 3 C0 2.01 0 1.02 0 0 Z " fill="#E6E7EB" transform="translate(173,140)"/>
<path d="M0 0 C2.20826378 -0.02722517 4.41662638 -0.04649729 6.625 -0.0625 C7.85476562 -0.07410156 9.08453125 -0.08570313 10.3515625 -0.09765625 C13.67723791 -0.00863924 16.74047588 0.36313913 20 1 C20 2.32 20 3.64 20 5 C13.4 5 6.8 5 0 5 C0 3.35 0 1.7 0 0 Z " fill="#C8C9CC" transform="translate(146,158)"/>
<path d="M0 0 C0.33 0.99 0.66 1.98 1 3 C-3.91194084 6.92955267 -6.71437618 7.59863084 -13 7 C-16 6 -16 6 -18 5 C-17.67 3.68 -17.34 2.36 -17 1 C-8.585 0.505 -8.585 0.505 0 0 Z " fill="#E7E8EC" transform="translate(59,140)"/>
<path d="M0 0 C1.65 0 3.3 0 5 0 C4.65111224 2.52943628 4.18872953 3.7961721 2.4375 5.6875 C-0.93508569 7.50350768 -4.20525225 8.15266227 -8 8 C-11.5 6.5625 -11.5 6.5625 -14 5 C-14 3.68 -14 2.36 -14 1 C-13.01 1.2165625 -13.01 1.2165625 -12 1.4375 C-8.34400449 2.12299916 -4.69377805 2.56175515 -1 3 C-0.67 2.01 -0.34 1.02 0 0 Z " fill="#B6B6B8" transform="translate(60,113)"/>
<path d="M0 0 C-0.99 0.33 -1.98 0.66 -3 1 C-3 1.66 -3 2.32 -3 3 C-16.35631169 7.77011132 -32.031591 6.12332879 -46 6 C-46 5.67 -46 5.34 -46 5 C-44.9958606 4.92483154 -44.9958606 4.92483154 -43.97143555 4.84814453 C-40.87630739 4.61303102 -37.78193522 4.36905787 -34.6875 4.125 C-33.63498047 4.04636719 -32.58246094 3.96773438 -31.49804688 3.88671875 C-25.24797377 3.3867129 -19.19745236 2.58381961 -13.05786133 1.30029297 C-12.37876709 1.20119629 -11.69967285 1.10209961 -11 1 C-10.505 1.495 -10.505 1.495 -10 2 C-8.906875 1.484375 -7.81375 0.96875 -6.6875 0.4375 C-3 -1 -3 -1 0 0 Z " fill="#C5C6CA" transform="translate(200,274)"/>
<path d="M0 0 C1.65 0 3.3 0 5 0 C5.226875 0.639375 5.45375 1.27875 5.6875 1.9375 C6.85250896 4.27193661 6.85250896 4.27193661 9.625 4.75 C10.40875 4.8325 11.1925 4.915 12 5 C12 4.34 12 3.68 12 3 C12.99 3 13.98 3 15 3 C15 2.34 15 1.68 15 1 C17.475 1.495 17.475 1.495 20 2 C18.84881707 5.45354878 18.08773516 6.20105865 15 8 C10.14819602 8.43390117 6.03676086 7.62205651 1.875 5.125 C0 3 0 3 0 0 Z " fill="#B1B1B4" transform="translate(168,113)"/>
<path d="M0 0 C1.02679184 2.64292573 1.13693944 3.68189554 -0.00390625 6.33203125 C-3.32265298 11.61374597 -6.68039473 16.48404904 -11 21 C-11.66 21 -12.32 21 -13 21 C-13 21.66 -13 22.32 -13 23 C-17.0909066 26.31168629 -19.73628638 27.50130606 -25 27 C-23.06704442 25.48124919 -21.33822643 24.14183689 -19.0625 23.1875 C-16.70196097 21.98781686 -16.70196097 21.98781686 -14.5625 19.0625 C-12 16 -12 16 -9.578125 14.7265625 C-6.16670996 12.44194819 -5.02631951 9.95408373 -3.1875 6.3125 C-2.87619141 5.70599609 -2.56488281 5.09949219 -2.24414062 4.47460938 C-1.48391416 2.98924381 -0.74024538 1.49542366 0 0 Z " fill="#D0D1D5" transform="translate(225,247)"/>
<path d="M0 0 C0.66 0.66 1.32 1.32 2 2 C1.625 4.625 1.625 4.625 1 7 C-3.08378283 6.25749403 -7.01939223 5.17076699 -11 4 C-7.07674629 -0.05402883 -5.62646495 -1.54727786 0 0 Z " fill="#545454" transform="translate(192,18)"/>
<path d="M0 0 C1.65 0 3.3 0 5 0 C4.01 0.33 3.02 0.66 2 1 C2.495 2.093125 2.99 3.18625 3.5 4.3125 C5 8 5 8 5 11 C5.5775 11.268125 6.155 11.53625 6.75 11.8125 C9.0325868 13.01719859 10.9737942 14.40798115 13 16 C13.33 14.68 13.66 13.36 14 12 C14 13.65 14 15.3 14 17 C11.75 17.75 11.75 17.75 9 18 C6.6875 16.1875 6.6875 16.1875 5 14 C5 13.34 5 12.68 5 12 C4.34 12 3.68 12 3 12 C-0.42857143 4.71428571 -0.42857143 4.71428571 0 0 Z " fill="#AFAFB1" transform="translate(132,46)"/>
<path d="M0 0 C4.20826906 0.26861292 6.2048969 0.90452762 9 4 C7.75823305 4.70226141 6.50614401 5.38629109 5.25 6.0625 C4.20585938 6.63677734 4.20585938 6.63677734 3.140625 7.22265625 C0.63859372 8.1312406 -0.5332355 7.88336837 -3 7 C-2.25 2.25 -2.25 2.25 0 0 Z " fill="#6A6A6A" transform="translate(42,17)"/>
<path d="M0 0 C0.33 0 0.66 0 1 0 C1 1.65 1 3.3 1 5 C7.93 5.33 14.86 5.66 22 6 C22.33 6.66 22.66 7.32 23 8 C19.54173658 8.05789006 16.08359707 8.09355821 12.625 8.125 C11.64015625 8.14175781 10.6553125 8.15851563 9.640625 8.17578125 C8.69960937 8.18222656 7.75859375 8.18867188 6.7890625 8.1953125 C5.48509521 8.21102295 5.48509521 8.21102295 4.15478516 8.22705078 C2 8 2 8 0 6 C-0.125 2.875 -0.125 2.875 0 0 Z " fill="#56575A" transform="translate(66,160)"/>
<path d="M0 0 C1.32 0.33 2.64 0.66 4 1 C3.34881199 4.45439737 2.54774266 7.81317151 1.5625 11.1875 C1.31628906 12.04730469 1.07007812 12.90710938 0.81640625 13.79296875 C0 16 0 16 -2 18 C-5.125 18.125 -5.125 18.125 -8 18 C-7.34 17.34 -6.68 16.68 -6 16 C-5.01 16 -4.02 16 -3 16 C-2.8659375 15.43539062 -2.731875 14.87078125 -2.59375 14.2890625 C-1.98600193 11.94603375 -1.26767524 9.67034898 -0.5 7.375 C-0.2421875 6.59898438 0.015625 5.82296875 0.28125 5.0234375 C1 3 1 3 2 1 C1.34 0.67 0.68 0.34 0 0 Z " fill="#ADADAF" transform="translate(96,46)"/>
<path d="M0 0 C4.95 1.98 4.95 1.98 10 4 C6.7106599 7.89847716 6.7106599 7.89847716 3.375 8.375 C1 8 1 8 -1 6 C-1.1875 3.4375 -1.1875 3.4375 -1 1 C-0.67 0.67 -0.34 0.34 0 0 Z " fill="#050505" transform="translate(177,24)"/>
<path d="M0 0 C0.33 0 0.66 0 1 0 C1 7.92 1 15.84 1 24 C0.34 24.33 -0.32 24.66 -1 25 C-0.98839844 24.37351562 -0.97679687 23.74703125 -0.96484375 23.1015625 C-0.95582031 22.28429687 -0.94679687 21.46703125 -0.9375 20.625 C-0.92589844 19.81289062 -0.91429687 19.00078125 -0.90234375 18.1640625 C-0.85533666 15.95062858 -0.85533666 15.95062858 -2 14 C-2.66 14 -3.32 14 -4 14 C-4 13.01 -4 12.02 -4 11 C-3.34 10.67 -2.68 10.34 -2 10 C-1.31068656 7.65092125 -1.31068656 7.65092125 -0.875 4.9375 C-0.70742187 4.01839844 -0.53984375 3.09929687 -0.3671875 2.15234375 C-0.24601563 1.44207031 -0.12484375 0.73179688 0 0 Z " fill="#E1E2E6" transform="translate(179,85)"/>
<path d="M0 0 C-2.64 1.98 -5.28 3.96 -8 6 C-9.65 5.01 -11.3 4.02 -13 3 C-9.17907968 -1.67001372 -5.32732166 -2.66366083 0 0 Z " fill="#171717" transform="translate(54,23)"/>
<path d="M0 0 C0.495 0.309375 0.99 0.61875 1.5 0.9375 C4.97986781 2.41644382 8.24028509 2.62402851 12 3 C11.67 3.66 11.34 4.32 11 5 C13.88415883 6.44207941 16.41721528 6.09394887 19.625 6.0625 C21.40777344 6.04896484 21.40777344 6.04896484 23.2265625 6.03515625 C24.59941406 6.01775391 24.59941406 6.01775391 26 6 C23.2758438 8.7241562 21.6781266 8.3308802 17.875 8.375 C12.05739157 8.28490429 7.68136949 7.55303941 3 4 C1 1.75 1 1.75 0 0 Z " fill="#C1C1C3" transform="translate(134,66)"/>
<path d="M0 0 C0.66 0.33 1.32 0.66 2 1 C1.72285156 1.68707031 1.44570312 2.37414063 1.16015625 3.08203125 C0.79792969 3.98308594 0.43570313 4.88414063 0.0625 5.8125 C-0.29714844 6.70582031 -0.65679687 7.59914063 -1.02734375 8.51953125 C-1.73613486 10.3270909 -2.3860247 12.15807409 -3 14 C-4.65 14.33 -6.3 14.66 -8 15 C-8.33 13.68 -8.66 12.36 -9 11 C-8.39671875 10.93941406 -7.7934375 10.87882812 -7.171875 10.81640625 C-4.05310739 9.64406375 -3.60585411 7.91284651 -2.25 4.9375 C-1.82203125 4.01839844 -1.3940625 3.09929688 -0.953125 2.15234375 C-0.63859375 1.44207031 -0.3240625 0.73179688 0 0 Z " fill="#949496" transform="translate(96,48)"/>
<path d="M0 0 C-5.4656014 3.76519208 -8.81001189 5.14988656 -15.4375 5.1875 C-16.57058594 5.20167969 -17.70367187 5.21585937 -18.87109375 5.23046875 C-21.85457979 5.01071135 -23.49295423 4.55843386 -26 3 C-25.01 2.67 -24.02 2.34 -23 2 C-22.34 2.33 -21.68 2.66 -21 3 C-19.12620395 3.07033769 -17.24998898 3.0843022 -15.375 3.0625 C-14.37210938 3.05347656 -13.36921875 3.04445313 -12.3359375 3.03515625 C-11.56507812 3.02355469 -10.79421875 3.01195313 -10 3 C-9.67 2.34 -9.34 1.68 -9 1 C-2.49462366 -1.24731183 -2.49462366 -1.24731183 0 0 Z " fill="#BEBEBF" transform="translate(97,69)"/>
<path d="M0 0 C-0.99 0.33 -1.98 0.66 -3 1 C-3 1.66 -3 2.32 -3 3 C-7.15626368 4.00926479 -11.04365094 4.10239579 -15.3125 4.0625 C-16.56675781 4.05347656 -17.82101563 4.04445313 -19.11328125 4.03515625 C-20.06589844 4.02355469 -21.01851562 4.01195312 -22 4 C-22 3.67 -22 3.34 -22 3 C-20.18885568 2.63896464 -18.37603177 2.28634496 -16.5625 1.9375 C-15.55316406 1.74027344 -14.54382813 1.54304688 -13.50390625 1.33984375 C-12.67761719 1.22769531 -11.85132813 1.11554688 -11 1 C-10.67 1.33 -10.34 1.66 -10 2 C-8.906875 1.484375 -7.81375 0.96875 -6.6875 0.4375 C-3 -1 -3 -1 0 0 Z " fill="#CECFD3" transform="translate(200,274)"/>
<path d="M0 0 C2.6875 -0.3125 2.6875 -0.3125 5 0 C4.64393309 2.58148508 4.16671807 3.82045747 2.375 5.75 C-0.83134123 7.43754802 -3.43348514 7.20576047 -7 7 C-6.401875 6.773125 -5.80375 6.54625 -5.1875 6.3125 C-2.77649533 5.1162851 -2.77649533 5.1162851 -1.5625 2.375 C-1.046875 1.59125 -0.53125 0.8075 0 0 Z " fill="#969698" transform="translate(60,113)"/>
<path d="M0 0 C0.99 0.33 1.98 0.66 3 1 C3.28875 1.969375 3.5775 2.93875 3.875 3.9375 C4.68861556 7.21128486 4.68861556 7.21128486 7.625 8.375 C8.40875 8.58125 9.1925 8.7875 10 9 C10.33 8.34 10.66 7.68 11 7 C11 8.98 11 10.96 11 13 C5.28043364 10.34448704 2.51876437 7.91909627 0 2 C0 1.34 0 0.68 0 0 Z " fill="#8A8A8C" transform="translate(134,49)"/>
<path d="M0 0 C0.71542969 0.13277344 1.43085937 0.26554687 2.16796875 0.40234375 C9.76659924 1.74906093 17.29958171 2.52803888 25 3 C25 3.33 25 3.66 25 4 C9.04441459 5.74481369 9.04441459 5.74481369 1 2 C0.67 1.34 0.34 0.68 0 0 Z " fill="#BEBFC3" transform="translate(35,276)"/>
<path d="M0 0 C1.21386936 3.64160808 0.6674695 4.33165469 -0.9375 7.6875 C-1.31777344 8.49574219 -1.69804687 9.30398437 -2.08984375 10.13671875 C-2.39019531 10.75160156 -2.69054687 11.36648437 -3 12 C-3.66 12 -4.32 12 -5 12 C-5 12.66 -5 13.32 -5 14 C-6.32 14.33 -7.64 14.66 -9 15 C-7.55011105 11.93211904 -5.84572887 9.17873677 -3.9375 6.375 C-1.82273349 3.27282054 -1.82273349 3.27282054 0 0 Z " fill="#BCBDC1" transform="translate(227,138)"/>
<path d="M0 0 C1.65 0 3.3 0 5 0 C5.66 1.65 6.32 3.3 7 5 C5.1875 5.6875 5.1875 5.6875 3 6 C1.25 4.75 1.25 4.75 0 3 C0 2.01 0 1.02 0 0 Z " fill="#919192" transform="translate(168,113)"/>
<path d="M0 0 C1.32 0.33 2.64 0.66 4 1 C3.47731534 3.76276177 2.89130413 6.3260876 2 9 C1.34 9 0.68 9 0 9 C-0.33 9.99 -0.66 10.98 -1 12 C-1.33 11.34 -1.66 10.68 -2 10 C-1.690625 9.236875 -1.38125 8.47375 -1.0625 7.6875 C0.04184216 4.89416395 0.1696523 2.96891528 0 0 Z " fill="#C6C6C8" transform="translate(99,46)"/>
<path d="M0 0 C0.66 0.66 1.32 1.32 2 2 C1.625 4.125 1.625 4.125 1 6 C1 5.34 1 4.68 1 4 C0.236875 3.896875 -0.52625 3.79375 -1.3125 3.6875 C-4.17059424 2.95635961 -5.15742885 2.23048087 -7 0 C-4.29393021 -1.35303489 -2.8671629 -0.7884698 0 0 Z " fill="#737373" transform="translate(192,18)"/>
<path d="M0 0 C1.7074998 1.28062485 3.37373596 2.61767557 5 4 C5 4.66 5 5.32 5 6 C5.99 6 6.98 6 8 6 C7.67 7.32 7.34 8.64 7 10 C5.82174642 9.09827532 4.65768423 8.17798498 3.5 7.25 C2.8503125 6.73953125 2.200625 6.2290625 1.53125 5.703125 C0 4 0 4 0 0 Z " fill="#D8D9DD" transform="translate(15,259)"/>
<path d="M0 0 C0 3 0 3 -1.6796875 4.7890625 C-2.40414063 5.39492187 -3.12859375 6.00078125 -3.875 6.625 C-4.59429688 7.23601562 -5.31359375 7.84703125 -6.0546875 8.4765625 C-8 10 -8 10 -10 11 C-9.64701919 8.0991395 -9.11271704 7.10483324 -6.93359375 5.078125 C-6.10988281 4.47484375 -5.28617188 3.8715625 -4.4375 3.25 C-3.61121094 2.63640625 -2.78492188 2.0228125 -1.93359375 1.390625 C-1.29550781 0.93171875 -0.65742188 0.4728125 0 0 Z " fill="#DCDEE2" transform="translate(25,97)"/>
<path d="M0 0 C0.66 0 1.32 0 2 0 C1.814375 0.61875 1.62875 1.2375 1.4375 1.875 C0.76313824 4.04160178 0.76313824 4.04160178 2 6 C0.68 7.32 -0.64 8.64 -2 10 C-2.25 3.375 -2.25 3.375 0 0 Z " fill="#E2E3E7" transform="translate(181,65)"/>
<path d="M0 0 C0.99 0.33 1.98 0.66 3 1 C1.95199219 1.81404297 1.95199219 1.81404297 0.8828125 2.64453125 C-0.48230469 3.71767578 -0.48230469 3.71767578 -1.875 4.8125 C-2.77992188 5.52019531 -3.68484375 6.22789063 -4.6171875 6.95703125 C-7.16602956 8.95587741 -7.16602956 8.95587741 -9 12 C-9.375 9.75 -9.375 9.75 -9 7 C-4.02702703 3 -4.02702703 3 -1 3 C-0.67 2.01 -0.34 1.02 0 0 Z " fill="#C0C1C5" transform="translate(198,53)"/>
<path d="M0 0 C1.67542976 0.28604898 3.34385343 0.61781233 5 1 C5 1.99 5 2.98 5 4 C3.68 4.33 2.36 4.66 1 5 C0.34 3.68 -0.32 2.36 -1 1 C-0.67 0.67 -0.34 0.34 0 0 Z " fill="#9A9A9B" transform="translate(46,114)"/>
<path d="M0 0 C5.26053037 -0.31563182 8.44573816 0.33409063 13 3 C12.01 4.485 12.01 4.485 11 6 C10.01 5.67 9.02 5.34 8 5 C8 4.01 8 3.02 8 2 C5.36 1.67 2.72 1.34 0 1 C0 0.67 0 0.34 0 0 Z " fill="#2E2E2E" transform="translate(179,22)"/>
<path d="M0 0 C0.58265625 0.36867188 1.1653125 0.73734375 1.765625 1.1171875 C0.49870993 1.79127058 -0.77308249 2.45619247 -2.046875 3.1171875 C-2.75457031 3.4884375 -3.46226563 3.8596875 -4.19140625 4.2421875 C-6.234375 5.1171875 -6.234375 5.1171875 -9.234375 5.1171875 C-9.234375 4.4571875 -9.234375 3.7971875 -9.234375 3.1171875 C-2.784375 -1.10012019 -2.784375 -1.10012019 0 0 Z " fill="#525252" transform="translate(49.234375,19.8828125)"/>
<path d="M0 0 C0.56203125 0.36867188 1.1240625 0.73734375 1.703125 1.1171875 C-0.296875 2.1171875 -0.296875 2.1171875 -2.609375 2.5546875 C-5.34560813 3.12738746 -7.73246556 4.01815488 -10.296875 5.1171875 C-10.626875 4.4571875 -10.956875 3.7971875 -11.296875 3.1171875 C-9.88995893 2.38967962 -8.47081478 1.68578397 -7.046875 0.9921875 C-6.25796875 0.59773438 -5.4690625 0.20328125 -4.65625 -0.203125 C-2.296875 -0.8828125 -2.296875 -0.8828125 0 0 Z " fill="#2F2F2F" transform="translate(52.296875,21.8828125)"/>
<path d="M0 0 C0.33 0.66 0.66 1.32 1 2 C0.01 2 -0.98 2 -2 2 C-2 2.66 -2 3.32 -2 4 C-3.98 4 -5.96 4 -8 4 C-8 3.01 -8 2.02 -8 1 C-5.36 0.67 -2.72 0.34 0 0 Z " fill="#C6C6C7" transform="translate(182,114)"/>
<path d="M0 0 C1.65 0.33 3.3 0.66 5 1 C4.67 1.99 4.34 2.98 4 4 C2.35 4 0.7 4 -1 4 C-0.67 2.68 -0.34 1.36 0 0 Z " fill="#949596" transform="translate(183,114)"/>
<path d="M0 0 C1 1.33333333 2 2.66666667 3 4 C3.8353125 5.0209375 3.8353125 5.0209375 4.6875 6.0625 C6 8 6 8 6 11 C5.34 11 4.68 11 4 11 C0 4.5 0 4.5 0 0 Z " fill="#BEBEC2" transform="translate(6,139)"/>
<path d="M0 0 C0.66 0 1.32 0 2 0 C1.67 1.65 1.34 3.3 1 5 C0.34 5 -0.32 5 -1 5 C-1.33 5.66 -1.66 6.32 -2 7 C-2.66 6.67 -3.32 6.34 -4 6 C-2.84826645 3.53199953 -1.95216435 1.95216435 0 0 Z " fill="#DBDCE0" transform="translate(213,263)"/>
<path d="M0 0 C3 1 3 1 4.75 3.9375 C5.1625 4.948125 5.575 5.95875 6 7 C5.67 7.66 5.34 8.32 5 9 C1.96130589 7.48065294 1.35589694 5.01995228 0 2 C0 1.34 0 0.68 0 0 Z " fill="#9A9A9C" transform="translate(134,49)"/>
<path d="M0 0 C1.231394 3.69418201 0.64432764 6.2056261 0 10 C-2 8 -2 8 -2.25 5 C-2 2 -2 2 0 0 Z " fill="#E9EAEE" transform="translate(181,74)"/>
<path d="M0 0 C4.875 2.875 4.875 2.875 6 4 C6.04063832 5.66617115 6.042721 7.33388095 6 9 C3 5.25 3 5.25 3 3 C2.01 2.67 1.02 2.34 0 2 C0 1.34 0 0.68 0 0 Z " fill="#89898B" transform="translate(134,47)"/>
<path d="M0 0 C-0.33 0.66 -0.66 1.32 -1 2 C-3.31 2 -5.62 2 -8 2 C-8 1.34 -8 0.68 -8 0 C-4.94736336 -0.98120464 -3.05263664 -0.98120464 0 0 Z " fill="#F0F0F1" transform="translate(183,113)"/>
</svg>
