<?xml version="1.0" encoding="UTF-8"?>
<svg version="1.1" xmlns="http://www.w3.org/2000/svg" width="532" height="582">
<path d="M0 0 C0.68964844 -0.02449219 1.37929687 -0.04898437 2.08984375 -0.07421875 C5.41175234 -0.09327367 7.65457748 0.2533035 10.57341003 1.86480713 C13.78397432 5.36635853 13.54186089 8.48437959 13.44262695 12.99902344 C13.44372215 14.30200127 13.44372215 14.30200127 13.44483948 15.63130188 C13.44135878 18.49963037 13.40247539 21.36633058 13.36328125 24.234375 C13.35395483 26.22405103 13.34683791 28.21373855 13.34184265 30.20343018 C13.32275947 35.43816882 13.27364693 40.67221288 13.21832275 45.90667725 C13.16715895 51.24888716 13.14433472 56.5912094 13.11914062 61.93359375 C13.06552978 72.41436754 12.98020069 82.89462599 12.875 93.375 C14.40362671 93.33439453 14.40362671 93.33439453 15.96313477 93.29296875 C19.68591528 93.37103492 22.84579875 93.85633177 26.46484375 94.6875 C28.25825195 95.09355469 28.25825195 95.09355469 30.08789062 95.5078125 C31.31701172 95.79398437 32.54613281 96.08015625 33.8125 96.375 C35.06869141 96.66117187 36.32488281 96.94734375 37.61914062 97.2421875 C40.70603058 97.94642095 43.79116066 98.65754702 46.875 99.375 C46.86389694 98.49660965 46.85279388 97.6182193 46.84135437 96.71321106 C46.74111226 88.42966497 46.66501477 80.14632297 46.61593914 71.86230946 C46.58986027 67.60349945 46.55449449 63.34519117 46.49780273 59.08666992 C46.44342037 54.9758328 46.41356659 50.86547782 46.40061378 46.7543087 C46.39138492 45.1869822 46.37336251 43.61968168 46.34634972 42.05256081 C46.30997342 39.85453192 46.30505775 37.65848721 46.30737305 35.46020508 C46.29626999 34.21000076 46.28516693 32.95979645 46.27372742 31.67170715 C47.03766608 27.48312092 48.66427843 26.06808848 51.875 23.375 C52.45894531 22.83230469 53.04289063 22.28960937 53.64453125 21.73046875 C57.06553237 19.6515066 60.71895256 18.73286911 64.5625 17.6875 C65.32755859 17.46255859 66.09261719 17.23761719 66.88085938 17.00585938 C77.72974365 13.99888134 77.72974365 13.99888134 82.875 15.375 C85.46453144 17.3583026 87.53811646 18.97592316 88.32788754 22.25584126 C88.49045121 24.55564302 88.4935175 26.80746349 88.44262695 29.11254883 C88.44372215 30.4157457 88.44372215 30.4157457 88.44483948 31.74526978 C88.44136453 34.60816551 88.40250834 37.46942085 88.36328125 40.33203125 C88.35395278 42.32027803 88.34683683 44.30853632 88.34184265 46.29679871 C88.32277559 51.52330399 88.27367691 56.74911165 88.21832275 61.9753418 C88.16712422 67.31093916 88.14432729 72.64664953 88.11914062 77.98242188 C88.06555821 88.44692065 87.9802486 98.91090226 87.875 109.375 C88.47828125 109.44138672 89.0815625 109.50777344 89.703125 109.57617188 C90.50234375 109.66447266 91.3015625 109.75277344 92.125 109.84375 C92.91390625 109.93076172 93.7028125 110.01777344 94.515625 110.10742188 C96.63765567 110.34808264 98.75648478 110.60536564 100.875 110.875 C105.20289685 111.4247127 109.53801379 111.90315196 113.875 112.375 C113.875 113.035 113.875 113.695 113.875 114.375 C115.009375 114.519375 116.14375 114.66375 117.3125 114.8125 C118.03824219 114.9053125 118.76398438 114.998125 119.51171875 115.09375 C121.09521565 115.28219922 122.68147311 115.44867454 124.26953125 115.59375 C125.04683594 115.6659375 125.82414062 115.738125 126.625 115.8125 C127.34171875 115.87308594 128.0584375 115.93367188 128.796875 115.99609375 C131.75540801 116.53552552 134.03995229 117.89782988 136.625 119.375 C141.37067819 121.48419031 145.7267388 122.375 150.875 122.375 C155.35072281 122.375 158.62192045 123.03192225 162.875 124.375 C163.205 125.035 163.535 125.695 163.875 126.375 C165.73494918 127.02580888 165.73494918 127.02580888 167.99609375 127.453125 C168.84510254 127.64148926 169.69411133 127.82985352 170.56884766 128.02392578 C171.92695557 128.32145752 171.92695557 128.32145752 173.3125 128.625 C190.75599022 132.69648533 190.75599022 132.69648533 195.875 140.375 C196.12454766 142.38678181 196.12454766 142.38678181 196.12388897 144.73698616 C196.13078716 146.08221845 196.13078716 146.08221845 196.13782471 147.45462716 C196.13010937 148.93454811 196.13010937 148.93454811 196.12223816 150.44436646 C196.12465257 151.4919758 196.12706699 152.53958515 196.12955457 153.61894023 C196.13521392 157.14852907 196.1265105 160.67793868 196.11791992 164.20751953 C196.1189925 166.73253936 196.12093081 169.25755895 196.12367249 171.78257751 C196.12803066 177.95018138 196.12305494 184.11771836 196.11382218 190.28531499 C196.1034114 197.50275504 196.10350934 204.72018366 196.10399476 211.9376298 C196.10449622 224.86337897 196.09532412 237.7891035 196.08081055 250.71484375 C196.06683277 263.17025198 196.059635 275.62563849 196.06030273 288.08105469 C196.06034269 288.84266482 196.06038265 289.60427496 196.06042381 290.38896419 C196.06046417 291.14941999 196.06050452 291.90987579 196.0605461 292.69337571 C196.0612443 306.94916407 196.05528437 321.20494341 196.04639288 335.4607288 C196.0438403 339.7482638 196.04245754 344.03579719 196.04206209 348.32333291 C196.03695168 401.63011912 196.03695168 401.63011912 195.42700195 427.46435547 C195.40764977 428.32560414 195.38829758 429.1868528 195.36835897 430.07419991 C195.31321296 432.44141721 195.25108821 434.80831395 195.1855011 437.17526245 C195.14991246 438.4810066 195.11432383 439.78675076 195.07765675 441.13206291 C194.91444793 443.74374964 194.5701294 445.87977242 193.875 448.375 C193.96816599 450.77097977 193.96816599 450.77097977 194.3125 453.25 C194.74365293 456.98665871 194.97414836 460.60736227 194.875 464.375 C193.885 464.705 192.895 465.035 191.875 465.375 C191.215 466.365 190.555 467.355 189.875 468.375 C189.215 468.375 188.555 468.375 187.875 468.375 C187.64039063 468.99890625 187.40578125 469.6228125 187.1640625 470.265625 C185.50676925 472.97755941 184.2608401 473.26475997 181.25 474.125 C180.43273437 474.36734375 179.61546875 474.6096875 178.7734375 474.859375 C178.14695312 475.02953125 177.52046875 475.1996875 176.875 475.375 C176.875 476.035 176.875 476.695 176.875 477.375 C176.23691406 477.49617188 175.59882813 477.61734375 174.94140625 477.7421875 C174.11511719 477.90976562 173.28882813 478.07734375 172.4375 478.25 C171.61378906 478.41242188 170.79007812 478.57484375 169.94140625 478.7421875 C169.25949219 478.95101563 168.57757813 479.15984375 167.875 479.375 C167.545 480.035 167.215 480.695 166.875 481.375 C166.215 481.705 165.555 482.035 164.875 482.375 C164.215 482.045 163.555 481.715 162.875 481.375 C162.545 482.035 162.215 482.695 161.875 483.375 C161.215 483.705 160.555 484.035 159.875 484.375 C159.215 484.045 158.555 483.715 157.875 483.375 C157.545 484.035 157.215 484.695 156.875 485.375 C155.885 485.045 154.895 484.715 153.875 484.375 C153.545 485.035 153.215 485.695 152.875 486.375 C150.87109375 486.90234375 150.87109375 486.90234375 148.3125 487.3125 C144.29967302 488.04107001 140.73559526 489.05913014 136.96484375 490.5859375 C133.67106784 491.82956878 130.27568235 492.71099882 126.87890625 493.62890625 C124.68512286 494.18627704 124.68512286 494.18627704 123.875 496.375 C121.94921875 496.71875 121.94921875 496.71875 119.5625 496.875 C117.00177689 497.04430401 115.20690012 497.20707435 112.90625 498.37109375 C110.44156799 499.58921544 108.42045797 499.74776732 105.6875 499.9375 C102.47496202 499.92489247 102.47496202 499.92489247 99.875 501.375 C96.13343664 501.43559212 92.40502839 501.39531791 88.6640625 501.3359375 C84.5479894 501.29571529 80.91119467 501.51385749 76.875 502.375 C74.33523228 502.49142858 71.79240408 502.54996349 69.25 502.5625 C67.93773437 502.57667969 66.62546875 502.59085938 65.2734375 502.60546875 C61.875 502.375 61.875 502.375 58.875 500.375 C55.44192835 500.13229175 55.44192835 500.13229175 51.6875 500.25 C50.41519531 500.26804687 49.14289063 500.28609375 47.83203125 500.3046875 C46.85621094 500.32789063 45.88039063 500.35109375 44.875 500.375 C44.875 499.715 44.875 499.055 44.875 498.375 C43.781875 498.395625 42.68875 498.41625 41.5625 498.4375 C37.875 498.375 37.875 498.375 34.875 497.375 C33.905625 497.230625 32.93625 497.08625 31.9375 496.9375 C28.875 496.375 28.875 496.375 26.9375 495.375 C24.6954879 494.15575004 24.6954879 494.15575004 21.1875 493.875 C20.094375 493.71 19.00125 493.545 17.875 493.375 C17.545 492.715 17.215 492.055 16.875 491.375 C13.97858727 490.06122281 10.90663126 489.2027984 7.875 488.25 C7.04871094 487.97285156 6.22242188 487.69570313 5.37109375 487.41015625 C0.33039425 485.80880727 -4.02081848 485.09636735 -9.3125 485.37158203 C-11.125 485.375 -11.125 485.375 -13.125 484.375 C-13.125 483.715 -13.125 483.055 -13.125 482.375 C-14.115 482.705 -15.105 483.035 -16.125 483.375 C-16.125 482.715 -16.125 482.055 -16.125 481.375 C-17.115 481.705 -18.105 482.035 -19.125 482.375 C-19.125 481.715 -19.125 481.055 -19.125 480.375 C-20.115 480.705 -21.105 481.035 -22.125 481.375 C-22.455 480.715 -22.785 480.055 -23.125 479.375 C-25.45144613 478.33892303 -25.45144613 478.33892303 -28.296875 477.4296875 C-29.35390625 477.07519531 -30.4109375 476.72070312 -31.5 476.35546875 C-33.170625 475.80826172 -33.170625 475.80826172 -34.875 475.25 C-35.97328125 474.87746094 -37.0715625 474.50492187 -38.203125 474.12109375 C-39.79640625 473.59322266 -39.79640625 473.59322266 -41.421875 473.0546875 C-42.39479492 472.73226074 -43.36771484 472.40983398 -44.37011719 472.07763672 C-47.08220527 471.26150902 -47.08220527 471.26150902 -49.79394531 471.39501953 C-52.125 471.375 -52.125 471.375 -55.125 469.375 C-60.26276911 467.31163891 -65.56455615 465.97870003 -70.97265625 464.84765625 C-74.07029266 464.16741305 -77.08622289 463.28016765 -80.125 462.375 C-80.125 461.715 -80.125 461.055 -80.125 460.375 C-81.775 460.375 -83.425 460.375 -85.125 460.375 C-85.125 459.715 -85.125 459.055 -85.125 458.375 C-86.23875 458.436875 -86.23875 458.436875 -87.375 458.5 C-90.29056435 458.36747435 -91.59338155 457.7199223 -94.125 456.375 C-95.78694453 456.01886903 -97.453451 455.68291692 -99.125 455.375 C-99.785 455.045 -100.445 454.715 -101.125 454.375 C-101.125 453.715 -101.125 453.055 -101.125 452.375 C-101.70765625 452.22804688 -102.2903125 452.08109375 -102.890625 451.9296875 C-109.22857455 450.19572017 -114.77036866 447.68367468 -120.55859375 444.58203125 C-123.1047757 443.16220098 -123.1047757 443.16220098 -126.125 443.375 C-126.393125 442.59125 -126.66125 441.8075 -126.9375 441 C-127.97314432 438.09385077 -127.97314432 438.09385077 -131.125 436.375 C-131.3828125 433.625 -131.3828125 433.625 -131.25 430.375 C-130.9438243 426.21945218 -130.9438243 426.21945218 -132.125 422.375 C-132.27776839 420.38735814 -132.36744833 418.39477381 -132.42904663 416.40222168 C-132.48925712 414.47881329 -132.48925712 414.47881329 -132.55068398 412.51654816 C-132.58952776 411.07810448 -132.62778713 409.63964493 -132.66552734 408.20117188 C-132.68623063 407.45854819 -132.70693391 406.71592451 -132.72826457 405.95079708 C-133.29275891 385.44882449 -133.36749625 364.94094553 -133.4612546 344.43252754 C-133.48211601 339.96765954 -133.50550315 335.50280594 -133.52879179 331.03795004 C-133.58391826 320.45012117 -133.6346675 309.86227768 -133.68261719 299.27441406 C-133.72596982 289.71774141 -133.77454889 280.16111293 -133.828125 270.60449219 C-134.33584772 179.61137941 -134.33584772 179.61137941 -133.94111252 146.73893738 C-133.91309365 144.30460411 -133.89115117 141.87019181 -133.87587357 139.43574524 C-133.85298962 136.22538227 -133.80490933 133.01654606 -133.74755859 129.80664062 C-133.74513027 128.90238342 -133.74270195 127.99812622 -133.74020004 127.06646729 C-133.60773723 121.86067147 -132.94690366 119.21944003 -129.125 115.375 C-128.63 114.385 -128.63 114.385 -128.125 113.375 C-126.13293224 112.99714138 -124.1308122 112.67135879 -122.125 112.375 C-120.21601042 111.81915059 -118.31871662 111.2219209 -116.43359375 110.58984375 C-115.33813232 110.22777832 -114.2426709 109.86571289 -113.11401367 109.49267578 C-111.94201416 109.10321777 -110.77001465 108.71375977 -109.5625 108.3125 C-90.12808954 101.96610022 -70.35146404 95.57591382 -50.125 92.375 C-48.93970703 92.18164062 -48.93970703 92.18164062 -47.73046875 91.984375 C-43.10041496 91.35034962 -38.51779777 91.34190065 -33.84765625 91.35546875 C-31.95865601 91.35969849 -31.95865601 91.35969849 -30.03149414 91.36401367 C-29.07235107 91.36763916 -28.11320801 91.37126465 -27.125 91.375 C-27.13499275 89.96678482 -27.13499275 89.96678482 -27.14518738 88.53012085 C-27.20606242 79.67290851 -27.2510033 70.81573874 -27.28043652 61.95836449 C-27.29607726 57.40493408 -27.3172864 52.85167288 -27.35131836 48.29833984 C-27.38396866 43.90224169 -27.40186499 39.50630605 -27.40963173 35.11009598 C-27.41516507 33.4347948 -27.42597039 31.75950228 -27.44219017 30.08427048 C-27.46404018 27.73355801 -27.46696382 25.3835129 -27.46557617 23.03271484 C-27.476362 22.34363037 -27.48714783 21.6545459 -27.4982605 20.94458008 C-27.46900756 16.35004742 -26.39720164 13.33397291 -24.125 9.375 C-23.75375 8.2921875 -23.75375 8.2921875 -23.375 7.1875 C-18.95887997 0.78412595 -7.15911775 0.0135333 0 0 Z M-8.73046875 27.8984375 C-10.56422105 31.15501721 -11.00724048 34.34804113 -11.4375 38 C-11.58541992 39.0209375 -11.58541992 39.0209375 -11.73632812 40.0625 C-11.96084351 41.82381446 -12.05229192 43.60092297 -12.125 45.375 C-11.465 46.035 -10.805 46.695 -10.125 47.375 C-7.65173046 47.51591482 -7.65173046 47.51591482 -5.125 46.375 C-1.04978336 42.07950138 -0.68260992 38.38943101 -0.69140625 32.7421875 C-1.216079 29.87775789 -2.09507447 28.44791219 -4.125 26.375 C-7.13117389 26.03083406 -7.13117389 26.03083406 -8.73046875 27.8984375 Z M-11.125 30.375 C-10.125 32.375 -10.125 32.375 -10.125 32.375 Z M-12.125 33.375 C-11.125 36.375 -11.125 36.375 -11.125 36.375 Z M66.703125 43.828125 C64.04171025 47.53590795 64.43354465 50.6847087 64.625 55.125 C64.64304687 55.91777344 64.66109375 56.71054688 64.6796875 57.52734375 C64.72666918 59.47708348 64.79840956 61.42619878 64.875 63.375 C65.535 63.705 66.195 64.035 66.875 64.375 C70.62992603 61.70702624 72.79085412 59.90870094 73.875 55.375 C74.48700295 48.50725604 74.48700295 48.50725604 71.875 42.375 C68.8550377 42.09696036 68.8550377 42.09696036 66.703125 43.828125 Z M62.875 51.375 C62.875 54.345 62.875 57.315 62.875 60.375 C63.205 60.375 63.535 60.375 63.875 60.375 C63.875 57.405 63.875 54.435 63.875 51.375 C63.545 51.375 63.215 51.375 62.875 51.375 Z M104.875 112.375 C108.875 113.375 108.875 113.375 108.875 113.375 Z M121.875 116.375 C125.875 117.375 125.875 117.375 125.875 117.375 Z " fill="#F6F6F7" transform="translate(234.125,24.625)"/>
<path d="M0 0 C3.07395289 1.496518 6.02419543 3.15611983 8.9921875 4.8515625 C14.8550798 8.04897622 20.79718292 10.27944824 27.125 12.375 C28.33945801 12.78580811 29.55391602 13.19661621 30.80517578 13.61987305 C45.24791646 18.48995903 59.75431826 23.17604248 74.25048828 27.8840332 C84.16318538 31.10464675 94.06936074 34.34002999 103.9453125 37.671875 C104.79836472 37.95963806 105.65141693 38.24740112 106.53031921 38.54388428 C107.36714737 38.82620911 108.20397552 39.10853394 109.06616211 39.39941406 C124.91880019 44.74674797 140.76955469 49.89595943 157 54 C157.82677246 54.20947266 158.65354492 54.41894531 159.50537109 54.63476562 C190.23459598 62.27198241 221.59414285 62.24259675 252 53 C252.68497559 52.79584473 253.36995117 52.59168945 254.07568359 52.38134766 C256.21967924 51.74150123 258.36053612 51.09233186 260.5 50.4375 C261.14686768 50.23979004 261.79373535 50.04208008 262.46020508 49.83837891 C266.77122043 48.48276993 270.85265653 46.78534141 275 45 C276.87843779 44.34542295 278.75722745 43.691543 280.64379883 43.06079102 C295.78462673 37.98008553 310.48252917 31.54458014 324 23 C326.14336161 26.4766338 326.21277626 29.21229195 326.125 33.25 C326.10695313 34.32765625 326.08890625 35.4053125 326.0703125 36.515625 C326.03550781 37.74539063 326.03550781 37.74539063 326 39 C324.515 39.495 324.515 39.495 323 40 C322.34 40.99 321.68 41.98 321 43 C320.34 43 319.68 43 319 43 C318.64808594 43.93585938 318.64808594 43.93585938 318.2890625 44.890625 C316.63176925 47.60255941 315.3858401 47.88975997 312.375 48.75 C311.55773437 48.99234375 310.74046875 49.2346875 309.8984375 49.484375 C309.27195312 49.65453125 308.64546875 49.8246875 308 50 C308 50.66 308 51.32 308 52 C307.36191406 52.12117188 306.72382813 52.24234375 306.06640625 52.3671875 C304.82697266 52.61855469 304.82697266 52.61855469 303.5625 52.875 C302.73878906 53.03742188 301.91507812 53.19984375 301.06640625 53.3671875 C300.38449219 53.57601562 299.70257813 53.78484375 299 54 C298.67 54.66 298.34 55.32 298 56 C297.34 56.33 296.68 56.66 296 57 C295.34 56.67 294.68 56.34 294 56 C293.67 56.66 293.34 57.32 293 58 C292.34 58.33 291.68 58.66 291 59 C290.34 58.67 289.68 58.34 289 58 C288.67 58.66 288.34 59.32 288 60 C287.01 59.67 286.02 59.34 285 59 C284.67 59.66 284.34 60.32 284 61 C281.99609375 61.52734375 281.99609375 61.52734375 279.4375 61.9375 C275.42467302 62.66607001 271.86059526 63.68413014 268.08984375 65.2109375 C264.79606784 66.45456878 261.40068235 67.33599882 258.00390625 68.25390625 C255.81012286 68.81127704 255.81012286 68.81127704 255 71 C253.07421875 71.34375 253.07421875 71.34375 250.6875 71.5 C248.12677689 71.66930401 246.33190012 71.83207435 244.03125 72.99609375 C241.56656799 74.21421544 239.54545797 74.37276732 236.8125 74.5625 C233.59996202 74.54989247 233.59996202 74.54989247 231 76 C227.25843664 76.06059212 223.53002839 76.02031791 219.7890625 75.9609375 C215.6729894 75.92071529 212.03619467 76.13885749 208 77 C205.46023228 77.11642858 202.91740408 77.17496349 200.375 77.1875 C198.40660156 77.20876953 198.40660156 77.20876953 196.3984375 77.23046875 C193 77 193 77 190 75 C186.56692835 74.75729175 186.56692835 74.75729175 182.8125 74.875 C180.90404297 74.90207031 180.90404297 74.90207031 178.95703125 74.9296875 C177.49330078 74.96449219 177.49330078 74.96449219 176 75 C176 74.34 176 73.68 176 73 C174.3603125 73.0309375 174.3603125 73.0309375 172.6875 73.0625 C169 73 169 73 166 72 C165.030625 71.855625 164.06125 71.71125 163.0625 71.5625 C160 71 160 71 158.0625 70 C155.8204879 68.78075004 155.8204879 68.78075004 152.3125 68.5 C151.219375 68.335 150.12625 68.17 149 68 C148.67 67.34 148.34 66.68 148 66 C145.10358727 64.68622281 142.03163126 63.8277984 139 62.875 C138.17371094 62.59785156 137.34742188 62.32070313 136.49609375 62.03515625 C131.45539425 60.43380727 127.10418152 59.72136735 121.8125 59.99658203 C120 60 120 60 118 59 C118 58.34 118 57.68 118 57 C116.515 57.495 116.515 57.495 115 58 C115 57.34 115 56.68 115 56 C113.515 56.495 113.515 56.495 112 57 C112 56.34 112 55.68 112 55 C110.515 55.495 110.515 55.495 109 56 C108.67 55.34 108.34 54.68 108 54 C105.67355387 52.96392303 105.67355387 52.96392303 102.828125 52.0546875 C101.77109375 51.70019531 100.7140625 51.34570312 99.625 50.98046875 C98.51125 50.61566406 97.3975 50.25085938 96.25 49.875 C95.15171875 49.50246094 94.0534375 49.12992187 92.921875 48.74609375 C91.8596875 48.39417969 90.7975 48.04226563 89.703125 47.6796875 C88.73020508 47.35726074 87.75728516 47.03483398 86.75488281 46.70263672 C84.04279473 45.88650902 84.04279473 45.88650902 81.33105469 46.02001953 C79 46 79 46 76 44 C70.86223089 41.93663891 65.56044385 40.60370003 60.15234375 39.47265625 C57.05470734 38.79241305 54.03877711 37.90516765 51 37 C51 36.34 51 35.68 51 35 C49.35 35 47.7 35 46 35 C46 34.34 46 33.68 46 33 C45.2575 33.04125 44.515 33.0825 43.75 33.125 C40.83443565 32.99247435 39.53161845 32.3449223 37 31 C35.33805547 30.64386903 33.671549 30.30791692 32 30 C31.34 29.67 30.68 29.34 30 29 C30 28.34 30 27.68 30 27 C29.41734375 26.85304688 28.8346875 26.70609375 28.234375 26.5546875 C21.89642545 24.82072017 16.35463134 22.30867468 10.56640625 19.20703125 C8.0202243 17.78720098 8.0202243 17.78720098 5 18 C4.731875 17.21625 4.46375 16.4325 4.1875 15.625 C3.15185568 12.71885077 3.15185568 12.71885077 0 11 C-0.29296875 8.3984375 -0.29296875 8.3984375 -0.1875 5.375 C-0.16042969 4.37210937 -0.13335937 3.36921875 -0.10546875 2.3359375 C-0.07066406 1.56507813 -0.03585938 0.79421875 0 0 Z " fill="#010101" transform="translate(103,450)"/>
<path d="M0 0 C1 1 1 1 1.12304783 2.96589756 C1.12166514 4.26977374 1.12166514 4.26977374 1.12025452 5.59999084 C1.12162918 6.59423569 1.12300385 7.58848053 1.12442017 8.612854 C1.12082489 9.71264587 1.11722961 10.81243774 1.11352539 11.94555664 C1.11367142 13.09662399 1.11381744 14.24769135 1.1139679 15.43363953 C1.11326818 19.25916391 1.10547302 23.08464031 1.09765625 26.91015625 C1.09579228 29.55431593 1.09436828 32.19847596 1.09336853 34.84263611 C1.09025549 41.10415417 1.08204248 47.36565486 1.07201904 53.62716526 C1.06085705 60.75401537 1.05534724 67.8808663 1.05032361 75.00772297 C1.03985984 89.6718243 1.02226093 104.33591191 1 119 C-0.99954746 119.04254356 -3.00041636 119.04080783 -5 119 C-6.60802351 117.39197649 -6.14155018 115.66436842 -6.15821838 113.43797302 C-6.1680072 112.45214233 -6.17779602 111.46631165 -6.18788147 110.4506073 C-6.19363693 109.36016617 -6.1993924 108.26972504 -6.20532227 107.14624023 C-6.21522186 106.00492645 -6.22512146 104.86361267 -6.23532104 103.68771362 C-6.26704628 99.89469516 -6.29173689 96.10166414 -6.31640625 92.30859375 C-6.33696627 89.68685063 -6.35796247 87.0651109 -6.37937927 84.44337463 C-6.42935578 78.23501452 -6.47427614 72.02662841 -6.51740164 65.81821734 C-6.56673173 58.75179224 -6.62166549 51.68541423 -6.67708123 44.61903465 C-6.79097735 30.079401 -6.8977997 15.53972049 -7 1 C-4.51588385 -0.24205807 -2.74800896 -0.14092354 0 0 Z " fill="#CCCDD0" transform="translate(288,52)"/>
<path d="M0 0 C1.65 0 3.3 0 5 0 C6.11111077 23.77545533 6.12307405 47.52509832 6.06866455 71.32116699 C6.0582444 76.37751841 6.05382784 81.43387521 6.04882812 86.49023438 C6.03825603 96.32683656 6.02129915 106.16341558 6 116 C4.02 116 2.04 116 0 116 C-0.78224193 91.96366987 -1.1637122 67.95171745 -1.13037109 43.90283203 C-1.12451506 39.62081799 -1.12807734 35.33886448 -1.13394356 31.05685234 C-1.13754013 27.70780977 -1.13641749 24.35878191 -1.13381577 21.00973892 C-1.13315203 19.42688108 -1.13395544 17.84402187 -1.13629532 16.26116562 C-1.13882364 14.08406671 -1.13498604 11.90707158 -1.12939453 9.72998047 C-1.12859894 8.49811005 -1.12780334 7.26623962 -1.12698364 5.99703979 C-1 3 -1 3 0 0 Z " fill="#CCCDCF" transform="translate(208,37)"/>
<path d="M0 0 C0.67748291 -0.0220752 1.35496582 -0.04415039 2.05297852 -0.06689453 C6.84577799 -0.04670432 9.22099083 1.11891963 12.625 4.4375 C12.295 6.0875 11.965 7.7375 11.625 9.4375 C1.395 12.0775 -8.835 14.7175 -19.375 17.4375 C-19.375 11.4375 -19.375 11.4375 -17.375 8.4375 C-18.365 7.4475 -19.355 6.4575 -20.375 5.4375 C-19.375 3.4375 -19.375 3.4375 -17.43359375 2.5859375 C-11.59747206 0.86380323 -6.05668075 0.10158247 0 0 Z " fill="#C0C1C3" transform="translate(234.375,24.5625)"/>
<path d="M0 0 C3.0625 2.3125 3.0625 2.3125 5 5 C5 5.99 5 6.98 5 8 C1.15043602 10.98247772 -3.15018166 11.99670192 -7.8125 13.0625 C-8.48603516 13.22298828 -9.15957031 13.38347656 -9.85351562 13.54882812 C-11.21212934 13.87255522 -12.57167556 14.19239393 -13.93212891 14.50830078 C-16.07102354 15.01688801 -18.19648137 15.5678723 -20.32421875 16.12109375 C-24 17 -24 17 -27 17 C-26.25 10.25 -26.25 10.25 -24 8 C-24.99 7.01 -25.98 6.02 -27 5 C-24.19129012 4.15163024 -21.37914854 3.32124504 -18.5625 2.5 C-17.3878418 2.14228516 -17.3878418 2.14228516 -16.18945312 1.77734375 C-10.87141867 0.24539967 -5.54087338 -0.8999017 0 0 Z " fill="#C0C1C4" transform="translate(317,40)"/>
<path d="M0 0 C0.33 0 0.66 0 1 0 C1 87.78 1 175.56 1 266 C0.67 266 0.34 266 0 266 C0 178.22 0 90.44 0 0 Z " fill="#EFEFF0" transform="translate(431,165)"/>
<path d="M0 0 C3.625 0.375 3.625 0.375 7 1 C6.360625 1.721875 5.72125 2.44375 5.0625 3.1875 C3.01326465 5.98191184 2.38667054 7.61663274 2 11 C2.66 11.33 3.32 11.66 4 12 C3.67 44.01 3.34 76.02 3 109 C2.34 109 1.68 109 1 109 C0.67 75.34 0.34 41.68 0 7 C-1.32 6.67 -2.64 6.34 -4 6 C-2.84826645 3.53199953 -1.95216435 1.95216435 0 0 Z " fill="#E8E9EA" transform="translate(288,46)"/>
<path d="M0 0 C0.33 0 0.66 0 1 0 C1 58.41 1 116.82 1 177 C0.67 177 0.34 177 0 177 C0 118.59 0 60.18 0 0 Z " fill="#F1F1F2" transform="translate(99,237)"/>
<path d="M0 0 C0.66 0.33 1.32 0.66 2 1 C2 5.62 2 10.24 2 15 C1.34 15 0.68 15 0 15 C0.3403125 16.1446875 0.3403125 16.1446875 0.6875 17.3125 C1 20 1 20 -0.1875 21.875 C-2 23 -2 23 -4.1875 22.6875 C-4.785625 22.460625 -5.38375 22.23375 -6 22 C-6 22.66 -6 23.32 -6 24 C-8.375 23.75 -8.375 23.75 -11 23 C-12.3125 20.9375 -12.3125 20.9375 -13 19 C-12.071875 18.62875 -11.14375 18.2575 -10.1875 17.875 C-6.37584953 15.63285266 -5.52608002 14.09632006 -4 10 C-3.29241674 6.7633037 -3.29241674 6.7633037 -3 4 C-1.68 4.99 -0.36 5.98 1 7 C1 6.01 1 5.02 1 4 C0.34 4 -0.32 4 -1 4 C-0.67 2.68 -0.34 1.36 0 0 Z " fill="#E1E2E3" transform="translate(311,70)"/>
<path d="M0 0 C39.83952909 12.88188169 39.83952909 12.88188169 58 19 C57.67 19.66 57.34 20.32 57 21 C49.84107783 19.56236093 43.08099217 17.46708625 36.18359375 15.0859375 C35.08652603 14.71143463 33.98945831 14.33693176 32.85914612 13.95108032 C29.38371056 12.76353774 25.91059121 11.56937928 22.4375 10.375 C20.0698118 9.56466475 17.70197471 8.7547644 15.33398438 7.9453125 C9.55425756 5.96856974 3.77641368 3.98640214 -2 2 C-1.34 1.34 -0.68 0.68 0 0 Z " fill="#1D1D1D" transform="translate(153,470)"/>
<path d="M0 0 C0.66 0.33 1.32 0.66 2 1 C2.19321394 6.42564598 2.37177954 11.85150879 2.53710938 17.27807617 C2.59531163 19.12195584 2.65743262 20.96571633 2.72363281 22.80932617 C2.81839581 25.46771528 2.89880262 28.12622192 2.9765625 30.78515625 C3.00875885 31.60210464 3.0409552 32.41905304 3.0741272 33.26075745 C3.2036709 38.27173165 2.62640395 42.25123352 1 47 C1.66 47.33 2.32 47.66 3 48 C2.125 52.875 2.125 52.875 1 54 C-0.66617115 54.04063832 -2.33388095 54.042721 -4 54 C-2.02 53.505 -2.02 53.505 0 53 C0 35.51 0 18.02 0 0 Z " fill="#E5E6E8" transform="translate(214,100)"/>
<path d="M0 0 C0.74958984 0.00451172 1.49917969 0.00902344 2.27148438 0.01367188 C4.11852383 0.02543646 5.96552213 0.04337135 7.8125 0.0625 C8.1425 0.7225 8.4725 1.3825 8.8125 2.0625 C4.3575 2.5575 4.3575 2.5575 -0.1875 3.0625 C-0.1875 3.7225 -0.1875 4.3825 -0.1875 5.0625 C-1.8890625 5.2790625 -1.8890625 5.2790625 -3.625 5.5 C-6.99527201 5.67421478 -6.99527201 5.67421478 -8.1875 7.0625 C-10.52047433 7.10342937 -12.85455225 7.10491723 -15.1875 7.0625 C-15.1875 7.7225 -15.1875 8.3825 -15.1875 9.0625 C-17.125 8.25 -17.125 8.25 -19.1875 7.0625 C-19.5175 6.0725 -19.8475 5.0825 -20.1875 4.0625 C-13.21322115 1.73774038 -7.42283963 -0.08427678 0 0 Z " fill="#D4D5D7" transform="translate(234.1875,24.9375)"/>
<path d="M0 0 C3.09891358 0.92129863 4.72788114 1.67158069 6.8125 4.1875 C8.33606813 7.79595083 8.4700639 10.10518485 8 14 C6.42459949 17.75316005 4.31493951 21.54982732 1 24 C0.01 24 -0.98 24 -2 24 C0 20 0 20 1.0546875 18.17578125 C2.16725188 15.61504422 2.26679131 13.72065988 2.25 10.9375 C2.25515625 10.08027344 2.2603125 9.22304688 2.265625 8.33984375 C2.14992488 5.72947202 2.14992488 5.72947202 0 3 C0 2.01 0 1.02 0 0 Z " fill="#C5C6C8" transform="translate(230,49)"/>
<path d="M0 0 C1.32 0.33 2.64 0.66 4 1 C3.64947365 4.15473719 3.13480924 5.8233534 1.1875 8.375 C-1 10 -1 10 -3.25 9.75 C-4.11625 9.37875 -4.11625 9.37875 -5 9 C-5.99 10.485 -5.99 10.485 -7 12 C-10.37503669 10.8141763 -12.64722731 9.72426311 -15 7 C-14.01 6.01 -13.02 5.02 -12 4 C-11.13375 4.5259375 -11.13375 4.5259375 -10.25 5.0625 C-8.09820927 6.14095683 -8.09820927 6.14095683 -6 5.9375 C-3.15179495 4.60240388 -1.8078171 2.51803096 0 0 Z M-9 9 C-8 11 -8 11 -8 11 Z M-4 10 C-2 11 -2 11 -2 11 Z " fill="#E2E3E4" transform="translate(236,66)"/>
<path d="M0 0 C1.98 0.66 3.96 1.32 6 2 C5.67402832 2.55268555 5.34805664 3.10537109 5.01220703 3.67480469 C3.83519041 6.378593 3.77050574 8.26349406 3.8046875 11.203125 C3.81113281 12.1828125 3.81757813 13.1625 3.82421875 14.171875 C3.84097656 15.18765625 3.85773438 16.2034375 3.875 17.25 C3.88853516 18.796875 3.88853516 18.796875 3.90234375 20.375 C3.92587989 22.91690287 3.95875977 25.4583328 4 28 C3.67 28 3.34 28 3 28 C2.67 30.64 2.34 33.28 2 36 C1.67 36 1.34 36 1 36 C1 26.43 1 16.86 1 7 C-0.32 7 -1.64 7 -3 7 C-2.690625 6.401875 -2.38125 5.80375 -2.0625 5.1875 C-0.89790296 2.91043228 -0.89790296 2.91043228 0 0 Z " fill="#DDDEDF" transform="translate(212,30)"/>
<path d="M0 0 C0.66 0.33 1.32 0.66 2 1 C-2.34717978 4.80929344 -7.08985292 7.35852819 -12.1875 10 C-13.03521973 10.44206787 -13.88293945 10.88413574 -14.75634766 11.33959961 C-29.87999307 19.1423094 -29.87999307 19.1423094 -37 20 C-37.66 19.34 -38.32 18.68 -39 18 C-38.04222656 17.6596875 -37.08445312 17.319375 -36.09765625 16.96875 C-28.54363412 14.23734134 -21.1504722 11.28515181 -13.875 7.875 C-13.17769775 7.55080078 -12.48039551 7.22660156 -11.76196289 6.89257812 C-7.58030016 4.89904763 -3.79401395 2.65935557 0 0 Z " fill="#151515" transform="translate(425,474)"/>
<path d="M0 0 C0.33 0.66 0.66 1.32 1 2 C-2.72236221 3.06710996 -6.45358251 4.09912465 -10.1875 5.125 C-11.77014648 5.57939453 -11.77014648 5.57939453 -13.38476562 6.04296875 C-14.40634766 6.32011719 -15.42792969 6.59726562 -16.48046875 6.8828125 C-17.41785889 7.14465332 -18.35524902 7.40649414 -19.32104492 7.67626953 C-22.47771416 8.05772797 -24.18486916 7.39751936 -27 6 C-23.72846146 3.8189743 -20.62034295 2.86933067 -16.875 1.875 C-15.87327759 1.60671387 -15.87327759 1.60671387 -14.85131836 1.33300781 C-9.7209748 0.03041786 -5.25554509 -0.36881018 0 0 Z " fill="#D5D6D8" transform="translate(317,40)"/>
<path d="M0 0 C0.33 0 0.66 0 1 0 C1 18.81 1 37.62 1 57 C0.34 56.67 -0.32 56.34 -1 56 C-0.67 37.52 -0.34 19.04 0 0 Z " fill="#CCCDD0" transform="translate(280,66)"/>
<path d="M0 0 C0.33 0 0.66 0 1 0 C1 18.48 1 36.96 1 56 C0.67 56 0.34 56 0 56 C0 37.52 0 19.04 0 0 Z " fill="#F2F2F3" transform="translate(99,145)"/>
<path d="M0 0 C0.99 0 1.98 0 3 0 C3.56337087 3.8309219 3.01128327 4.98370194 0.75 8.25 C-2.76 11.76 -2.76 11.76 -6 12 C-6.33 11.01 -6.66 10.02 -7 9 C-6.21625 8.2575 -5.4325 7.515 -4.625 6.75 C-2.43495469 4.45566682 -1.17268614 2.87841142 0 0 Z " fill="#5F6064" transform="translate(308,79)"/>
<path d="M0 0 C3.625 0.375 3.625 0.375 7 1 C5.07423885 3.43929746 3.19909405 5.80090595 1 8 C-1.475 7.01 -1.475 7.01 -4 6 C-2.84826645 3.53199953 -1.95216435 1.95216435 0 0 Z " fill="#F5F5F6" transform="translate(288,46)"/>
<path d="M0 0 C0.33 0 0.66 0 1 0 C1 13.86 1 27.72 1 42 C0.67 42 0.34 42 0 42 C0 28.14 0 14.28 0 0 Z " fill="#DDDEE0" transform="translate(248,33)"/>
<path d="M0 0 C0.33 0 0.66 0 1 0 C1 6.6 1 13.2 1 20 C1.66 20.33 2.32 20.66 3 21 C2.125 25.875 2.125 25.875 1 27 C-0.66617115 27.04063832 -2.33388095 27.042721 -4 27 C-2.68 26.67 -1.36 26.34 0 26 C0 17.42 0 8.84 0 0 Z " fill="#DDDDDF" transform="translate(214,127)"/>
<path d="M0 0 C0.66 0.33 1.32 0.66 2 1 C2 5.62 2 10.24 2 15 C0.68 15.33 -0.64 15.66 -2 16 C-1.34 13.69 -0.68 11.38 0 9 C-0.99 9 -1.98 9 -3 9 C-3 7.35 -3 5.7 -3 4 C-1.68 4.99 -0.36 5.98 1 7 C1 6.01 1 5.02 1 4 C0.34 4 -0.32 4 -1 4 C-0.67 2.68 -0.34 1.36 0 0 Z " fill="#CACBCD" transform="translate(311,70)"/>
<path d="M0 0 C5.28 1.65 10.56 3.3 16 5 C15.67 5.66 15.34 6.32 15 7 C9.07136283 5.83348574 3.61201606 4.24480642 -2 2 C-1.34 1.34 -0.68 0.68 0 0 Z " fill="#0E0E0E" transform="translate(213,490)"/>
<path d="M0 0 C1.98 0.66 3.96 1.32 6 2 C5.01 3.98 4.02 5.96 3 8 C0.03 7.505 0.03 7.505 -3 7 C-2.690625 6.401875 -2.38125 5.80375 -2.0625 5.1875 C-0.89790296 2.91043228 -0.89790296 2.91043228 0 0 Z " fill="#F7F7F8" transform="translate(212,30)"/>
<path d="M0 0 C0.99 0.33 1.98 0.66 3 1 C3 1.33 3 1.66 3 2 C4.65 2 6.3 2 8 2 C5.66340837 4.33659163 4.17338346 5.08324478 1 6 C-2.8125 5.625 -2.8125 5.625 -6 5 C-2.25 1.125 -2.25 1.125 0 0 Z " fill="#D1D2D4" transform="translate(300,168)"/>
<path d="M0 0 C0.99 0 1.98 0 3 0 C2.49942848 4.38000076 1.06806466 6.84169815 -2 10 C-2.99 10 -3.98 10 -5 10 C-3.33333333 6.66666667 -1.66666667 3.33333333 0 0 Z " fill="#4E4F51" transform="translate(233,63)"/>
<path d="M0 0 C1.66565749 0.15222973 3.33656496 0.24917215 5.0078125 0.31640625 C5.99394531 0.35830078 6.98007812 0.40019531 7.99609375 0.44335938 C9.54490234 0.50233398 9.54490234 0.50233398 11.125 0.5625 C12.68541016 0.62727539 12.68541016 0.62727539 14.27734375 0.69335938 C16.85142528 0.7996288 19.42560508 0.90166583 22 1 C22 1.33 22 1.66 22 2 C18.16668301 2.02929981 14.33339529 2.04689897 10.5 2.0625 C9.42234375 2.07087891 8.3446875 2.07925781 7.234375 2.08789062 C1.38671618 2.10571885 -4.21863671 1.89105963 -10 1 C-10 0.67 -10 0.34 -10 0 C-2.25 -1.125 -2.25 -1.125 0 0 Z " fill="#1C1C1C" transform="translate(296,511)"/>
<path d="M0 0 C2.125 0.375 2.125 0.375 4 1 C3.45276317 4.37462715 2.9451 6.08235 1 9 C0.34 8.67 -0.32 8.34 -1 8 C-1.75 5.0625 -1.75 5.0625 -2 2 C-1.34 1.34 -0.68 0.68 0 0 Z M-4 10 C-2 11 -2 11 -2 11 Z " fill="#DBDCDE" transform="translate(236,66)"/>
<path d="M0 0 C0.33 0 0.66 0 1 0 C1 9.9 1 19.8 1 30 C0.67 30 0.34 30 0 30 C0 20.1 0 10.2 0 0 Z " fill="#F2F2F3" transform="translate(100,417)"/>
<path d="M0 0 C1.65 0.99 3.3 1.98 5 3 C4.34 4.32 3.68 5.64 3 7 C0.5625 6.1875 0.5625 6.1875 -2 5 C-2.33 4.01 -2.66 3.02 -3 2 C-2.01 1.34 -1.02 0.68 0 0 Z " fill="#C0C1C4" transform="translate(224,70)"/>
<path d="M0 0 C0.33 0 0.66 0 1 0 C1 8.91 1 17.82 1 27 C0.67 27 0.34 27 0 27 C0 18.09 0 9.18 0 0 Z " fill="#EDEDEE" transform="translate(430,442)"/>
<path d="M0 0 C-1.65 1.65 -3.3 3.3 -5 5 C-5.99 4.67 -6.98 4.34 -8 4 C-8 3.34 -8 2.68 -8 2 C-4.77208445 -0.1519437 -3.71599191 -0.20086443 0 0 Z " fill="#838487" transform="translate(309,86)"/>
<path d="M0 0 C6.625 0.75 6.625 0.75 10 3 C6.18510326 4.46726798 3.70988378 3.43336419 0 2 C0 1.34 0 0.68 0 0 Z " fill="#141414" transform="translate(201,487)"/>
<path d="M0 0 C0.66 0.33 1.32 0.66 2 1 C-1.19990508 3.74277578 -4.00499382 5.6302836 -8 7 C-8 6.34 -8 5.68 -8 5 C-6.3203125 3.67578125 -6.3203125 3.67578125 -4.125 2.3125 C-3.40570313 1.85488281 -2.68640625 1.39726562 -1.9453125 0.92578125 C-1.30335938 0.62027344 -0.66140625 0.31476563 0 0 Z " fill="#222222" transform="translate(425,474)"/>
<path d="M0 0 C1.485 0.99 1.485 0.99 3 2 C3 2.66 3 3.32 3 4 C3.99 4 4.98 4 6 4 C6 4.66 6 5.32 6 6 C3.625 5.75 3.625 5.75 1 5 C-0.3125 2.9375 -0.3125 2.9375 -1 1 C-0.67 0.67 -0.34 0.34 0 0 Z " fill="#CFD0D2" transform="translate(299,88)"/>
<path d="M0 0 C2.49361571 1.20381448 4.68143083 2.45428722 7 4 C7 4.66 7 5.32 7 6 C2.32307692 4.52307692 2.32307692 4.52307692 0.6875 1.875 C0.460625 1.25625 0.23375 0.6375 0 0 Z " fill="#1E1E1E" transform="translate(103,450)"/>
<path d="M0 0 C0.99 0.33 1.98 0.66 3 1 C1.6875 3 1.6875 3 0 5 C-0.99 5 -1.98 5 -3 5 C-1.125 1.125 -1.125 1.125 0 0 Z " fill="#5C5D61" transform="translate(231,68)"/>
<path d="M0 0 C0.33 0 0.66 0 1 0 C1 4.29 1 8.58 1 13 C0.67 13 0.34 13 0 13 C0 8.71 0 4.42 0 0 Z " fill="#F0F0F1" transform="translate(98,203)"/>
<path d="M0 0 C3.3 0 6.6 0 10 0 C10 0.33 10 0.66 10 1 C6.7 1 3.4 1 0 1 C0 0.67 0 0.34 0 0 Z " fill="#000000" transform="translate(316,526)"/>
<path d="M0 0 C0.33 0 0.66 0 1 0 C1 3.3 1 6.6 1 10 C0.67 10 0.34 10 0 10 C0 6.7 0 3.4 0 0 Z " fill="#BFC0C3" transform="translate(306,70)"/>
<path d="M0 0 C0.33 0 0.66 0 1 0 C1 3.3 1 6.6 1 10 C0.67 10 0.34 10 0 10 C0 6.7 0 3.4 0 0 Z " fill="#A6A7AA" transform="translate(231,55)"/>
<path d="M0 0 C2.64 0 5.28 0 8 0 C8 0.33 8 0.66 8 1 C5.36 1 2.72 1 0 1 C0 0.67 0 0.34 0 0 Z " fill="#D0D1D4" transform="translate(234,23)"/>
<path d="M0 0 C1.32 0.99 2.64 1.98 4 3 C2.68 2.67 1.36 2.34 0 2 C0 1.34 0 0.68 0 0 Z " fill="#000000" transform="translate(111,468)"/>
<path d="M0 0 C1.65 0 3.3 0 5 0 C5 0.33 5 0.66 5 1 C3.35 1 1.7 1 0 1 C0 0.67 0 0.34 0 0 Z " fill="#000000" transform="translate(288,525)"/>
<path d="M0 0 C1.65 0 3.3 0 5 0 C5 0.33 5 0.66 5 1 C3.35 1 1.7 1 0 1 C0 0.67 0 0.34 0 0 Z " fill="#F5F5F5" transform="translate(326,133)"/>
<path d="M0 0 C0 0.99 0 1.98 0 3 C-0.66 2.67 -1.32 2.34 -2 2 C-1.34 1.34 -0.68 0.68 0 0 Z " fill="#707175" transform="translate(304,83)"/>
<path d="M0 0 C0.99 0.33 1.98 0.66 3 1 C2.01 1.33 1.02 1.66 0 2 C0 1.34 0 0.68 0 0 Z " fill="#000000" transform="translate(374,514)"/>
<path d="M0 0 C4 1 4 1 4 1 Z " fill="#000000" transform="translate(235,512)"/>
<path d="M0 0 C0.66 0.66 1.32 1.32 2 2 C1.01 1.67 0.02 1.34 -1 1 C-0.67 0.67 -0.34 0.34 0 0 Z " fill="#000000" transform="translate(424,493)"/>
<path d="M0 0 C4 1 4 1 4 1 Z " fill="#F9F9F9" transform="translate(381,146)"/>
<path d="M0 0 C4 1 4 1 4 1 Z " fill="#F7F7F8" transform="translate(377,145)"/>
<path d="M0 0 C4 1 4 1 4 1 Z " fill="#F7F7F7" transform="translate(373,144)"/>
<path d="M0 0 C4 1 4 1 4 1 Z " fill="#F6F6F7" transform="translate(369,143)"/>
<path d="M0 0 C4 1 4 1 4 1 Z " fill="#F5F5F7" transform="translate(352,139)"/>
<path d="M0 0 C4 1 4 1 4 1 Z " fill="#F6F6F6" transform="translate(348,138)"/>
<path d="M0 0 C4 1 4 1 4 1 Z " fill="#F6F6F6" transform="translate(335,135)"/>
<path d="M0 0 C4 1 4 1 4 1 Z " fill="#F7F7F8" transform="translate(331,134)"/>
<path d="M0 0 C0.99 0 1.98 0 3 0 C2.67 0.66 2.34 1.32 2 2 C1.34 1.34 0.68 0.68 0 0 Z " fill="#D5D6D8" transform="translate(303,68)"/>
<path d="M0 0 C4 1 4 1 4 1 Z " fill="#D4D5D7" transform="translate(230,24)"/>
<path d="M0 0 C3 1 3 1 3 1 Z " fill="#000000" transform="translate(365,517)"/>
<path d="M0 0 C3 1 3 1 3 1 Z " fill="#000000" transform="translate(242,514)"/>
<path d="M0 0 C3 1 3 1 3 1 Z " fill="#000000" transform="translate(239,513)"/>
<path d="M0 0 C3 1 3 1 3 1 Z " fill="#000000" transform="translate(193,499)"/>
<path d="M0 0 C3 1 3 1 3 1 Z " fill="#000000" transform="translate(175,493)"/>
<path d="" fill="#F4F5F7" transform="translate(0,0)"/>
<path d="M0 0 C3 1 3 1 3 1 Z " fill="#F9F9F9" transform="translate(398,150)"/>
<path d="M0 0 C3 1 3 1 3 1 Z " fill="#F6F6F7" transform="translate(112,135)"/>
<path d="M0 0 C3 1 3 1 3 1 Z " fill="#F7F7F8" transform="translate(115,134)"/>
<path d="M0 0 C3 1 3 1 3 1 Z " fill="#F8F8F9" transform="translate(118,133)"/>
<path d="M0 0 C3 1 3 1 3 1 Z " fill="#F8F8F9" transform="translate(323,132)"/>
<path d="M0 0 C3 1 3 1 3 1 Z " fill="#F7F7F8" transform="translate(121,132)"/>
<path d="M0 0 C3 1 3 1 3 1 Z " fill="#F7F7F8" transform="translate(124,131)"/>
<path d="M0 0 C3 1 3 1 3 1 Z " fill="#F7F7F8" transform="translate(127,130)"/>
<path d="M0 0 C3 1 3 1 3 1 Z " fill="#F9F9F9" transform="translate(134,128)"/>
<path d="M0 0 C3 1 3 1 3 1 Z " fill="#F6F6F7" transform="translate(137,127)"/>
<path d="" fill="#606164" transform="translate(0,0)"/>
<path d="M0 0 C3 1 3 1 3 1 Z " fill="#D7D8DA" transform="translate(227,52)"/>
<path d="M0 0 C2 1 2 1 2 1 Z " fill="#000000" transform="translate(277,523)"/>
<path d="M0 0 C2 1 2 1 2 1 Z " fill="#000000" transform="translate(359,519)"/>
<path d="M0 0 C2 1 2 1 2 1 Z " fill="#000000" transform="translate(362,518)"/>
<path d="M0 0 C2 1 2 1 2 1 Z " fill="#000000" transform="translate(369,516)"/>
<path d="M0 0 C2 1 2 1 2 1 Z " fill="#000000" transform="translate(249,516)"/>
<path d="M0 0 C2 1 2 1 2 1 Z " fill="#000000" transform="translate(377,513)"/>
<path d="M0 0 C2 1 2 1 2 1 Z " fill="#000000" transform="translate(233,511)"/>
<path d="M0 0 C2 1 2 1 2 1 Z " fill="#000000" transform="translate(202,502)"/>
<path d="M0 0 C2 1 2 1 2 1 Z " fill="#000000" transform="translate(197,500)"/>
<path d="M0 0 C2 1 2 1 2 1 Z " fill="#000000" transform="translate(414,499)"/>
<path d="M0 0 C2 1 2 1 2 1 Z " fill="#000000" transform="translate(416,498)"/>
<path d="M0 0 C2 1 2 1 2 1 Z " fill="#000000" transform="translate(191,498)"/>
<path d="M0 0 C2 1 2 1 2 1 Z " fill="#000000" transform="translate(418,497)"/>
<path d="M0 0 C2 1 2 1 2 1 Z " fill="#000000" transform="translate(188,497)"/>
<path d="M0 0 C2 1 2 1 2 1 Z " fill="#000000" transform="translate(185,496)"/>
<path d="M0 0 C2 1 2 1 2 1 Z " fill="#000000" transform="translate(173,492)"/>
<path d="M0 0 C2 1 2 1 2 1 Z " fill="#000000" transform="translate(170,491)"/>
<path d="" fill="#000000" transform="translate(0,0)"/>
<path d="M0 0 C2 1 2 1 2 1 Z " fill="#000000" transform="translate(147,483)"/>
<path d="M0 0 C2 1 2 1 2 1 Z " fill="#000000" transform="translate(126,476)"/>
<path d="M0 0 C2 1 2 1 2 1 Z " fill="#000000" transform="translate(124,475)"/>
<path d="M0 0 C2 1 2 1 2 1 Z " fill="#000000" transform="translate(121,474)"/>
<path d="M0 0 C2 1 2 1 2 1 Z " fill="#000000" transform="translate(119,473)"/>
<path d="M0 0 C2 1 2 1 2 1 Z " fill="#000000" transform="translate(117,472)"/>
<path d="M0 0 C2 1 2 1 2 1 Z " fill="#000000" transform="translate(115,471)"/>
<path d="" fill="#000000" transform="translate(0,0)"/>
<path d="" fill="#FDFDFD" transform="translate(0,0)"/>
<path d="" fill="#F7F7F7" transform="translate(0,0)"/>
<path d="M0 0 C2 1 2 1 2 1 Z " fill="#F9F9FA" transform="translate(402,151)"/>
<path d="M0 0 C2 1 2 1 2 1 Z " fill="#F6F6F7" transform="translate(108,137)"/>
<path d="M0 0 C2 1 2 1 2 1 Z " fill="#F6F6F7" transform="translate(110,136)"/>
<path d="M0 0 C2 1 2 1 2 1 Z " fill="#F7F7F8" transform="translate(131,129)"/>
<path d="M0 0 C2 1 2 1 2 1 Z " fill="#F6F6F7" transform="translate(141,126)"/>
<path d="M0 0 C2 1 2 1 2 1 Z " fill="#F4F4F5" transform="translate(144,125)"/>
<path d="M0 0 C2 1 2 1 2 1 Z " fill="#F7F7F8" transform="translate(148,124)"/>
<path d="M0 0 C2 1 2 1 2 1 Z " fill="#F5F5F6" transform="translate(151,123)"/>
<path d="M0 0 C2 1 2 1 2 1 Z " fill="#F8F8F8" transform="translate(155,122)"/>
<path d="" fill="#D8D9DB" transform="translate(0,0)"/>
<path d="" fill="#4B4C4F" transform="translate(0,0)"/>
<path d="" fill="#4C4D50" transform="translate(0,0)"/>
<path d="" fill="#CBCCCF" transform="translate(0,0)"/>
<path d="M0 0 C2 1 2 1 2 1 Z " fill="#C7C8CA" transform="translate(242,24)"/>
<path d="" fill="#000000" transform="translate(0,0)"/>
<path d="" fill="#000000" transform="translate(0,0)"/>
<path d="" fill="#000000" transform="translate(0,0)"/>
<path d="" fill="#000000" transform="translate(0,0)"/>
<path d="" fill="#000000" transform="translate(0,0)"/>
<path d="" fill="#000000" transform="translate(0,0)"/>
<path d="" fill="#000000" transform="translate(0,0)"/>
<path d="" fill="#000000" transform="translate(0,0)"/>
<path d="" fill="#000000" transform="translate(0,0)"/>
<path d="" fill="#000000" transform="translate(0,0)"/>
<path d="" fill="#000000" transform="translate(0,0)"/>
<path d="" fill="#000000" transform="translate(0,0)"/>
<path d="" fill="#000000" transform="translate(0,0)"/>
<path d="" fill="#000000" transform="translate(0,0)"/>
<path d="" fill="#000000" transform="translate(0,0)"/>
<path d="" fill="#000000" transform="translate(0,0)"/>
<path d="" fill="#000000" transform="translate(0,0)"/>
<path d="" fill="#000000" transform="translate(0,0)"/>
<path d="" fill="#000000" transform="translate(0,0)"/>
<path d="" fill="#E8E8E9" transform="translate(0,0)"/>
<path d="" fill="#000000" transform="translate(0,0)"/>
<path d="" fill="#000000" transform="translate(0,0)"/>
<path d="" fill="#000000" transform="translate(0,0)"/>
<path d="" fill="#000000" transform="translate(0,0)"/>
<path d="" fill="#FFFFFF" transform="translate(0,0)"/>
<path d="" fill="#F5F5F7" transform="translate(0,0)"/>
<path d="" fill="#FDFCFD" transform="translate(0,0)"/>
<path d="" fill="#F9F9F9" transform="translate(0,0)"/>
<path d="" fill="#FAFAF9" transform="translate(0,0)"/>
<path d="" fill="#FFFFFB" transform="translate(0,0)"/>
<path d="" fill="#F9F9F9" transform="translate(0,0)"/>
<path d="" fill="#F7F7F7" transform="translate(0,0)"/>
<path d="" fill="#D4D5D8" transform="translate(0,0)"/>
<path d="" fill="#97989C" transform="translate(0,0)"/>
<path d="" fill="#DCDDDF" transform="translate(0,0)"/>
<path d="" fill="#DCDDDF" transform="translate(0,0)"/>
<path d="" fill="#6E6F73" transform="translate(0,0)"/>
<path d="" fill="#DCDDDF" transform="translate(0,0)"/>
<path d="" fill="#5E5F63" transform="translate(0,0)"/>
<path d="" fill="#DDDEE0" transform="translate(0,0)"/>
<path d="" fill="#DDDEE0" transform="translate(0,0)"/>
<path d="" fill="#F7F7F8" transform="translate(0,0)"/>
<path d="" fill="#BABBBE" transform="translate(0,0)"/>
<path d="" fill="#BEBFC2" transform="translate(0,0)"/>
</svg>
