<?xml version="1.0" encoding="UTF-8"?>
<svg version="1.1" xmlns="http://www.w3.org/2000/svg" width="532" height="582">
<path d="M0 0 C13.89211888 11.842462 22.59140158 26.82261418 24.625 45.125 C25.87270571 61.79516644 21.77750515 79.25430621 11.04296875 92.41796875 C0.83742473 104.22140524 -12.60958364 114.47026224 -28.375 117.125 C-31.345 117.125 -34.315 117.125 -37.375 117.125 C-37.375 194.015 -37.375 270.905 -37.375 350.125 C17.405 350.125 72.185 350.125 128.625 350.125 C128.625 350.785 128.625 351.445 128.625 352.125 C16.425 352.125 -95.775 352.125 -211.375 352.125 C-211.375 351.465 -211.375 350.805 -211.375 350.125 C-156.595 350.125 -101.815 350.125 -45.375 350.125 C-45.705 341.215 -46.035 332.305 -46.375 323.125 C-46.45455782 315.82814157 -46.50331072 308.53779565 -46.48852539 301.24145508 C-46.48824198 299.2177938 -46.48840423 297.19413241 -46.4889679 295.17047119 C-46.4892499 289.77760456 -46.48345174 284.38476107 -46.47639394 278.99189973 C-46.47005905 273.31855025 -46.46954871 267.6452 -46.46836853 261.97184753 C-46.46528465 251.27357799 -46.45711176 240.5753189 -46.44701904 229.87705392 C-46.43576545 217.67835416 -46.43032437 205.47965386 -46.42532361 193.28095019 C-46.41492602 168.22896104 -46.39738478 143.17698111 -46.375 118.125 C-47.19914902 117.99272507 -48.02329803 117.86045013 -48.87242126 117.72416687 C-49.95342606 117.54795303 -51.03443085 117.3717392 -52.14819336 117.19018555 C-53.21984238 117.01666061 -54.29149139 116.84313568 -55.39561462 116.66435242 C-71.43230311 113.76126148 -86.13012453 103.54322777 -95.61572266 90.40673828 C-105.61451738 75.27102574 -110.19842953 57.087901 -106.69140625 39.1015625 C-102.42613308 21.93428046 -92.97012695 5.50585825 -77.55957031 -3.99414062 C-52.43852199 -18.30248835 -23.35308322 -17.94462377 0 0 Z " fill="#E4E4E6" transform="translate(307.375,204.875)"/>
<path d="M0 0 C13.89211888 11.842462 22.59140158 26.82261418 24.625 45.125 C25.87270571 61.79516644 21.77750515 79.25430621 11.04296875 92.41796875 C0.83742473 104.22140524 -12.60958364 114.47026224 -28.375 117.125 C-31.345 117.125 -34.315 117.125 -37.375 117.125 C-37.375 194.015 -37.375 270.905 -37.375 350.125 C17.405 350.125 72.185 350.125 128.625 350.125 C128.625 350.785 128.625 351.445 128.625 352.125 C16.425 352.125 -95.775 352.125 -211.375 352.125 C-211.375 351.465 -211.375 350.805 -211.375 350.125 C-156.595 350.125 -101.815 350.125 -45.375 350.125 C-45.705 341.215 -46.035 332.305 -46.375 323.125 C-46.45455782 315.82814157 -46.50331072 308.53779565 -46.48852539 301.24145508 C-46.48824198 299.2177938 -46.48840423 297.19413241 -46.4889679 295.17047119 C-46.4892499 289.77760456 -46.48345174 284.38476107 -46.47639394 278.99189973 C-46.47005905 273.31855025 -46.46954871 267.6452 -46.46836853 261.97184753 C-46.46528465 251.27357799 -46.45711176 240.5753189 -46.44701904 229.87705392 C-46.43576545 217.67835416 -46.43032437 205.47965386 -46.42532361 193.28095019 C-46.41492602 168.22896104 -46.39738478 143.17698111 -46.375 118.125 C-47.19914902 117.99272507 -48.02329803 117.86045013 -48.87242126 117.72416687 C-49.95342606 117.54795303 -51.03443085 117.3717392 -52.14819336 117.19018555 C-53.21984238 117.01666061 -54.29149139 116.84313568 -55.39561462 116.66435242 C-71.43230311 113.76126148 -86.13012453 103.54322777 -95.61572266 90.40673828 C-105.61451738 75.27102574 -110.19842953 57.087901 -106.69140625 39.1015625 C-102.42613308 21.93428046 -92.97012695 5.50585825 -77.55957031 -3.99414062 C-52.43852199 -18.30248835 -23.35308322 -17.94462377 0 0 Z M-78.375 9.125 C-79.12523437 9.74761719 -79.87546875 10.37023437 -80.6484375 11.01171875 C-89.7411303 19.15790258 -96.37017892 31.90091479 -97.57446289 44.15454102 C-97.67727185 46.23326382 -97.70433958 48.29386827 -97.6875 50.375 C-97.68186035 51.11516357 -97.6762207 51.85532715 -97.67041016 52.61791992 C-97.31642619 68.79078162 -90.80109047 81.85543131 -79.375 93.125 C-78.40046875 94.115 -78.40046875 94.115 -77.40625 95.125 C-68.33370176 103.75135734 -56.41496092 107.53975629 -44.0625 107.375 C-42.95056274 107.36484863 -42.95056274 107.36484863 -41.81616211 107.35449219 C-24.84679259 107.03720427 -11.15736691 101.37595968 0.8125 89.125 C12.22683787 75.6160723 15.55520706 60.27116776 14.41796875 42.9765625 C12.5640145 27.77821227 3.75401967 15.8854878 -7.75 6.3125 C-29.18125262 -9.44577398 -58.50224897 -8.61594683 -78.375 9.125 Z " fill="#C0C1C3" transform="translate(307.375,204.875)"/>
<path d="M0 0 C1.65 0 3.3 0 5 0 C6.04840591 5.14888226 6.13791944 10.0745076 6.12025452 15.30136108 C6.12110894 16.22937047 6.12196337 17.15737985 6.12284368 18.11351073 C6.12448869 21.21810892 6.11899312 24.32265289 6.11352539 27.42724609 C6.11324328 29.65470376 6.11340172 31.88216153 6.1139679 34.10961914 C6.11425494 40.15453374 6.10837309 46.19942852 6.10139394 52.24433851 C6.09514507 58.56243763 6.09455538 64.88053719 6.09336853 71.19863892 C6.09061301 81.80251448 6.08436567 92.40638221 6.07543945 103.01025391 C6.06625621 113.93082645 6.05917984 124.85139703 6.05493164 135.77197266 C6.05466892 136.44545732 6.05440619 137.11894198 6.05413551 137.81283526 C6.05283044 141.19161155 6.05156674 144.57038784 6.05032361 147.94916415 C6.03996198 175.96611449 6.02227876 203.98305679 6 232 C4.02 232 2.04 232 0 232 C0 155.44 0 78.88 0 0 Z " fill="#E9E9EB" transform="translate(263,323)"/>
<path d="M0 0 C0.66 0 1.32 0 2 0 C2 76.89 2 153.78 2 233 C3.98 233 5.96 233 8 233 C7.67 156.44 7.34 79.88 7 1 C7.66 1 8.32 1 9 1 C9 77.56 9 154.12 9 233 C63.78 233 118.56 233 175 233 C175 233.66 175 234.32 175 235 C62.8 235 -49.4 235 -165 235 C-165 234.34 -165 233.68 -165 233 C-110.22 233 -55.44 233 1 233 C0.67 224.09 0.34 215.18 0 206 C-0.07961727 198.67255436 -0.12829671 191.35159058 -0.11352539 184.0246582 C-0.11324199 181.99114483 -0.11340421 179.95763136 -0.1139679 177.92411804 C-0.11424993 172.50439281 -0.10845125 167.0846906 -0.10139394 161.66497064 C-0.09505958 155.96359394 -0.09454875 150.26221647 -0.09336853 144.56083679 C-0.0902845 133.80944332 -0.08211139 123.05806025 -0.07201904 112.30667132 C-0.06076593 100.04751322 -0.05532449 87.78835457 -0.05032361 75.52919257 C-0.03992567 50.35278932 -0.02238413 25.17639525 0 0 Z " fill="#D2D2D5" transform="translate(261,322)"/>
<path d="M0 0 C3.59344718 3.03696607 6.61711425 6.17698567 9.4375 9.9375 C7.9525 10.4325 7.9525 10.4325 6.4375 10.9375 C5.57125 9.968125 4.705 8.99875 3.8125 8 C-9.55254871 -5.28404841 -25.75191275 -10.33381851 -44.24243164 -10.30908203 C-60.97306513 -10.07526634 -73.72608121 -3.6716926 -85.5625 7.9375 C-86.50029297 8.71480469 -86.50029297 8.71480469 -87.45703125 9.5078125 C-96.29449277 17.12837751 -102.36951947 31.53654178 -103.5625 42.9375 C-103.70209304 47.96558647 -103.67810054 52.98991404 -103.54101562 58.01782227 C-103.51845703 58.98131592 -103.49589844 59.94480957 -103.47265625 60.9375 C-103.44308838 61.80375 -103.41352051 62.67 -103.38305664 63.5625 C-103.57818931 66.14515382 -104.2575355 67.72293712 -105.5625 69.9375 C-110.38781727 52.40264171 -107.79433332 34.64611914 -99.25 18.7109375 C-89.6068935 2.86231339 -75.47758888 -7.70792632 -57.8125 -13.0625 C-37.17477232 -17.40431703 -16.65735661 -12.91997051 0 0 Z " fill="#E2E3E5" transform="translate(307.5625,205.0625)"/>
<path d="M0 0 C2.31 0 4.62 0 7 0 C7 0.33 7 0.66 7 1 C5.02 1 3.04 1 1 1 C1 76.57 1 152.14 1 230 C54.79 230 108.58 230 164 230 C164 230.33 164 230.66 164 231 C109.88 231 55.76 231 0 231 C0 154.77 0 78.54 0 0 Z " fill="#D2D2D6" transform="translate(271,323)"/>
<path d="M0 0 C4.62239992 3.58527898 8.55703126 7.29739585 12.06640625 11.9765625 C10.58140625 12.4715625 10.58140625 12.4715625 9.06640625 12.9765625 C8.20015625 12.0071875 7.33390625 11.0378125 6.44140625 10.0390625 C-3.62149319 0.03715033 -15.97710529 -5.88891574 -29.93359375 -8.0234375 C-29.93359375 -8.3534375 -29.93359375 -8.6834375 -29.93359375 -9.0234375 C-41.66579793 -12.0511031 -53.45374792 -8.79560443 -64.5 -4.73046875 C-66.93359375 -4.0234375 -66.93359375 -4.0234375 -68.93359375 -5.0234375 C-46.9595976 -17.27816612 -20.32234587 -14.01727718 0 0 Z " fill="#D6D7D9" transform="translate(304.93359375,203.0234375)"/>
<path d="M0 0 C0.33 0 0.66 0 1 0 C1.72453255 19.05923112 -1.05845763 34.63341382 -14.3125 49.25 C-19.65972761 54.96789082 -25.50211158 59.66807439 -32 64 C-33.32 64 -34.64 64 -36 64 C-36 63.34 -36 62.68 -36 62 C-34.1640625 60.80859375 -34.1640625 60.80859375 -31.625 59.4375 C-17.14222143 50.95677818 -7.8186679 37.87209306 -3.0625 21.83984375 C-1.26774134 14.60040858 -0.3888119 7.44105525 0 0 Z " fill="#A3A4A6" transform="translate(330,251)"/>
<path d="M0 0 C0 0.66 0 1.32 0 2 C-54.12 2 -108.24 2 -164 2 C-164 1.67 -164 1.34 -164 1 C-142.91236479 0.86954134 -121.82472914 0.73915288 -100.73709297 0.60884857 C-90.94631047 0.54834792 -81.15552812 0.48782406 -71.36474609 0.42724609 C-62.83366959 0.37446229 -54.30259282 0.32172151 -45.77151573 0.26903296 C-41.25207683 0.24111905 -36.73263806 0.21318323 -32.21319962 0.18519592 C-27.96321647 0.15887794 -23.71323298 0.13261729 -19.46324921 0.10640144 C-17.89990857 0.09674778 -16.33656806 0.08707281 -14.77322769 0.07737541 C-12.64570398 0.0641815 -10.51817982 0.0510629 -8.39065552 0.03796387 C-6.60145534 0.02690235 -6.60145534 0.02690235 -4.7761097 0.01561737 C-3.18408981 0.00666125 -1.59204508 0 0 0 Z " fill="#D1D1D7" transform="translate(261,552)"/>
<path d="M0 0 C2.38779861 0.84728338 4.61965787 1.76291449 6.7734375 3.10546875 C20.25603039 11.4998034 37.44215601 13.11469526 52.8125 10 C53.54082031 9.814375 54.26914062 9.62875 55.01953125 9.4375 C57 9 57 9 61 9 C61 9.66 61 10.32 61 11 C45.31355496 17.44264707 27.43470548 15.80797579 12 9.43359375 C7.73596444 7.39596217 3.56180529 5.13843826 0 2 C0 1.34 0 0.68 0 0 Z " fill="#9A9B9D" transform="translate(227,308)"/>
<path d="M0 0 C0 0.33 0 0.66 0 1 C-0.57331055 1.01458252 -1.14662109 1.02916504 -1.73730469 1.04418945 C-19.03223453 1.53501027 -34.86772829 2.80084129 -49 14 C-49.66 13.67 -50.32 13.34 -51 13 C-50.4946875 12.66226563 -49.989375 12.32453125 -49.46875 11.9765625 C-48.8190625 11.53054687 -48.169375 11.08453125 -47.5 10.625 C-46.8503125 10.18414062 -46.200625 9.74328125 -45.53125 9.2890625 C-44.77328125 8.65097656 -44.77328125 8.65097656 -44 8 C-44 7.34 -44 6.68 -44 6 C-29.22382478 1.46147959 -15.54257039 -2.6455439 0 0 Z " fill="#E5E6E8" transform="translate(277,193)"/>
<path d="M0 0 C2.38779861 0.84728338 4.61965787 1.76291449 6.7734375 3.10546875 C14.00747416 7.60941878 21.77276745 9.19303727 30 11 C30 11.99 30 12.98 30 14 C19.34317988 13.37312823 8.07044557 9.1111678 0 2 C0 1.34 0 0.68 0 0 Z " fill="#ABACAE" transform="translate(227,308)"/>
<path d="M0 0 C1.13756834 3.41270502 0.6965125 5.51743748 0 9 C-0.12873372 12.10488268 -0.09437813 15.20560809 -0.0625 18.3125 C-0.05798828 19.14845703 -0.05347656 19.98441406 -0.04882812 20.84570312 C-0.03710548 22.89716649 -0.01917203 24.94859273 0 27 C0.33 27 0.66 27 1 27 C1.16702456 31.34263862 1.12999997 34.20960634 -1 38 C-4.41209785 25.60068015 -4.39623971 12.11582728 0 0 Z " fill="#D6D7D9" transform="translate(203,237)"/>
<path d="M0 0 C1.94408722 2.91613083 3.21466387 5.64824006 4.5625 8.875 C4.99691406 9.90367187 5.43132812 10.93234375 5.87890625 11.9921875 C6.88048887 14.67936037 7.53649685 17.1773179 8 20 C4.83664574 17.12114441 2.96970586 14.44458588 1.1875 10.5625 C0.52814453 9.17224609 0.52814453 9.17224609 -0.14453125 7.75390625 C-1.09499901 4.69418128 -0.89805501 3.03575652 0 0 Z " fill="#CCCDCF" transform="translate(211,270)"/>
<path d="M0 0 C0.66 0.33 1.32 0.66 2 1 C-0.45023758 3.50804718 -2.91147598 6.0050076 -5.375 8.5 C-6.42300781 9.57314453 -6.42300781 9.57314453 -7.4921875 10.66796875 C-8.1625 11.34472656 -8.8328125 12.02148438 -9.5234375 12.71875 C-10.14138184 13.34716797 -10.75932617 13.97558594 -11.39599609 14.62304688 C-13 16 -13 16 -15 16 C-13.42529581 12.17444746 -10.99021491 9.75542436 -8.0625 6.875 C-7.18722656 6.00617188 -6.31195313 5.13734375 -5.41015625 4.2421875 C-3 2 -3 2 0 0 Z " fill="#EFEFF1" transform="translate(235,209)"/>
<path d="M0 0 C3.40045734 1.2066139 6.56683354 2.75199559 9.75 4.4375 C10.52859375 4.84871094 11.3071875 5.25992187 12.109375 5.68359375 C14 7 14 7 15 10 C9.33822218 8.5482621 4.50540116 5.68441695 0 2 C0 1.34 0 0.68 0 0 Z " fill="#B3B4B6" transform="translate(227,308)"/>
<path d="M0 0 C0 0.66 0 1.32 0 2 C-1.4117783 2.53394179 -2.82970244 3.05165104 -4.25 3.5625 C-5.03890625 3.85253906 -5.8278125 4.14257812 -6.640625 4.44140625 C-9.21966433 5.05200662 -10.55747753 4.98889737 -13 4 C-13.33 3.34 -13.66 2.68 -14 2 C-12.4176994 1.66179834 -10.83410625 1.32964061 -9.25 1 C-8.36828125 0.814375 -7.4865625 0.62875 -6.578125 0.4375 C-4 0 -4 0 0 0 Z " fill="#A8A9AB" transform="translate(288,317)"/>
<path d="M0 0 C4.25171681 3.3618226 7.6381774 6.74828319 11 11 C8 11 8 11 5.95703125 9.35546875 C5.24933594 8.64003906 4.54164063 7.92460937 3.8125 7.1875 C2.73935547 6.12595703 2.73935547 6.12595703 1.64453125 5.04296875 C0 3 0 3 0 0 Z " fill="#AFB0B2" transform="translate(214,295)"/>
<path d="M0 0 C1.485 0.99 1.485 0.99 3 2 C3.39259107 6.23998354 3.32490278 9.36733941 1 13 C0.1276588 10.00519083 -0.10829766 7.36424089 -0.0625 4.25 C-0.05347656 3.45078125 -0.04445312 2.6515625 -0.03515625 1.828125 C-0.02355469 1.22484375 -0.01195312 0.6215625 0 0 Z " fill="#D0D1D3" transform="translate(201,262)"/>
<path d="M0 0 C3.82932166 3.33916849 3.82932166 3.33916849 4.609375 6.359375 C4.65578125 7.14828125 4.7021875 7.9371875 4.75 8.75 C4.80671875 9.54921875 4.8634375 10.3484375 4.921875 11.171875 C4.94765625 11.77515625 4.9734375 12.3784375 5 13 C4.34 12.67 3.68 12.34 3 12 C2.1484375 9.27734375 2.1484375 9.27734375 1.375 5.9375 C0.98441406 4.28041016 0.98441406 4.28041016 0.5859375 2.58984375 C0.39257812 1.73519531 0.19921875 0.88054687 0 0 Z " fill="#B6B7B9" transform="translate(324,229)"/>
<path d="M0 0 C0.99 0.66 1.98 1.32 3 2 C-2.5 6 -2.5 6 -7 6 C-7 5.34 -7 4.68 -7 4 C-4.69 2.68 -2.38 1.36 0 0 Z " fill="#A8A9AB" transform="translate(301,309)"/>
<path d="M0 0 C1.12894876 0.93274109 2.25300876 1.87140122 3.375 2.8125 C4.00148437 3.33457031 4.62796875 3.85664063 5.2734375 4.39453125 C7 6 7 6 9 9 C6 9 6 9 4.39453125 7.5390625 C3.61142578 6.59160156 3.61142578 6.59160156 2.8125 5.625 C2.28269531 4.99851562 1.75289062 4.37203125 1.20703125 3.7265625 C0 2 0 2 0 0 Z " fill="#B3B3B5" transform="translate(221,291)"/>
<path d="M0 0 C0.66 1.32 1.32 2.64 2 4 C0.68 5.65 -0.64 7.3 -2 9 C-3 6 -3 6 -1.5625 2.8125 C-1.046875 1.884375 -0.53125 0.95625 0 0 Z " fill="#AAABAD" transform="translate(322,285)"/>
<path d="M0 0 C0.99 0.33 1.98 0.66 3 1 C2.34 1.66 1.68 2.32 1 3 C0.01 2.67 -0.98 2.34 -2 2 C-1.34 1.34 -0.68 0.68 0 0 Z " fill="#DDDEDF" transform="translate(215,215)"/>
<path d="M0 0 C5.94 0 11.88 0 18 0 C18 0.33 18 0.66 18 1 C12.06 1 6.12 1 0 1 C0 0.67 0 0.34 0 0 Z " fill="#CECFD1" transform="translate(257,189)"/>
<path d="M0 0 C0.33 0 0.66 0 1 0 C1 4.95 1 9.9 1 15 C0.67 15 0.34 15 0 15 C0 10.05 0 5.1 0 0 Z " fill="#DBDCDE" transform="translate(198,249)"/>
<path d="M0 0 C0.33 0 0.66 0 1 0 C1 3.96 1 7.92 1 12 C0.67 12 0.34 12 0 12 C0 8.04 0 4.08 0 0 Z " fill="#C0C1C3" transform="translate(333,251)"/>
<path d="M0 0 C2.31 0 4.62 0 7 0 C6.67 0.66 6.34 1.32 6 2 C3.03 1.505 3.03 1.505 0 1 C0 0.67 0 0.34 0 0 Z " fill="#A4A5A7" transform="translate(254,323)"/>
<path d="M0 0 C0.33 0 0.66 0 1 0 C1 1.65 1 3.3 1 5 C0.67 5 0.34 5 0 5 C0 3.35 0 1.7 0 0 Z " fill="#929395" transform="translate(332,265)"/>
<path d="M0 0 C4 1 4 1 4 1 Z " fill="#A4A5A7" transform="translate(279,322)"/>
<path d="M0 0 C4 1 4 1 4 1 Z " fill="#A3A4A6" transform="translate(249,322)"/>
<path d="M0 0 C1 4 1 4 1 4 Z " fill="#B9BABC" transform="translate(200,271)"/>
<path d="M0 0 C1 4 1 4 1 4 Z " fill="#848587" transform="translate(331,270)"/>
<path d="M0 0 C1 4 1 4 1 4 Z " fill="#AEAFB1" transform="translate(199,266)"/>
<path d="M0 0 C1 4 1 4 1 4 Z " fill="#A2A3A5" transform="translate(332,244)"/>
<path d="M0 0 C1 4 1 4 1 4 Z " fill="#CBCCCE" transform="translate(199,243)"/>
<path d="M0 0 C1 4 1 4 1 4 Z " fill="#A9AAAC" transform="translate(331,239)"/>
<path d="M0 0 C4 1 4 1 4 1 Z " fill="#CFD0D2" transform="translate(251,190)"/>
<path d="M0 0 C3 1 3 1 3 1 Z " fill="#A2A3A5" transform="translate(283,321)"/>
<path d="M0 0 C3 1 3 1 3 1 Z " fill="#9E9FA1" transform="translate(246,321)"/>
<path d="M0 0 C3 1 3 1 3 1 Z " fill="#898A8C" transform="translate(286,320)"/>
<path d="" fill="#BDBEC0" transform="translate(0,0)"/>
<path d="" fill="#ADAEB0" transform="translate(0,0)"/>
<path d="" fill="#BCBDBF" transform="translate(0,0)"/>
<path d="" fill="#CDCED0" transform="translate(0,0)"/>
<path d="" fill="#AEAFB1" transform="translate(0,0)"/>
<path d="" fill="#A9AAAC" transform="translate(0,0)"/>
<path d="M0 0 C3 1 3 1 3 1 Z " fill="#D8D9DB" transform="translate(241,193)"/>
<path d="M0 0 C3 1 3 1 3 1 Z " fill="#D0D1D3" transform="translate(285,192)"/>
<path d="M0 0 C3 1 3 1 3 1 Z " fill="#D1D2D4" transform="translate(244,192)"/>
<path d="M0 0 C3 1 3 1 3 1 Z " fill="#B0B1B3" transform="translate(281,191)"/>
<path d="M0 0 C3 1 3 1 3 1 Z " fill="#D7D8DA" transform="translate(247,191)"/>
<path d="M0 0 C3 1 3 1 3 1 Z " fill="#C8C9CB" transform="translate(277,190)"/>
<path d="" fill="#D2D2D6" transform="translate(0,0)"/>
<path d="" fill="#D2D2D6" transform="translate(0,0)"/>
<path d="M0 0 C2 1 2 1 2 1 Z " fill="#ACADAF" transform="translate(243,320)"/>
<path d="M0 0 C2 1 2 1 2 1 Z " fill="#969799" transform="translate(289,319)"/>
<path d="M0 0 C2 1 2 1 2 1 Z " fill="#7C7D7F" transform="translate(241,319)"/>
<path d="M0 0 C2 1 2 1 2 1 Z " fill="#B1B2B4" transform="translate(292,318)"/>
<path d="M0 0 C2 1 2 1 2 1 Z " fill="#B2B3B5" transform="translate(238,318)"/>
<path d="M0 0 C2 1 2 1 2 1 Z " fill="#B3B4B6" transform="translate(294,317)"/>
<path d="M0 0 C2 1 2 1 2 1 Z " fill="#AFB0B2" transform="translate(236,317)"/>
<path d="M0 0 C2 1 2 1 2 1 Z " fill="#B3B4B6" transform="translate(296,316)"/>
<path d="M0 0 C2 1 2 1 2 1 Z " fill="#B2B3B5" transform="translate(234,316)"/>
<path d="M0 0 C2 1 2 1 2 1 Z " fill="#ACADAF" transform="translate(301,313)"/>
<path d="M0 0 C2 1 2 1 2 1 Z " fill="#AAABAD" transform="translate(229,313)"/>
<path d="M0 0 C2 1 2 1 2 1 Z " fill="#B3B4B6" transform="translate(226,311)"/>
<path d="M0 0 C2 1 2 1 2 1 Z " fill="#A3A4A6" transform="translate(221,307)"/>
<path d="M0 0 C2 1 2 1 2 1 Z " fill="#9B9C9E" transform="translate(310,306)"/>
<path d="" fill="#959698" transform="translate(0,0)"/>
<path d="" fill="#7E7F81" transform="translate(0,0)"/>
<path d="" fill="#A7A8AA" transform="translate(0,0)"/>
<path d="" fill="#8E8F91" transform="translate(0,0)"/>
<path d="" fill="#A0A1A3" transform="translate(0,0)"/>
<path d="" fill="#B8B9BB" transform="translate(0,0)"/>
<path d="" fill="#A5A6A8" transform="translate(0,0)"/>
<path d="" fill="#9B9C9E" transform="translate(0,0)"/>
<path d="" fill="#9FA0A2" transform="translate(0,0)"/>
<path d="" fill="#848587" transform="translate(0,0)"/>
<path d="" fill="#A4A5A7" transform="translate(0,0)"/>
<path d="" fill="#A3A4A6" transform="translate(0,0)"/>
<path d="" fill="#AEAFB1" transform="translate(0,0)"/>
<path d="" fill="#C1C2C4" transform="translate(0,0)"/>
<path d="" fill="#A5A6A8" transform="translate(0,0)"/>
<path d="" fill="#CFD0D2" transform="translate(0,0)"/>
<path d="" fill="#D6D7D9" transform="translate(0,0)"/>
<path d="" fill="#B2B3B5" transform="translate(0,0)"/>
<path d="" fill="#A8A9AB" transform="translate(0,0)"/>
<path d="" fill="#DEDFE1" transform="translate(0,0)"/>
<path d="" fill="#DEDFE1" transform="translate(0,0)"/>
<path d="" fill="#E3E4E6" transform="translate(0,0)"/>
<path d="" fill="#B9BABC" transform="translate(0,0)"/>
<path d="" fill="#B2B3B5" transform="translate(0,0)"/>
<path d="" fill="#B4B5B7" transform="translate(0,0)"/>
<path d="" fill="#D9DADC" transform="translate(0,0)"/>
<path d="" fill="#A4A5A7" transform="translate(0,0)"/>
<path d="M0 0 C2 1 2 1 2 1 Z " fill="#D0D1D3" transform="translate(224,203)"/>
<path d="M0 0 C2 1 2 1 2 1 Z " fill="#9C9D9F" transform="translate(300,199)"/>
<path d="M0 0 C2 1 2 1 2 1 Z " fill="#D3D4D6" transform="translate(297,197)"/>
<path d="M0 0 C2 1 2 1 2 1 Z " fill="#DADCDE" transform="translate(233,197)"/>
<path d="M0 0 C2 1 2 1 2 1 Z " fill="#CECFD1" transform="translate(295,196)"/>
<path d="M0 0 C2 1 2 1 2 1 Z " fill="#D4D5D7" transform="translate(235,196)"/>
<path d="M0 0 C2 1 2 1 2 1 Z " fill="#CFD0D2" transform="translate(293,195)"/>
<path d="M0 0 C2 1 2 1 2 1 Z " fill="#D6D7D9" transform="translate(237,195)"/>
<path d="M0 0 C2 1 2 1 2 1 Z " fill="#D5D6D8" transform="translate(291,194)"/>
<path d="M0 0 C2 1 2 1 2 1 Z " fill="#DDDEE0" transform="translate(239,194)"/>
<path d="M0 0 C2 1 2 1 2 1 Z " fill="#C9CACC" transform="translate(288,193)"/>
<path d="" fill="#ABACAE" transform="translate(0,0)"/>
<path d="" fill="#AAABAD" transform="translate(0,0)"/>
<path d="" fill="#B4B5B7" transform="translate(0,0)"/>
<path d="" fill="#B9BABC" transform="translate(0,0)"/>
<path d="" fill="#AFB0B2" transform="translate(0,0)"/>
<path d="" fill="#B6B7B9" transform="translate(0,0)"/>
<path d="" fill="#A1A2A4" transform="translate(0,0)"/>
<path d="" fill="#B5B6B8" transform="translate(0,0)"/>
<path d="" fill="#C1C2C4" transform="translate(0,0)"/>
<path d="" fill="#AEAFB1" transform="translate(0,0)"/>
<path d="" fill="#B3B4B6" transform="translate(0,0)"/>
<path d="" fill="#A6A7A9" transform="translate(0,0)"/>
<path d="" fill="#A3A4A6" transform="translate(0,0)"/>
<path d="" fill="#98999B" transform="translate(0,0)"/>
<path d="" fill="#D4D5D7" transform="translate(0,0)"/>
<path d="" fill="#BBBCBE" transform="translate(0,0)"/>
<path d="" fill="#CECFD1" transform="translate(0,0)"/>
<path d="" fill="#B9BABC" transform="translate(0,0)"/>
<path d="" fill="#CCCDCF" transform="translate(0,0)"/>
<path d="" fill="#BABBBD" transform="translate(0,0)"/>
<path d="" fill="#CFD0D2" transform="translate(0,0)"/>
<path d="" fill="#D5D6D8" transform="translate(0,0)"/>
<path d="" fill="#939496" transform="translate(0,0)"/>
<path d="" fill="#A2A3A5" transform="translate(0,0)"/>
<path d="" fill="#9A9B9D" transform="translate(0,0)"/>
<path d="" fill="#AAABAD" transform="translate(0,0)"/>
<path d="" fill="#B2B3B5" transform="translate(0,0)"/>
<path d="" fill="#B2B3B5" transform="translate(0,0)"/>
<path d="" fill="#C1C2C4" transform="translate(0,0)"/>
<path d="" fill="#A9AAAC" transform="translate(0,0)"/>
<path d="" fill="#AFB0B2" transform="translate(0,0)"/>
<path d="" fill="#CACBCD" transform="translate(0,0)"/>
<path d="" fill="#ADAEB0" transform="translate(0,0)"/>
<path d="" fill="#B6B7B9" transform="translate(0,0)"/>
<path d="" fill="#A0A1A3" transform="translate(0,0)"/>
<path d="" fill="#C1C2C4" transform="translate(0,0)"/>
<path d="" fill="#BEBFC1" transform="translate(0,0)"/>
<path d="" fill="#C4C5C7" transform="translate(0,0)"/>
<path d="" fill="#C9CACC" transform="translate(0,0)"/>
<path d="" fill="#DCDDDF" transform="translate(0,0)"/>
<path d="" fill="#C1C2C4" transform="translate(0,0)"/>
<path d="" fill="#D3D4D6" transform="translate(0,0)"/>
<path d="" fill="#E9EAEC" transform="translate(0,0)"/>
<path d="" fill="#CBCCCE" transform="translate(0,0)"/>
<path d="" fill="#D9DADC" transform="translate(0,0)"/>
<path d="" fill="#B5B6B8" transform="translate(0,0)"/>
<path d="" fill="#EAEBED" transform="translate(0,0)"/>
<path d="" fill="#D8D9DB" transform="translate(0,0)"/>
<path d="" fill="#E2E3E5" transform="translate(0,0)"/>
<path d="" fill="#CFD0D2" transform="translate(0,0)"/>
<path d="" fill="#DCDDDF" transform="translate(0,0)"/>
<path d="" fill="#C9CACC" transform="translate(0,0)"/>
<path d="" fill="#D6D7D9" transform="translate(0,0)"/>
<path d="" fill="#C4C5C7" transform="translate(0,0)"/>
<path d="" fill="#D1D2D4" transform="translate(0,0)"/>
<path d="" fill="#C3C4C6" transform="translate(0,0)"/>
<path d="" fill="#D0D1D3" transform="translate(0,0)"/>
<path d="" fill="#C5C5C7" transform="translate(0,0)"/>
<path d="" fill="#D1D2D4" transform="translate(0,0)"/>
<path d="" fill="#C8C9CB" transform="translate(0,0)"/>
<path d="" fill="#D5D6D8" transform="translate(0,0)"/>
<path d="" fill="#CFD0D2" transform="translate(0,0)"/>
<path d="" fill="#DADBDD" transform="translate(0,0)"/>
<path d="" fill="#D8D9DB" transform="translate(0,0)"/>
<path d="" fill="#DFE0E2" transform="translate(0,0)"/>
<path d="" fill="#E3E4E6" transform="translate(0,0)"/>
<path d="" fill="#E7E8EA" transform="translate(0,0)"/>
<path d="" fill="#AEAFB1" transform="translate(0,0)"/>
<path d="" fill="#CBCCCE" transform="translate(0,0)"/>
<path d="" fill="#D4D5D7" transform="translate(0,0)"/>
<path d="" fill="#DDDEE0" transform="translate(0,0)"/>
<path d="" fill="#E4E5E7" transform="translate(0,0)"/>
<path d="" fill="#C2C3C5" transform="translate(0,0)"/>
<path d="" fill="#CACBCD" transform="translate(0,0)"/>
<path d="" fill="#E3E4E6" transform="translate(0,0)"/>
<path d="" fill="#CECFD1" transform="translate(0,0)"/>
<path d="" fill="#D5D6D8" transform="translate(0,0)"/>
</svg>
