<?xml version="1.0" encoding="UTF-8"?>
<svg version="1.1" xmlns="http://www.w3.org/2000/svg" width="532" height="582">
<path d="M0 0 C1.22088821 -0.00571014 2.44177643 -0.01142029 3.69966125 -0.01730347 C5.04463186 -0.01854867 6.38960257 -0.0196738 7.73457336 -0.02069092 C9.15749235 -0.02532265 10.5804101 -0.03034778 12.00332642 -0.03573608 C15.86308235 -0.04882941 19.72282092 -0.05529924 23.58259559 -0.05974674 C25.99735543 -0.06268291 28.41211058 -0.06678878 30.82686806 -0.07125092 C38.39167625 -0.08491885 45.95647366 -0.09458849 53.52129334 -0.09845281 C62.23569964 -0.10292954 70.94994877 -0.12046244 79.6643073 -0.1494534 C86.41185787 -0.17111707 93.15936438 -0.18115961 99.90694934 -0.18249393 C103.93143281 -0.18353876 107.95576841 -0.18937758 111.98021507 -0.20731354 C115.76991262 -0.22387513 119.55935242 -0.22591086 123.34907341 -0.21717453 C124.73329614 -0.21640841 126.11753319 -0.22069023 127.50172043 -0.23063278 C137.19779224 -0.29614615 147.22541471 -0.14122643 154.79829407 6.70294189 C155.49696594 7.30235596 156.19563782 7.90177002 156.91548157 8.51934814 C162.19154831 15.40697613 163.51550649 22.87884131 163.42449951 31.35578918 C163.43280111 32.82303394 163.43280111 32.82303394 163.44127041 34.31992 C163.45479526 37.57098707 163.43995191 40.82127551 163.42500305 44.07232666 C163.42878916 46.41385218 163.4342916 48.75537545 163.44137573 51.09689331 C163.4553086 57.43770802 163.44417587 63.77825073 163.42766452 70.11905026 C163.41519663 76.08854721 163.41942849 82.05802599 163.42279423 88.02752983 C163.42866356 99.85582084 163.41453715 111.68400517 163.3898468 123.51226807 C163.3659233 134.97454831 163.35884584 146.43668608 163.36933899 157.89898682 C163.38076248 170.39983757 163.38266103 182.90062253 163.36824089 195.40147251 C163.36068213 202.01189505 163.35679548 208.62227177 163.36274529 215.23269844 C163.36752423 221.44703085 163.35737506 227.66116657 163.33579063 233.87546158 C163.33023539 236.15345153 163.32974584 238.43146043 163.3347435 240.70945168 C163.34071839 243.82387739 163.32814852 246.9377062 163.31097412 250.05207825 C163.31998919 251.39742806 163.31998919 251.39742806 163.32918638 252.76995665 C163.22778607 262.91347118 160.32741017 269.63697973 153.33735657 276.96856689 C147.3495853 282.35562324 140.96014462 284.25524229 133.04277039 284.28761292 C131.23874252 284.29834587 131.23874252 284.29834587 129.39826965 284.30929565 C128.08185486 284.31198456 126.76544006 284.31467346 125.40913391 284.31744385 C124.00606621 284.32371179 122.60300016 284.33035888 121.19993591 284.33735657 C116.59471281 284.35836444 111.98948952 284.3687576 107.38423157 284.37872314 C105.79580798 284.38277227 104.20738457 284.38688924 102.61896133 284.39107323 C95.15346483 284.41011968 87.68797817 284.42435045 80.22246206 284.4326852 C71.6206288 284.4424484 63.01905349 284.46874607 54.41731107 284.50918609 C47.75895297 284.53940903 41.10066855 284.55416001 34.44224322 284.55746621 C30.47022775 284.55981013 26.49848802 284.56868397 22.52654648 284.59392738 C18.78523249 284.61732099 15.04437357 284.62139655 11.30300522 284.611166 C9.28912693 284.61043975 7.27527116 284.62945233 5.26148987 284.64923096 C-5.2354657 284.58946653 -13.52455785 282.5120655 -21.31889343 275.20684814 C-26.15729438 269.51903903 -29.19499135 262.47601971 -29.2081337 254.99048424 C-29.21197484 254.16660568 -29.21581599 253.34272712 -29.21977353 252.49388254 C-29.21847381 251.14419568 -29.21847381 251.14419568 -29.21714783 249.76724243 C-29.22011895 248.80716203 -29.22309007 247.84708163 -29.22615123 246.85790789 C-29.23484118 243.6322529 -29.23634674 240.40663501 -29.23783875 237.18096924 C-29.24246677 234.87151002 -29.2474914 232.56205156 -29.25288391 230.25259399 C-29.26601282 223.97136829 -29.27245402 217.69015328 -29.27689457 211.408916 C-29.27982495 207.48439738 -29.28392972 203.55988168 -29.28839874 199.63536453 C-29.30050866 188.76301112 -29.31088995 177.89066093 -29.31427383 167.01830101 C-29.3144934 166.32260086 -29.31471297 165.62690071 -29.31493919 164.91011874 C-29.31515746 164.212778 -29.31537574 163.51543727 -29.31560063 162.796965 C-29.3160441 161.38395079 -29.31649066 159.97093658 -29.31694031 158.55792236 C-29.31716174 157.85702239 -29.31738317 157.15612241 -29.31761131 156.43398304 C-29.32155637 145.08574282 -29.33900149 133.73756692 -29.36229983 122.38935153 C-29.38604363 110.729705 -29.39821939 99.07009387 -29.39964175 87.41042292 C-29.40068947 80.86748396 -29.4065901 74.3246357 -29.42446136 67.78171921 C-29.44095251 61.62412657 -29.44309235 55.46669271 -29.43432236 49.30908585 C-29.43355251 47.05247319 -29.43788781 44.79585197 -29.44778061 42.53926086 C-29.4605216 39.45116704 -29.45461129 36.36363367 -29.44419861 33.27554321 C-29.45225501 32.38913631 -29.46031142 31.5027294 -29.46861196 30.58946168 C-29.39678545 21.43899437 -27.44620117 13.5343904 -21.04154968 6.83184814 C-14.80036498 1.45921797 -8.08600247 0.02271184 0 0 Z " fill="#262F41" transform="translate(199.0767059326172,193.85955810546875)"/>
<path d="M0 0 C1.22088821 -0.00571014 2.44177643 -0.01142029 3.69966125 -0.01730347 C5.04463186 -0.01854867 6.38960257 -0.0196738 7.73457336 -0.02069092 C9.15749235 -0.02532265 10.5804101 -0.03034778 12.00332642 -0.03573608 C15.86308235 -0.04882941 19.72282092 -0.05529924 23.58259559 -0.05974674 C25.99735543 -0.06268291 28.41211058 -0.06678878 30.82686806 -0.07125092 C38.39167625 -0.08491885 45.95647366 -0.09458849 53.52129334 -0.09845281 C62.23569964 -0.10292954 70.94994877 -0.12046244 79.6643073 -0.1494534 C86.41185787 -0.17111707 93.15936438 -0.18115961 99.90694934 -0.18249393 C103.93143281 -0.18353876 107.95576841 -0.18937758 111.98021507 -0.20731354 C115.76991262 -0.22387513 119.55935242 -0.22591086 123.34907341 -0.21717453 C124.73329614 -0.21640841 126.11753319 -0.22069023 127.50172043 -0.23063278 C137.19779224 -0.29614615 147.22541471 -0.14122643 154.79829407 6.70294189 C155.49696594 7.30235596 156.19563782 7.90177002 156.91548157 8.51934814 C162.20179341 15.42035057 163.51504466 22.89726194 163.41777039 31.38943481 C163.42259922 32.37112581 163.42742805 33.35281681 163.43240321 34.36425602 C163.44360184 37.62700567 163.42640993 40.88895891 163.40913391 44.15167236 C163.41128149 46.50130932 163.41516173 48.85094523 163.42063904 51.20057678 C163.43030799 57.5617259 163.41506173 63.92259307 163.39473295 70.2837081 C163.37892034 76.26749877 163.38040903 82.25127714 163.3812836 88.235083 C163.38228296 100.08574654 163.36400881 111.93630178 163.33491516 123.78692627 C163.30670576 135.28336559 163.2925754 146.77970968 163.29389954 158.27618408 C163.2940194 159.33968873 163.2940194 159.33968873 163.29414169 160.42467831 C163.2942224 161.13246533 163.29430311 161.84025234 163.29438627 162.56948745 C163.29569571 175.00594772 163.28546126 187.44236996 163.26880264 199.87881851 C163.26173478 205.17299833 163.25807585 210.46716442 163.25701523 215.76134872 C163.25500981 221.98794361 163.24282843 228.21443819 163.22268295 234.44099998 C163.21683042 236.72915343 163.21438273 239.01731841 163.21553802 241.30547905 C163.21651618 244.42154374 163.20524044 247.53732548 163.1907196 250.65335083 C163.19381681 251.56481491 163.19691401 252.47627899 163.20010507 253.41536319 C163.19043173 254.66685631 163.19043173 254.66685631 163.18056297 255.94363213 C163.17915412 256.66271779 163.17774527 257.38180345 163.17629373 258.12267959 C162.88267251 260.46441322 162.07936148 262.0987147 160.92329407 264.14044189 C159.05423733 262.27138516 159.80048695 259.58328487 159.79421276 257.09623665 C159.7971256 256.21979517 159.80003844 255.3433537 159.80303955 254.44035339 C159.80175791 253.05474751 159.80175791 253.05474751 159.80045038 251.64114958 C159.79879275 248.5210214 159.80432156 245.40094604 159.80976868 242.28082275 C159.81005051 240.05410259 159.80989288 237.82738234 159.80932617 235.60066223 C159.80903806 229.53479113 159.81493698 223.46893961 159.82190013 217.40307307 C159.82813141 211.07159826 159.82873729 204.74012304 159.82992554 198.40864563 C159.83268524 187.7748883 159.83894076 177.14113874 159.84785461 166.50738525 C159.85702803 155.55263302 159.86410921 144.59788274 159.86836243 133.64312744 C159.86862515 132.96832916 159.86888787 132.29353089 159.86915856 131.59828418 C159.87046356 128.21315472 159.87172728 124.82802525 159.87297046 121.44289577 C159.88334392 93.34207279 159.90103711 65.24125779 159.92329407 37.14044189 C159.26329407 36.81044189 158.60329407 36.48044189 157.92329407 36.14044189 C157.92329407 36.80044189 157.92329407 37.46044189 157.92329407 38.14044189 C156.27225377 37.74491137 154.62744257 37.32330293 152.98579407 36.89044189 C152.06927063 36.65841064 151.15274719 36.42637939 150.20845032 36.18731689 C149.45434875 35.84184814 148.70024719 35.49637939 147.92329407 35.14044189 C147.29438782 33.09356689 147.29438782 33.09356689 146.92329407 31.14044189 C145.93329407 30.81044189 144.94329407 30.48044189 143.92329407 30.14044189 C141.90652827 28.49410247 139.90589832 26.82776467 137.92329407 25.14044189 C135.35435569 23.85597271 133.1575307 23.81067046 130.29829407 23.57794189 C129.29540344 23.49415283 128.29251282 23.41036377 127.25923157 23.32403564 C126.48837219 23.26344971 125.71751282 23.20286377 124.92329407 23.14044189 C124.92329407 23.80044189 124.92329407 24.46044189 124.92329407 25.14044189 C124.26329407 25.14044189 123.60329407 25.14044189 122.92329407 25.14044189 C122.92329407 24.48044189 122.92329407 23.82044189 122.92329407 23.14044189 C120.29802218 23.08662083 117.67384694 23.04685877 115.04829407 23.01544189 C113.92874329 22.99030518 113.92874329 22.99030518 112.78657532 22.96466064 C110.83134945 22.947046 108.87587385 23.03724 106.92329407 23.14044189 C106.26329407 23.80044189 105.60329407 24.46044189 104.92329407 25.14044189 C104.59329407 24.48044189 104.26329407 23.82044189 103.92329407 23.14044189 C103.27627533 23.14266251 102.62925659 23.14488312 101.96263123 23.14717102 C95.24721324 23.16924158 88.53180551 23.18435594 81.81636047 23.19537354 C79.30789268 23.20041192 76.79942783 23.20724273 74.29096985 23.21588135 C70.69184136 23.2279685 67.0927516 23.23367504 63.49360657 23.23809814 C61.80293564 23.24584007 61.80293564 23.24584007 60.07810974 23.2537384 C59.0371817 23.25381393 57.99625366 23.25388947 56.92378235 23.25396729 C56.00444916 23.2561879 55.08511597 23.25840851 54.13792419 23.26069641 C51.92329407 23.14044189 51.92329407 23.14044189 49.92329407 22.14044189 C49.42829407 23.62544189 49.42829407 23.62544189 48.92329407 25.14044189 C48.92329407 24.15044189 48.92329407 23.16044189 48.92329407 22.14044189 C47.58524719 22.38794189 47.58524719 22.38794189 46.22016907 22.64044189 C40.56625146 23.44895781 34.87011721 23.20599797 29.17329407 23.14044189 C26.92855033 23.1149624 24.68375055 23.09391934 22.43891907 23.07794189 C21.45181946 23.06634033 20.46471985 23.05473877 19.44770813 23.04278564 C16.79608517 23.02766747 16.79608517 23.02766747 13.92329407 24.14044189 C13.92329407 23.48044189 13.92329407 22.82044189 13.92329407 22.14044189 C11.93837765 22.40720393 11.93837765 22.40720393 9.92329407 23.14044189 C9.42829407 24.62544189 9.42829407 24.62544189 8.92329407 26.14044189 C5.29329407 26.14044189 1.66329407 26.14044189 -2.07670593 26.14044189 C-2.73670593 27.46044189 -3.39670593 28.78044189 -4.07670593 30.14044189 C-6.1295729 34.14842027 -7.89954819 36.30656776 -12.07670593 38.14044189 C-14.38920593 37.82794189 -14.38920593 37.82794189 -16.07670593 37.14044189 C-16.40670593 37.80044189 -16.73670593 38.46044189 -17.07670593 39.14044189 C-18.06670593 39.14044189 -19.05670593 39.14044189 -20.07670593 39.14044189 C-20.07670593 40.79044189 -20.07670593 42.44044189 -20.07670593 44.14044189 C-20.40670593 44.14044189 -20.73670593 44.14044189 -21.07670593 44.14044189 C-21.07670593 41.50044189 -21.07670593 38.86044189 -21.07670593 36.14044189 C-22.69255945 38.70679749 -23.13682351 39.77114818 -22.63920593 42.82794189 C-22.45358093 43.59106689 -22.26795593 44.35419189 -22.07670593 45.14044189 C-22.57170593 45.63544189 -22.57170593 45.63544189 -23.07670593 46.14044189 C-22.77643476 47.81338126 -22.44112826 49.48029574 -22.07670593 51.14044189 C-22.07670593 51.80044189 -22.07670593 52.46044189 -22.07670593 53.14044189 C-22.05350281 53.90356689 -22.03029968 54.66669189 -22.00639343 55.45294189 C-21.98834656 56.33981689 -21.97029968 57.22669189 -21.95170593 58.14044189 C-21.92850281 59.02731689 -21.90529968 59.91419189 -21.88139343 60.82794189 C-22.07670593 63.14044189 -22.07670593 63.14044189 -24.07670593 65.14044189 C-23.41670593 65.14044189 -22.75670593 65.14044189 -22.07670593 65.14044189 C-22.07670593 68.44044189 -22.07670593 71.74044189 -22.07670593 75.14044189 C-22.73670593 75.14044189 -23.39670593 75.14044189 -24.07670593 75.14044189 C-24.07670593 76.13044189 -24.07670593 77.12044189 -24.07670593 78.14044189 C-23.41670593 78.14044189 -22.75670593 78.14044189 -22.07670593 78.14044189 C-22.02247646 79.5775228 -21.9838087 81.01519652 -21.95170593 82.45294189 C-21.92850281 83.25344971 -21.90529968 84.05395752 -21.88139343 84.87872314 C-22.07670593 87.14044189 -22.07670593 87.14044189 -24.07670593 90.14044189 C-23.41670593 90.14044189 -22.75670593 90.14044189 -22.07670593 90.14044189 C-22.07670593 91.46044189 -22.07670593 92.78044189 -22.07670593 94.14044189 C-22.73670593 94.14044189 -23.39670593 94.14044189 -24.07670593 94.14044189 C-24.07670593 94.80044189 -24.07670593 95.46044189 -24.07670593 96.14044189 C-23.41670593 96.14044189 -22.75670593 96.14044189 -22.07670593 96.14044189 C-22.07670593 99.44044189 -22.07670593 102.74044189 -22.07670593 106.14044189 C-22.73670593 106.14044189 -23.39670593 106.14044189 -24.07670593 106.14044189 C-23.41670593 107.13044189 -22.75670593 108.12044189 -22.07670593 109.14044189 C-22.7433726 111.14044189 -23.41003927 113.14044189 -24.07670593 115.14044189 C-23.41670593 115.14044189 -22.75670593 115.14044189 -22.07670593 115.14044189 C-23.07670593 118.14044189 -23.07670593 118.14044189 -24.07670593 120.14044189 C-23.41670593 120.14044189 -22.75670593 120.14044189 -22.07670593 120.14044189 C-21.95170593 122.51544189 -21.95170593 122.51544189 -22.07670593 125.14044189 C-23.06670593 126.13044189 -23.06670593 126.13044189 -24.07670593 127.14044189 C-23.41670593 127.14044189 -22.75670593 127.14044189 -22.07670593 127.14044189 C-22.7433726 129.14044189 -23.41003927 131.14044189 -24.07670593 133.14044189 C-23.41670593 133.14044189 -22.75670593 133.14044189 -22.07670593 133.14044189 C-22.07670593 136.44044189 -22.07670593 139.74044189 -22.07670593 143.14044189 C-22.73670593 143.14044189 -23.39670593 143.14044189 -24.07670593 143.14044189 C-24.07670593 143.80044189 -24.07670593 144.46044189 -24.07670593 145.14044189 C-23.41670593 145.14044189 -22.75670593 145.14044189 -22.07670593 145.14044189 C-22.02275889 147.74488538 -21.98306124 150.34821187 -21.95170593 152.95294189 C-21.93494812 153.69093018 -21.91819031 154.42891846 -21.90092468 155.18927002 C-21.86595965 159.05290615 -21.88273039 160.84947858 -24.07670593 164.14044189 C-23.41670593 164.14044189 -22.75670593 164.14044189 -22.07670593 164.14044189 C-22.07670593 165.46044189 -22.07670593 166.78044189 -22.07670593 168.14044189 C-22.73670593 168.14044189 -23.39670593 168.14044189 -24.07670593 168.14044189 C-24.07670593 168.80044189 -24.07670593 169.46044189 -24.07670593 170.14044189 C-23.41670593 170.14044189 -22.75670593 170.14044189 -22.07670593 170.14044189 C-22.07670593 173.11044189 -22.07670593 176.08044189 -22.07670593 179.14044189 C-22.73670593 179.14044189 -23.39670593 179.14044189 -24.07670593 179.14044189 C-23.41670593 180.13044189 -22.75670593 181.12044189 -22.07670593 182.14044189 C-22.07670593 183.46044189 -22.07670593 184.78044189 -22.07670593 186.14044189 C-22.73670593 186.14044189 -23.39670593 186.14044189 -24.07670593 186.14044189 C-24.07670593 187.13044189 -24.07670593 188.12044189 -24.07670593 189.14044189 C-23.41670593 189.14044189 -22.75670593 189.14044189 -22.07670593 189.14044189 C-22.7433726 191.14044189 -23.41003927 193.14044189 -24.07670593 195.14044189 C-23.41670593 195.14044189 -22.75670593 195.14044189 -22.07670593 195.14044189 C-22.07670593 196.13044189 -22.07670593 197.12044189 -22.07670593 198.14044189 C-22.73670593 198.14044189 -23.39670593 198.14044189 -24.07670593 198.14044189 C-24.07670593 198.80044189 -24.07670593 199.46044189 -24.07670593 200.14044189 C-23.41670593 200.14044189 -22.75670593 200.14044189 -22.07670593 200.14044189 C-22.07670593 203.44044189 -22.07670593 206.74044189 -22.07670593 210.14044189 C-22.73670593 210.14044189 -23.39670593 210.14044189 -24.07670593 210.14044189 C-24.07670593 211.13044189 -24.07670593 212.12044189 -24.07670593 213.14044189 C-23.41670593 213.14044189 -22.75670593 213.14044189 -22.07670593 213.14044189 C-22.40670593 214.13044189 -22.73670593 215.12044189 -23.07670593 216.14044189 C-24.06670593 216.14044189 -25.05670593 216.14044189 -26.07670593 216.14044189 C-26.07670593 231.32044189 -26.07670593 246.50044189 -26.07670593 262.14044189 C-29.45172542 258.76542241 -29.45172542 258.76542241 -29.45422935 255.11353207 C-29.4620526 254.29164455 -29.46987584 253.46975704 -29.47793615 252.62296385 C-29.47124398 251.72025977 -29.46455182 250.81755569 -29.45765686 249.88749695 C-29.46233683 248.92827097 -29.4670168 247.969045 -29.47183859 246.98075157 C-29.4838478 243.75186049 -29.47430793 240.52338921 -29.46488953 237.29449463 C-29.46895278 234.98518119 -29.47429326 232.67586969 -29.4808197 230.36656189 C-29.49453371 224.08109639 -29.48917637 217.79577811 -29.47968245 211.51030993 C-29.47210062 204.93528002 -29.47912794 198.36026294 -29.48384094 191.78523254 C-29.49025668 180.02603374 -29.48031079 168.26689692 -29.46506293 156.50770885 C-29.45168109 145.85847911 -29.45396871 135.20934757 -29.46781921 124.56011963 C-29.48389988 112.19042631 -29.48983427 99.82079561 -29.48098242 87.45109326 C-29.47630988 80.90479969 -29.47566903 74.35857367 -29.48559189 67.81228447 C-29.49427826 61.65058121 -29.48820885 55.48906261 -29.47090912 49.32737923 C-29.46695202 47.0691623 -29.46806497 44.81092977 -29.47469711 42.55271912 C-29.482934 39.46236249 -29.47256452 36.37259196 -29.45765686 33.28227234 C-29.46434903 32.39518331 -29.47104119 31.50809429 -29.47793615 30.59412378 C-29.392726 21.44336452 -27.44730792 13.53554863 -21.04154968 6.83184814 C-14.80036498 1.45921797 -8.08600247 0.02271184 0 0 Z M45.92329407 25.14044189 C48.92329407 26.14044189 48.92329407 26.14044189 48.92329407 26.14044189 Z " fill="#2E374B" transform="translate(199.0767059326172,193.85955810546875)"/>
<path d="M0 0 C0.99 0.33 1.98 0.66 3 1 C3.13692985 30.16439122 3.24308592 59.32875101 3.30639198 88.49339953 C3.31389605 91.93798303 3.321662 95.38256589 3.32958984 98.82714844 C3.33116371 99.51289135 3.33273757 100.19863427 3.33435912 100.90515727 C3.36045397 112.00287787 3.4077541 123.10041164 3.46291678 134.19802147 C3.51906263 145.58858217 3.55191138 156.97900453 3.56453097 168.36971235 C3.57235441 174.7663604 3.59074667 181.16258495 3.63438034 187.55909729 C3.67512216 193.58049137 3.68766548 199.60128772 3.67864609 205.62280655 C3.68029598 207.8319079 3.69222098 210.04102934 3.71523285 212.25001144 C3.74514366 215.26949745 3.73788964 218.286735 3.7215271 221.30627441 C3.73900415 222.17788979 3.7564812 223.04950517 3.77448785 223.94753313 C3.6643644 231.47982172 0.36534675 235.54209336 -4.74376357 240.79172373 C-9.6147196 245.51376256 -15.31576933 247.77443486 -22.0625 248.1875 C-22.701875 248.125625 -23.34125 248.06375 -24 248 C-24 247.67 -24 247.34 -24 247 C-49.74 246.67 -75.48 246.34 -102 246 C-102 245.01 -102 244.02 -102 243 C-101.34 243 -100.68 243 -100 243 C-99.505 242.01 -99.505 242.01 -99 241 C-98.28714844 241.08378906 -97.57429688 241.16757812 -96.83984375 241.25390625 C-95.88207031 241.35574219 -94.92429687 241.45757812 -93.9375 241.5625 C-92.99777344 241.66691406 -92.05804688 241.77132812 -91.08984375 241.87890625 C-87.98278194 242.09700643 -87.98278194 242.09700643 -84.87109375 241.53125 C-79.60912648 240.80912331 -74.42860804 240.89451565 -69.125 240.9375 C-67.53945313 240.94426758 -67.53945313 240.94426758 -65.921875 240.95117188 C-63.28119596 240.96305154 -60.64062849 240.98017546 -58 241 C-57.67 241 -57.34 241 -57 241 C-46.33333333 241 -35.66666667 241 -25 241 C-25 240.34 -25 239.68 -25 239 C-24.29875 239.20625 -23.5975 239.4125 -22.875 239.625 C-19.31954709 240.08875473 -17.26948317 239.42151442 -14 238 C-12.16310524 236.50113129 -12.16310524 236.50113129 -11 235 C-10.67 235.33 -10.34 235.66 -10 236 C-9.34 234.35 -8.68 232.7 -8 231 C-7.01 231 -6.02 231 -5 231 C-4.45627049 227.94152152 -4 225.11227195 -4 222 C-4 219 -4 219 -2 217 C-0.92924765 213.41945345 -0.92924765 213.41945345 -2 210 C-2.06940206 207.43212365 -1.99721807 204.88037682 -1.9375 202.3125 C-1.83764219 199.97231107 -1.83764219 199.97231107 -3 198 C-2.34 198 -1.68 198 -1 198 C-1.16371094 196.83774902 -1.32742188 195.67549805 -1.49609375 194.47802734 C-2.19155599 188.1776239 -2.11203181 181.87597477 -2.07516479 175.54680252 C-2.06226321 173.31051943 -2.05585186 171.07429643 -2.05102539 168.83798218 C-2.03967705 164.10029411 -2.02040024 159.36265658 -2 154.625 C-1.97637114 149.11085754 -1.95602188 143.59674263 -1.94406128 138.08256149 C-1.93758532 135.8805743 -1.92508527 133.67867371 -1.91235352 131.47671509 C-1.9087222 130.13112462 -1.90537032 128.78553337 -1.90234375 127.43994141 C-1.89448853 125.67863388 -1.89448853 125.67863388 -1.88647461 123.88174438 C-1.86874765 120.92935944 -1.86874765 120.92935944 -3 118 C-2.34 118 -1.68 118 -1 118 C-1.66 116.02 -2.32 114.04 -3 112 C-2.34 112 -1.68 112 -1 112 C-1.10828125 110.89591797 -1.10828125 110.89591797 -1.21875 109.76953125 C-1.3115625 108.79371094 -1.404375 107.81789063 -1.5 106.8125 C-1.5928125 105.84957031 -1.685625 104.88664062 -1.78125 103.89453125 C-1.98145664 101.24536839 -2.03569714 98.65497466 -2 96 C-2 92.88772805 -2.45627049 90.05847848 -3 87 C-2.01 87 -1.02 87 0 87 C-0.33 86.38125 -0.66 85.7625 -1 85.125 C-2.40716905 80.72759673 -2.13963364 76.57688045 -2 72 C-2 71.01 -2 70.02 -2 69 C-1.814375 68.319375 -1.62875 67.63875 -1.4375 66.9375 C-0.76986497 64.9325719 -0.76986497 64.9325719 -2 63 C-2.36141955 60.67085177 -2.69699525 58.33746522 -3 56 C-2.34 56 -1.68 56 -1 56 C-1 55.01 -1 54.02 -1 53 C-1.66 53 -2.32 53 -3 53 C-3 52.34 -3 51.68 -3 51 C-2.34 51 -1.68 51 -1 51 C-1.14095064 49.3745692 -1.28792087 47.74965949 -1.4375 46.125 C-1.51871094 45.22007812 -1.59992188 44.31515625 -1.68359375 43.3828125 C-1.86989285 40.98889139 -1.86989285 40.98889139 -3 39 C-2.34 39 -1.68 39 -1 39 C-1.185625 38.071875 -1.37125 37.14375 -1.5625 36.1875 C-2.31741955 31.09179306 -1.59752133 26.08352762 -1 21 C-1.66 20.67 -2.32 20.34 -3 20 C-2.34 20 -1.68 20 -1 20 C-1.99 16.535 -1.99 16.535 -3 13 C-2.01 13.33 -1.02 13.66 0 14 C0 12.68 0 11.36 0 10 C-0.99 9.67 -1.98 9.34 -3 9 C-2.01 8.67 -1.02 8.34 0 8 C0 6.68 0 5.36 0 4 C-0.66 4 -1.32 4 -2 4 C-2 3.34 -2 2.68 -2 2 C-1.34 2 -0.68 2 0 2 C0 1.34 0 0.68 0 0 Z " fill="#1A2233" transform="translate(357,230)"/>
<path d="M0 0 C0.99 0.33 1.98 0.66 3 1 C3.33 8.59 3.66 16.18 4 24 C3.67 23.34 3.34 22.68 3 22 C2.67702888 24.97308574 2.67702888 24.97308574 4.375 26.625 C6.12217014 29.17855636 6.34538087 30.62002748 6.8125 33.625 C7.19693992 35.97547147 7.19693992 35.97547147 8 38 C10.90197138 39.63478935 10.90197138 39.63478935 14 40 C16.21736634 41.10868317 18.03617993 42.49440461 20 44 C20.33 43.01 20.66 42.02 21 41 C21.556875 41.144375 22.11375 41.28875 22.6875 41.4375 C27.76559406 42.67271207 32.81521773 43.38485634 38 44 C38.495 43.01 38.495 43.01 39 42 C39 42.66 39 43.32 39 44 C40.5778125 43.7215625 40.5778125 43.7215625 42.1875 43.4375 C45.68489967 43.03615905 47.64428069 43.32885614 51 44 C55.65786666 43.56916338 55.65786666 43.56916338 60 42 C62.12890625 42.0859375 62.12890625 42.0859375 64.5625 42.375 C65.77099609 42.51035156 65.77099609 42.51035156 67.00390625 42.6484375 C69 43 69 43 70 44 C70.928125 43.79375 71.85625 43.5875 72.8125 43.375 C76 43 76 43 78.375 44.375 C78.91125 44.91125 79.4475 45.4475 80 46 C80 46.33 80 46.66 80 47 C106.73 47.33 133.46 47.66 161 48 C157.60108063 50.26594625 156.41750256 50.25418207 152.42955017 50.26742554 C151.27031036 50.27595551 150.11107056 50.28448547 148.91670227 50.29327393 C147.64344589 50.29236755 146.37018951 50.29146118 145.05834961 50.29052734 C143.70468779 50.29651153 142.35102939 50.30331682 140.99737549 50.31088257 C137.3172288 50.32857 133.63717509 50.33323934 129.95699 50.33451414 C127.65513502 50.33593578 125.35330366 50.3402058 123.05145454 50.34550858 C115.01288479 50.36402422 106.97438139 50.37217806 98.93579102 50.37060547 C91.45759623 50.36940653 83.97969122 50.39045596 76.50156969 50.4220928 C70.07251764 50.4483162 63.64355978 50.4589701 57.21445471 50.45769465 C53.37881233 50.4571864 49.54342691 50.46279169 45.70783806 50.48405075 C42.0937309 50.50353344 38.48012293 50.50349006 34.86599731 50.48901749 C32.92130594 50.48595617 30.976614 50.50253919 29.03199768 50.51989746 C18.6997825 50.44637898 10.40374276 48.28916489 2.765625 41.0546875 C-0.31519287 37.46948794 -2.75343573 33.57754749 -4 29 C-3.72346811 26.65925532 -3.38274734 24.3257386 -3 22 C-2.92703172 18.37974925 -3.06938385 14.75814955 -3.21484375 11.140625 C-3.30586995 6.5231141 -2.80058761 3.70967888 0 0 Z M1 16 C0.67 16.99 0.34 17.98 0 19 C0.99 18.67 1.98 18.34 3 18 C2.34 17.34 1.68 16.68 1 16 Z " fill="#1D2638" transform="translate(175,428)"/>
<path d="M0 0 C0.66 0 1.32 0 2 0 C2.04560816 28.46818081 2.08101055 56.93635704 2.10213066 85.40456723 C2.10463212 88.76417769 2.10722076 92.12378808 2.10986328 95.48339844 C2.1103879 96.1522469 2.11091252 96.82109537 2.11145304 97.51021197 C2.12015976 108.34541931 2.13593121 119.18060545 2.15430559 130.01580021 C2.17299721 141.13061928 2.18396542 152.24542969 2.18817699 163.36026406 C2.19078882 169.60459488 2.19694555 175.84887762 2.21146011 182.09319305 C2.22500255 187.96669532 2.22922941 193.84012954 2.22621536 199.71364594 C2.22676702 201.87279632 2.23076427 204.0319489 2.23841095 206.19108582 C2.2483199 209.1325002 2.24598367 212.07365566 2.24050903 215.01507568 C2.24633472 215.87499674 2.2521604 216.73491779 2.25816262 217.62089705 C2.2377143 221.66858447 1.98028132 224.479176 0 228 C-1 227 -1 227 -1.10743046 223.33180904 C-1.10424898 221.64183746 -1.0953515 219.95187174 -1.08229065 218.26194763 C-1.07906152 217.33412682 -1.07583239 216.40630601 -1.07250541 215.45036942 C-1.06036434 212.31640054 -1.04100546 209.18251651 -1.02172852 206.04858398 C-1.0115927 203.81201363 -1.00189829 201.57544124 -0.99261475 199.33886719 C-0.96606382 193.24611758 -0.93329879 187.15341502 -0.89946485 181.06070209 C-0.86519079 174.70121579 -0.83656674 168.34170421 -0.80735779 161.98219299 C-0.75753372 151.30134296 -0.70419853 140.62051621 -0.64819336 129.93969727 C-0.59050711 118.93645277 -0.53492225 107.93320098 -0.48217773 96.92993164 C-0.47892802 96.25214637 -0.4756783 95.5743611 -0.4723301 94.87603687 C-0.45604088 91.4759235 -0.43979312 88.07580993 -0.42356598 84.67569625 C-0.28880643 56.4504308 -0.14669508 28.22520575 0 0 Z " fill="#263145" transform="translate(360,230)"/>
<path d="M0 0 C1.32 0.66 2.64 1.32 4 2 C4 5.3 4 8.6 4 12 C3.34 12 2.68 12 2 12 C2 12.66 2 13.32 2 14 C2.66 14 3.32 14 4 14 C4.05394705 16.60444348 4.09364469 19.20776998 4.125 21.8125 C4.14175781 22.55048828 4.15851563 23.28847656 4.17578125 24.04882812 C4.21074628 27.91246426 4.19397555 29.70903668 2 33 C2.66 33 3.32 33 4 33 C4 34.32 4 35.64 4 37 C3.34 37 2.68 37 2 37 C2 37.66 2 38.32 2 39 C2.66 39 3.32 39 4 39 C4 41.97 4 44.94 4 48 C3.34 48 2.68 48 2 48 C2.66 48.99 3.32 49.98 4 51 C4 52.32 4 53.64 4 55 C3.34 55 2.68 55 2 55 C2 55.99 2 56.98 2 58 C2.66 58 3.32 58 4 58 C3.33333333 60 2.66666667 62 2 64 C2.66 64 3.32 64 4 64 C4 64.99 4 65.98 4 67 C3.34 67 2.68 67 2 67 C2 67.66 2 68.32 2 69 C2.66 69 3.32 69 4 69 C4 72.3 4 75.6 4 79 C3.34 79 2.68 79 2 79 C2 79.99 2 80.98 2 82 C2.66 82 3.32 82 4 82 C3.67 82.99 3.34 83.98 3 85 C1.68 85 0.36 85 -1 85 C-1.02316219 74.50799909 -1.04093491 64.01600426 -1.05181217 53.523983 C-1.05703249 48.65220995 -1.06411475 43.78045439 -1.07543945 38.90869141 C-1.08629849 34.20787636 -1.09228326 29.50707814 -1.09487724 24.80625153 C-1.09672604 23.01209498 -1.10033622 21.21793937 -1.10573006 19.42378998 C-1.11298046 16.91238916 -1.11398924 14.40105802 -1.11352539 11.88964844 C-1.11712067 11.14661972 -1.12071594 10.403591 -1.12442017 9.63804626 C-1.11770683 6.28278024 -1.0490987 3.20728078 0 0 Z " fill="#2E374A" transform="translate(173,325)"/>
<path d="M0 0 C70.785 0.495 70.785 0.495 143 1 C139.57900883 3.28066078 138.38023295 3.24775515 134.36225891 3.24050903 C133.1885675 3.24325836 132.0148761 3.24600769 130.80561829 3.24884033 C128.87216805 3.2380545 128.87216805 3.2380545 126.8996582 3.22705078 C125.52977507 3.22648669 124.15989133 3.22680319 122.79000854 3.22793579 C119.06917765 3.22851037 115.34847532 3.21673904 111.62767434 3.20278788 C107.73992324 3.19029809 103.85216931 3.1891114 99.96440125 3.18673706 C92.60149308 3.18051713 85.2386442 3.16409939 77.87576216 3.14403808 C69.49375642 3.12169502 61.11174786 3.11068966 52.72971976 3.10064721 C35.48644553 3.0797336 18.24322903 3.04454768 1 3 C0.67 2.01 0.34 1.02 0 0 Z " fill="#242F43" transform="translate(193,475)"/>
<path d="M0 0 C0.99 0.66 1.98 1.32 3 2 C2.01 2.495 2.01 2.495 1 3 C-0.27809679 8.51028521 -0.10224037 14.3767797 0 20 C0.66 20 1.32 20 2 20 C1.814375 20.556875 1.62875 21.11375 1.4375 21.6875 C0.92561498 24.39317796 1.42343384 26.33338149 2 29 C1.67 29.33 1.34 29.66 1 30 C1.30027117 31.67293936 1.63557767 33.33985384 2 35 C2 35.66 2 36.32 2 37 C2.02320313 37.763125 2.04640625 38.52625 2.0703125 39.3125 C2.08835938 40.199375 2.10640625 41.08625 2.125 42 C2.14820313 42.886875 2.17140625 43.77375 2.1953125 44.6875 C2 47 2 47 0 49 C0.66 49 1.32 49 2 49 C1 52 1 52 -1 55 C-1.70812814 57.32108669 -2.38024152 59.65377147 -3 62 C-3.33 62 -3.66 62 -4 62 C-4.19422536 55.82969844 -4.37260872 49.6592028 -4.53710938 43.48803711 C-4.59506229 41.39416601 -4.65714264 39.3004045 -4.72363281 37.20678711 C-5.64499516 7.96749273 -5.64499516 7.96749273 -1 1 C-0.67 0.67 -0.34 0.34 0 0 Z " fill="#3C4558" transform="translate(175,210)"/>
<path d="M0 0 C0.33 0 0.66 0 1 0 C1 78.87 1 157.74 1 239 C0.67 239 0.34 239 0 239 C0 160.13 0 81.26 0 0 Z " fill="#3B455A" transform="translate(363,215)"/>
<path d="M0 0 C0.33 0 0.66 0 1 0 C1 77.55 1 155.1 1 235 C0.67 235 0.34 235 0 235 C0 157.45 0 79.9 0 0 Z " fill="#2C374C" transform="translate(168,217)"/>
<path d="M0 0 C1.77447258 -0.00074776 1.77447258 -0.00074776 3.58479309 -0.00151062 C6.07859991 0.00082495 8.5724093 0.01052287 11.06616211 0.02709961 C14.89132633 0.05076142 18.71579647 0.04764768 22.54101562 0.04101562 C24.96484792 0.04659028 27.38867727 0.05369881 29.8125 0.0625 C30.9593779 0.06158859 32.1062558 0.06067719 33.28788757 0.05973816 C34.34941544 0.06927017 35.4109433 0.07880219 36.50463867 0.08862305 C37.43918381 0.09323044 38.37372894 0.09783783 39.33659363 0.10258484 C41.70703125 0.36328125 41.70703125 0.36328125 44.70703125 2.36328125 C27.21703125 2.69328125 9.72703125 3.02328125 -8.29296875 3.36328125 C-8.29296875 4.02328125 -8.29296875 4.68328125 -8.29296875 5.36328125 C-9.11796875 5.52828125 -9.94296875 5.69328125 -10.79296875 5.86328125 C-15.70747852 7.96949972 -18.72165378 11.46565324 -22.29296875 15.36328125 C-23.28296875 15.03328125 -24.27296875 14.70328125 -25.29296875 14.36328125 C-25.73046875 12.23828125 -25.73046875 12.23828125 -25.29296875 9.36328125 C-18.19501306 1.13376741 -10.36978073 -0.08371548 0 0 Z " fill="#3B4357" transform="translate(200.29296875,194.63671875)"/>
<path d="M0 0 C47.85 0 95.7 0 145 0 C145 0.33 145 0.66 145 1 C97.15 1 49.3 1 0 1 C0 0.67 0 0.34 0 0 Z " fill="#1F2B41" transform="translate(194,192)"/>
<path d="M0 0 C0.66 0 1.32 0 2 0 C2.6640625 1.71875 2.6640625 1.71875 3 4 C1.9609375 6.21875 1.9609375 6.21875 0.375 8.5 C-0.13289063 9.2528125 -0.64078125 10.005625 -1.1640625 10.78125 C-3.32375973 13.39126707 -5.09190034 15.2257737 -8 17 C-10.82456499 17.10223348 -13.17279205 17.02891705 -15.9375 16.6875 C-20.80979653 16.1643309 -25.16394727 15.94802609 -30 17 C-30 16.34 -30 15.68 -30 15 C-19.11111111 11.44444444 -19.11111111 11.44444444 -14 14 C-10.58428147 14.50031206 -10.58428147 14.50031206 -7 14 C-3.702798 10.88597589 -1.79957672 7.13902644 0 3 C0 2.01 0 1.02 0 0 Z " fill="#323B4D" transform="translate(287,342)"/>
<path d="M0 0 C0.8971875 0.309375 0.8971875 0.309375 1.8125 0.625 C1.1525 1.285 0.4925 1.945 -0.1875 2.625 C-0.97549652 3.92726793 -1.74455348 5.24108378 -2.5 6.5625 C-4.61400261 9.99853374 -6.37325 12.019 -10.1875 13.625 C-11.1775 13.625 -12.1675 13.625 -13.1875 13.625 C-11.80307626 10.67067948 -10.20197893 8.11257231 -8.25 5.5 C-7.74597656 4.81679687 -7.24195313 4.13359375 -6.72265625 3.4296875 C-4.66707609 1.01320395 -3.2904357 -0.56407469 0 0 Z " fill="#3D4659" transform="translate(197.1875,218.375)"/>
<path d="M0 0 C0.66 0 1.32 0 2 0 C2 11.22 2 22.44 2 34 C1.01 33.67 0.02 33.34 -1 33 C-0.42415568 30.61435923 0.22227595 28.33317216 1 26 C0.34 26 -0.32 26 -1 26 C-1 25.01 -1 24.02 -1 23 C-0.34 23 0.32 23 1 23 C1 22.01 1 21.02 1 20 C0.34 20 -0.32 20 -1 20 C-1 19.34 -1 18.68 -1 18 C-0.34 18 0.32 18 1 18 C1 16.68 1 15.36 1 14 C0.34 14 -0.32 14 -1 14 C-1 13.01 -1 12.02 -1 11 C-0.34 11 0.32 11 1 11 C1 9.68 1 8.36 1 7 C0.34 6.67 -0.32 6.34 -1 6 C-0.34 6 0.32 6 1 6 C0.67 4.02 0.34 2.04 0 0 Z " fill="#1B2536" transform="translate(176,393)"/>
<path d="M0 0 C0.66 0 1.32 0 2 0 C2 10.56 2 21.12 2 32 C1.34 32 0.68 32 0 32 C0.33 30.35 0.66 28.7 1 27 C0.34 27 -0.32 27 -1 27 C-1 26.01 -1 25.02 -1 24 C-0.34 24 0.32 24 1 24 C0.34 21.69 -0.32 19.38 -1 17 C-0.34 17 0.32 17 1 17 C0.814375 16.2575 0.62875 15.515 0.4375 14.75 C0.00796892 12.05009037 0.14877026 10.55368923 1 8 C0.34 8 -0.32 8 -1 8 C-1 7.34 -1 6.68 -1 6 C-0.34 6 0.32 6 1 6 C0.67 4.02 0.34 2.04 0 0 Z " fill="#1D2638" transform="translate(176,356)"/>
<path d="M0 0 C0.33 0 0.66 0 1 0 C1.42745408 3.45060759 1.19531643 4.72688457 -0.86328125 7.60546875 C-1.67152344 8.45753906 -2.47976563 9.30960937 -3.3125 10.1875 C-4.11300781 11.04730469 -4.91351563 11.90710938 -5.73828125 12.79296875 C-10.00198816 16.95358084 -10.00198816 16.95358084 -13.6875 17.125 C-14.450625 17.08375 -15.21375 17.0425 -16 17 C-12.25684723 14.1552039 -12.25684723 14.1552039 -10.3515625 13.00390625 C-5.05097708 9.65921371 -2.65026684 5.60586397 0 0 Z " fill="#212D42" transform="translate(358,458)"/>
<path d="M0 0 C0.66 0 1.32 0 2 0 C2 5.28 2 10.56 2 16 C1.01 15.67 0.02 15.34 -1 15 C-0.49396008 12.83125748 -0.00016187 11.00032373 1 9 C0.34 9 -0.32 9 -1 9 C-0.67 6.03 -0.34 3.06 0 0 Z " fill="#1A2234" transform="translate(176,429)"/>
<path d="M0 0 C-0.33 0.99 -0.66 1.98 -1 3 C-4.63 3 -8.26 3 -12 3 C-7.09396701 -0.67952474 -5.82490317 -0.29124516 0 0 Z M-14 3 C-12 4 -12 4 -12 4 Z " fill="#353E51" transform="translate(209,217)"/>
<path d="M0 0 C0.66 1.32 1.32 2.64 2 4 C1.29423828 4.78117188 1.29423828 4.78117188 0.57421875 5.578125 C-1.41464882 8.63792127 -1.71888524 11.14527109 -2.1875 14.75 C-2.42533203 16.50570312 -2.42533203 16.50570312 -2.66796875 18.296875 C-2.83232422 19.63492188 -2.83232422 19.63492188 -3 21 C-3.33 21 -3.66 21 -4 21 C-4.41223573 13.82404475 -3.62141962 7.72333012 -1 1 C-0.67 0.67 -0.34 0.34 0 0 Z " fill="#263146" transform="translate(174,206)"/>
<path d="M0 0 C5.03985731 0.44469329 7.37634988 2.71343362 11 6 C8.3333581 7.33332095 6.83319697 6.67102033 4 6 C4 5.01 4 4.02 4 3 C3.01 3 2.02 3 1 3 C0.67 2.01 0.34 1.02 0 0 Z " fill="#212C41" transform="translate(344,196)"/>
<path d="M0 0 C0.33 0.66 0.66 1.32 1 2 C0.525625 2.5775 0.05125 3.155 -0.4375 3.75 C-1.9484867 5.92582084 -2.54036151 7.42602448 -3 10 C-4.32 10 -5.64 10 -7 10 C-5.33248852 6.05860922 -2.77289351 3.2107188 0 0 Z " fill="#485064" transform="translate(191,222)"/>
<path d="M0 0 C0.66 0.33 1.32 0.66 2 1 C-0.64 3.64 -3.28 6.28 -6 9 C-6.33 7.68 -6.66 6.36 -7 5 C-4.69 3.35 -2.38 1.7 0 0 Z " fill="#424A5E" transform="translate(184,201)"/>
<path d="M0 0 C0.66 0.33 1.32 0.66 2 1 C2 3.31 2 5.62 2 8 C1.01 8.495 1.01 8.495 0 9 C-2.1519437 5.77208445 -2.20086443 4.71599191 -2 1 C-1.34 0.67 -0.68 0.34 0 0 Z " fill="#353D50" transform="translate(175,246)"/>
<path d="M0 0 C0.66 0 1.32 0 2 0 C2 2.31 2 4.62 2 7 C1.34 7 0.68 7 0 7 C-0.66 6.34 -1.32 5.68 -2 5 C-1.46428571 1.46428571 -1.46428571 1.46428571 0 0 Z " fill="#323B4E" transform="translate(175,272)"/>
<path d="M0 0 C1.65 0 3.3 0 5 0 C4.67 0.99 4.34 1.98 4 3 C3.01 3 2.02 3 1 3 C1 4.65 1 6.3 1 8 C0.67 8 0.34 8 0 8 C0 5.36 0 2.72 0 0 Z " fill="#41495D" transform="translate(178,230)"/>
<path d="M0 0 C3.3 0 6.6 0 10 0 C10 0.33 10 0.66 10 1 C6.7 1 3.4 1 0 1 C0 0.67 0 0.34 0 0 Z " fill="#232F45" transform="translate(328,479)"/>
<path d="M0 0 C3.3 0 6.6 0 10 0 C10 0.33 10 0.66 10 1 C6.7 1 3.4 1 0 1 C0 0.67 0 0.34 0 0 Z " fill="#212D43" transform="translate(194,479)"/>
<path d="M0 0 C1.65 0 3.3 0 5 0 C5 0.33 5 0.66 5 1 C3.35 1 1.7 1 0 1 C0 0.67 0 0.34 0 0 Z " fill="#313B50" transform="translate(339,193)"/>
<path d="M0 0 C4 1 4 1 4 1 Z " fill="#1C283E" transform="translate(190,478)"/>
<path d="M0 0 C1 4 1 4 1 4 Z " fill="#263146" transform="translate(362,454)"/>
<path d="M0 0 C1 4 1 4 1 4 Z " fill="#273348" transform="translate(169,453)"/>
<path d="M0 0 C1 4 1 4 1 4 Z " fill="#2D384E" transform="translate(169,212)"/>
<path d="M0 0 C4 1 4 1 4 1 Z " fill="#333D52" transform="translate(189,193)"/>
<path d="M0 0 C3 1 3 1 3 1 Z " fill="#1A263C" transform="translate(339,478)"/>
<path d="" fill="#273248" transform="translate(0,0)"/>
<path d="" fill="#212E43" transform="translate(0,0)"/>
<path d="M0 0 C3 1 3 1 3 1 Z " fill="#243045" transform="translate(344,194)"/>
<path d="M0 0 C2 1 2 1 2 1 Z " fill="#1F2C42" transform="translate(342,477)"/>
<path d="M0 0 C2 1 2 1 2 1 Z " fill="#18253B" transform="translate(188,477)"/>
<path d="M0 0 C2 1 2 1 2 1 Z " fill="#1A263C" transform="translate(345,476)"/>
<path d="M0 0 C2 1 2 1 2 1 Z " fill="#19263C" transform="translate(182,474)"/>
<path d="M0 0 C2 1 2 1 2 1 Z " fill="#1E2C41" transform="translate(351,472)"/>
<path d="" fill="#1F2B41" transform="translate(0,0)"/>
<path d="" fill="#212E44" transform="translate(0,0)"/>
<path d="" fill="#222F44" transform="translate(0,0)"/>
<path d="" fill="#232F45" transform="translate(0,0)"/>
<path d="" fill="#283449" transform="translate(0,0)"/>
<path d="" fill="#1B283E" transform="translate(0,0)"/>
<path d="" fill="#1B283E" transform="translate(0,0)"/>
<path d="" fill="#19263C" transform="translate(0,0)"/>
<path d="" fill="#273348" transform="translate(0,0)"/>
<path d="M0 0 C2 1 2 1 2 1 Z " fill="#2C374C" transform="translate(180,197)"/>
<path d="M0 0 C2 1 2 1 2 1 Z " fill="#1E2A40" transform="translate(347,195)"/>
<path d="M0 0 C2 1 2 1 2 1 Z " fill="#2C374C" transform="translate(186,194)"/>
<path d="" fill="#162339" transform="translate(0,0)"/>
<path d="" fill="#1A273D" transform="translate(0,0)"/>
<path d="" fill="#172339" transform="translate(0,0)"/>
<path d="" fill="#18253B" transform="translate(0,0)"/>
<path d="" fill="#1B293E" transform="translate(0,0)"/>
<path d="" fill="#152238" transform="translate(0,0)"/>
<path d="" fill="#17243A" transform="translate(0,0)"/>
<path d="" fill="#19253B" transform="translate(0,0)"/>
<path d="" fill="#1A273E" transform="translate(0,0)"/>
<path d="" fill="#19253B" transform="translate(0,0)"/>
<path d="" fill="#1E2C45" transform="translate(0,0)"/>
<path d="" fill="#18253B" transform="translate(0,0)"/>
<path d="" fill="#1D2C43" transform="translate(0,0)"/>
<path d="" fill="#1A283F" transform="translate(0,0)"/>
<path d="" fill="#19273D" transform="translate(0,0)"/>
<path d="" fill="#1D293F" transform="translate(0,0)"/>
<path d="" fill="#19263C" transform="translate(0,0)"/>
<path d="" fill="#1B283E" transform="translate(0,0)"/>
<path d="" fill="#1D2A41" transform="translate(0,0)"/>
<path d="" fill="#1D2A40" transform="translate(0,0)"/>
<path d="" fill="#1F2C42" transform="translate(0,0)"/>
<path d="" fill="#222E44" transform="translate(0,0)"/>
<path d="" fill="#212E43" transform="translate(0,0)"/>
<path d="" fill="#162238" transform="translate(0,0)"/>
<path d="" fill="#162339" transform="translate(0,0)"/>
<path d="" fill="#1D2A40" transform="translate(0,0)"/>
<path d="" fill="#1C293F" transform="translate(0,0)"/>
<path d="" fill="#212D43" transform="translate(0,0)"/>
<path d="" fill="#25334B" transform="translate(0,0)"/>
<path d="" fill="#243046" transform="translate(0,0)"/>
<path d="" fill="#233048" transform="translate(0,0)"/>
<path d="" fill="#253147" transform="translate(0,0)"/>
<path d="" fill="#1B283F" transform="translate(0,0)"/>
<path d="" fill="#222E44" transform="translate(0,0)"/>
<path d="" fill="#17243A" transform="translate(0,0)"/>
<path d="" fill="#202C42" transform="translate(0,0)"/>
<path d="" fill="#162339" transform="translate(0,0)"/>
<path d="" fill="#1C293F" transform="translate(0,0)"/>
<path d="" fill="#263147" transform="translate(0,0)"/>
<path d="" fill="#29344A" transform="translate(0,0)"/>
</svg>
